<?xml version="1.0" encoding="UTF-8" standalone="no"?>
<svg width="53px" height="48px" viewBox="0 0 53 48" version="1.1" xmlns="http://www.w3.org/2000/svg" xmlns:xlink="http://www.w3.org/1999/xlink">
    <!-- Generator: Sketch 3.8.3 (29802) - http://www.bohemiancoding.com/sketch -->
    <title>metrics icon</title>
    <desc>Created with Sketch.</desc>
    <defs></defs>
    <g id="Home" stroke="none" stroke-width="1" fill="none" fill-rule="evenodd">
        <g id="1366w" transform="translate(-964.000000, -4857.000000)" fill="#000000">
            <g id="skills" transform="translate(0.000000, 4779.000000)">
                <g id="highlights" transform="translate(321.000000, 78.000000)">
                    <g id="icons" transform="translate(16.000000, 0.000000)">
                        <g id="metrics-icon" transform="translate(627.000000, 0.000000)">
                            <path d="M51.1730403,0.467106227 L1.57421245,0.467106227 C0.705054945,0.467106227 0,1.17216117 0,2.04131868 L0,35.1296703 C0,35.9994139 0.705054945,36.7038828 1.57421245,36.7038828 L51.1736264,36.7038828 C52.0421978,36.7038828 52.7478388,36 52.7478388,35.1296703 L52.7478388,2.04131868 C52.7472527,1.17216117 52.0421978,0.467106227 51.1730403,0.467106227 L51.1730403,0.467106227 Z M50.6356044,30.0524542 C50.6356044,30.2230037 50.4978755,30.3613187 50.3267399,30.3613187 L2.42051282,30.3613187 C2.24937729,30.3613187 2.11164835,30.2230037 2.11164835,30.0524542 L2.11164835,2.88703297 C2.11164835,2.71648352 2.24937729,2.5781685 2.42051282,2.5781685 L50.3267399,2.5781685 C50.4978755,2.5781685 50.6356044,2.71648352 50.6356044,2.88703297 L50.6356044,30.0524542 L50.6356044,30.0524542 Z" id="Shape"></path>
                            <path d="M32.1025641,38.2868864 L20.6446886,38.2868864 C21.1100366,46.1954579 18.6408791,45.3550183 18.0090842,46.327326 C17.7148718,46.7786081 17.8748718,47.1513553 18.0430769,47.3717216 C18.1468132,47.5076923 18.3976557,47.5915018 18.5682051,47.5915018 L34.1796337,47.5915018 C34.3501832,47.5915018 34.6016117,47.5076923 34.7047619,47.3717216 C34.872381,47.1513553 35.032967,46.778022 34.7387546,46.327326 C34.1063736,45.3550183 31.6372161,46.1954579 32.1025641,38.2868864 L32.1025641,38.2868864 Z" id="Shape"></path>
                            <path d="M14.3894505,21.2647619 L10.2986081,21.2647619 C10.0905495,21.2647619 9.92644689,21.4165568 9.92644689,21.6052747 L9.92644689,27.7157509 C9.92644689,27.9044689 10.0899634,28.058022 10.2986081,28.058022 L14.3894505,28.058022 C14.5969231,28.058022 14.7610256,27.9044689 14.7610256,27.7157509 L14.7610256,21.6052747 C14.7610256,21.4165568 14.5969231,21.2647619 14.3894505,21.2647619 L14.3894505,21.2647619 Z" id="Shape"></path>
                            <path d="M21.4048352,16.6089377 L17.3204396,16.6089377 C17.1211722,16.6089377 16.9494505,16.7624908 16.9494505,16.9506227 L16.9494505,27.7157509 C16.9494505,27.9044689 17.1211722,28.058022 17.3204396,28.058022 L21.4048352,28.058022 C21.6123077,28.058022 21.7840293,27.9044689 21.7840293,27.7157509 L21.7840293,16.9506227 C21.7846154,16.7624908 21.6128938,16.6089377 21.4048352,16.6089377 L21.4048352,16.6089377 Z" id="Shape"></path>
                            <path d="M28.4249084,19.4021978 L24.3475458,19.4021978 C24.1400733,19.4021978 23.9689377,19.5545788 23.9689377,19.7432967 L23.9689377,27.7157509 C23.9689377,27.9044689 24.1400733,28.058022 24.3475458,28.058022 L28.4249084,28.058022 C28.632381,28.058022 28.8035165,27.9044689 28.8035165,27.7157509 L28.8035165,19.7438828 C28.8035165,19.5545788 28.632381,19.4021978 28.4249084,19.4021978 L28.4249084,19.4021978 Z" id="Shape"></path>
                            <path d="M35.4555311,18.1608791 L31.3652747,18.1608791 C31.15663,18.1608791 30.9931136,18.3138462 30.9931136,18.501978 L30.9931136,27.7157509 C30.9931136,27.9044689 31.156044,28.058022 31.3652747,28.058022 L35.4555311,28.058022 C35.6635897,28.058022 35.8271062,27.9044689 35.8271062,27.7157509 L35.8271062,18.501978 C35.8271062,18.3138462 35.6641758,18.1608791 35.4555311,18.1608791 L35.4555311,18.1608791 Z" id="Shape"></path>
                            <path d="M42.4756044,13.505641 L38.3841758,13.505641 C38.1761172,13.505641 38.0126007,13.6586081 38.0126007,13.8461538 L38.0126007,27.7157509 C38.0126007,27.9044689 38.1755311,28.058022 38.3841758,28.058022 L42.4756044,28.058022 C42.6830769,28.058022 42.8471795,27.9044689 42.8471795,27.7157509 L42.8471795,13.8461538 C42.8465934,13.6586081 42.6824908,13.505641 42.4756044,13.505641 L42.4756044,13.505641 Z" id="Shape"></path>
                            <path d="M44.8849817,5.04205128 L41.6849817,5.04205128 C41.4722344,5.04205128 41.2975824,5.2167033 41.2975824,5.43003663 C41.2975824,5.64512821 41.4722344,5.81802198 41.6849817,5.81802198 L43.9185348,5.81802198 L28.9412454,15.8364835 L22.3062271,10.0717949 C22.2288645,10.0014652 22.116337,9.9592674 21.9862271,9.95223443 C21.8666667,9.94930403 21.7488645,9.97626374 21.6515751,10.03663 L7.62725275,19.2310623 C7.43970696,19.3558974 7.42212454,19.570989 7.58798535,19.7116484 C7.6829304,19.7878388 7.80600733,19.8259341 7.93201465,19.8259341 C8.03868132,19.8259341 8.14652015,19.7983883 8.23970696,19.7403663 L21.9088645,10.7768498 L28.5444689,16.5444689 C28.6241758,16.6153846 28.7378755,16.6581685 28.8679853,16.6640293 C28.9916484,16.6716484 29.1065201,16.6388278 29.2026374,16.5772894 L44.4969963,6.34959707 L44.4969963,8.63003663 C44.4969963,8.84336996 44.6698901,9.01802198 44.8849817,9.01802198 C45.0977289,9.01802198 45.272967,8.84336996 45.272967,8.63003663 L45.272967,5.43003663 C45.272967,5.21611722 45.0977289,5.04205128 44.8849817,5.04205128 L44.8849817,5.04205128 Z" id="Shape"></path>
                        </g>
                    </g>
                </g>
            </g>
        </g>
    </g>
</svg>