<?xml version="1.0" encoding="UTF-8" standalone="no"?>
<svg width="71px" height="48px" viewBox="0 0 71 48" version="1.1" xmlns="http://www.w3.org/2000/svg" xmlns:xlink="http://www.w3.org/1999/xlink">
    <!-- Generator: Sketch 3.8.3 (29802) - http://www.bohemiancoding.com/sketch -->
    <title>laptop icon</title>
    <desc>Created with Sketch.</desc>
    <defs></defs>
    <g id="Home" stroke="none" stroke-width="1" fill="none" fill-rule="evenodd">
        <g id="1366w" transform="translate(-337.000000, -4857.000000)" fill="#000000">
            <g id="skills" transform="translate(0.000000, 4779.000000)">
                <g id="highlights" transform="translate(321.000000, 78.000000)">
                    <g id="icons" transform="translate(16.000000, 0.000000)">
                        <g id="laptop-icon">
                            <path d="M70.5794118,43.5077206 L66.3893382,43.5077206 L66.3893382,3.47757353 C66.3893382,1.89595588 65.1022059,0.609926471 63.5205882,0.609926471 L7.07205882,0.609926471 C5.49044118,0.609926471 4.20441176,1.89595588 4.20441176,3.47757353 L4.20441176,43.5077206 L0.00220588235,43.5077206 L0.00220588235,45.1621324 L0.00882352941,45.1621324 L3.53713235,47.9194853 L67.0555147,47.9194853 L70.5838235,45.1621324 L70.5772059,45.1621324 L70.5772059,43.5077206 L70.5794118,43.5077206 Z M64.1834559,43.5077206 L41.6470588,43.5077206 C41.4783088,44.4363971 40.65,45.1621324 39.6132353,45.1621324 L30.9694853,45.1621324 C29.9327206,45.1621324 29.1044118,44.4363971 28.9356618,43.5077206 L6.41139706,43.5077206 L6.41139706,3.47757353 C6.41139706,3.11911765 6.71360294,2.81580882 7.07316176,2.81580882 L63.5216912,2.81580882 C63.8801471,2.81580882 64.1845588,3.11801471 64.1845588,3.47757353 L64.1845588,43.5077206 L64.1834559,43.5077206 Z" id="Shape"></path>
                            <polygon id="Shape" points="19.2650735 22.9433824 19.2650735 24.3352941 30.0529412 29.8930147 30.0529412 28.0180147 21.3176471 23.6393382 29.9768382 19.2981618 30.0529412 19.2606618 30.0529412 17.3867647 19.3400735 22.9047794"></polygon>
                            <polygon id="Shape" points="31.6676471 30.7113971 33.4819853 30.7113971 39.8591912 14.1948529 39.9319853 14.0084559 38.0944853 14.0084559"></polygon>
                            <polygon id="Shape" points="40.5341912 17.3878676 40.5341912 19.2606618 49.3356618 23.6393382 40.6113971 27.9794118 40.5341912 28.0180147 40.5341912 29.8930147 51.3242647 24.3573529 51.3242647 22.9213235 40.7349265 17.4904412"></polygon>
                        </g>
                    </g>
                </g>
            </g>
        </g>
    </g>
</svg>