<?xml version="1.0" encoding="UTF-8" standalone="no"?>
<svg width="48px" height="48px" viewBox="0 0 48 48" version="1.1" xmlns="http://www.w3.org/2000/svg" xmlns:xlink="http://www.w3.org/1999/xlink">
    <!-- Generator: Sketch 3.8.3 (29802) - http://www.bohemiancoding.com/sketch -->
    <title>api icon</title>
    <desc>Created with Sketch.</desc>
    <defs></defs>
    <g id="Home" stroke="none" stroke-width="1" fill="none" fill-rule="evenodd">
        <g id="1366w" transform="translate(-752.000000, -4857.000000)" fill="#000000">
            <g id="skills" transform="translate(0.000000, 4779.000000)">
                <g id="highlights" transform="translate(321.000000, 78.000000)">
                    <g id="icons" transform="translate(16.000000, 0.000000)">
                        <path d="M462.168599,33.8219101 L452.702307,29.0286517 L461.662981,24.3960674 C461.948375,24.2477528 461.948375,24.0095506 461.661296,23.8651685 L451.555678,18.7488764 L462.180397,13.255618 C462.696689,12.9876404 463.002869,12.5123596 463.00006,11.9837079 C462.996689,11.4561798 462.684891,10.9853933 462.168599,10.7247191 L441.447251,0.234831461 C441.063543,0.041011236 440.662981,0 440.39388,0 C440.146689,0 439.777026,0.0348314607 439.419161,0.202247191 L415.864105,11.2297753 C415.32815,11.4808989 415.005116,11.9505618 415.00006,12.4853933 C414.995004,13.0207865 415.310172,13.4966292 415.842195,13.758427 L427.15624,19.3219101 L416.341071,24.3848315 C416.052307,24.5202247 416.051184,24.7460674 416.338262,24.8870787 L425.941633,29.6095506 L415.864105,34.3264045 C415.327588,34.5775281 415.004554,35.047191 415.00006,35.5820225 C414.995566,36.1174157 415.310734,36.5932584 415.842195,36.8539326 L438.063543,47.7820225 C438.429273,47.9623596 438.809049,48 439.062981,48 C439.330397,48 439.729273,47.9589888 440.114667,47.761236 L462.181521,36.3522472 C462.697813,36.0842697 463.003993,35.6089888 463.001184,35.0803371 C462.996689,34.5533708 462.685453,34.0820225 462.168599,33.8219101 L462.168599,33.8219101 Z M440.33433,2.25224719 C440.339948,2.2511236 440.361858,2.24719101 440.39388,2.24719101 C440.42815,2.24719101 440.453431,2.25168539 440.439948,2.24382022 L459.714667,12.0011236 L439.120846,22.6516854 C439.115228,22.652809 439.09388,22.6573034 439.062981,22.6573034 L439.055116,22.6691011 L418.411858,12.5179775 L440.33433,2.25224719 L440.33433,2.25224719 Z M439.123655,45.747191 C439.117476,45.7488764 439.095004,45.752809 439.062419,45.752809 L439.055678,45.7657303 L418.412981,35.6140449 L428.174217,31.044382 L438.062419,35.9067416 C438.428712,36.0870787 438.808487,36.1252809 439.062419,36.1252809 C439.330397,36.1252809 439.729835,36.0837079 440.112981,35.8859551 L450.581521,30.4741573 L459.713543,35.0977528 L439.123655,45.747191 L439.123655,45.747191 Z" id="api-icon"></path>
                    </g>
                </g>
            </g>
        </g>
    </g>
</svg>