<?xml version="1.0" encoding="UTF-8" standalone="no"?>
<svg width="37px" height="48px" viewBox="0 0 37 48" version="1.1" xmlns="http://www.w3.org/2000/svg" xmlns:xlink="http://www.w3.org/1999/xlink">
    <!-- Generator: Sketch 3.8.3 (29802) - http://www.bohemiancoding.com/sketch -->
    <title>mobile icon</title>
    <desc>Created with Sketch.</desc>
    <defs></defs>
    <g id="Home" stroke="none" stroke-width="1" fill="none" fill-rule="evenodd">
        <g id="1366w" transform="translate(-548.000000, -4857.000000)" fill="#000000">
            <g id="skills" transform="translate(0.000000, 4779.000000)">
                <g id="highlights" transform="translate(321.000000, 78.000000)">
                    <g id="icons" transform="translate(16.000000, 0.000000)">
                        <g id="mobile-icon" transform="translate(211.000000, 0.000000)">
                            <g id="Layer-1">
                                <path d="M14.7313696,35.6686293 C15.3562112,36.2934688 15.3562112,37.3065312 14.7313696,37.9313707 C14.1065312,38.5562112 13.0934688,38.5562112 12.4686304,37.9313707 C11.8437888,37.3065312 11.8437888,36.2934688 12.4686304,35.6686293 C13.0934688,35.0437888 14.1065312,35.0437888 14.7313696,35.6686293 L14.7313696,35.6686293 Z M20.8,21.8666667 L34.6666667,21.8666667 L34.6666667,41.6 L20.8,41.6 L20.8,21.8666667 Z M28.864704,43.6686293 C29.4895445,44.2934688 29.4895445,45.3065312 28.864704,45.9313707 C28.2398645,46.5562112 27.2268021,46.5562112 26.6019627,45.9313707 C25.9771221,45.3065312 25.9771221,44.2934688 26.6019627,43.6686293 C27.2268021,43.0437888 28.2398645,43.0437888 28.864704,43.6686293 L28.864704,43.6686293 Z M19.2,33.0666667 L1.6,33.0666667 L1.6,4.26666667 L25.6,4.26666667 L25.6,19.2 L27.2,19.2 L27.2,2.66666667 C27.2,1.19390736 26.0060928,0 24.5333333,0 L2.66666667,0 C1.1939072,0 0,1.19390736 0,2.66666667 L0,37.8666667 C0,39.3394261 1.1939072,40.5333333 2.66666667,40.5333333 L19.2,40.5333333 L19.2,45.3333333 C19.2,46.8060928 20.3939072,48 21.8666667,48 L33.6,48 C35.0727595,48 36.2666667,46.8060928 36.2666667,45.3333333 L36.2666667,21.8666667 C36.2666667,20.3939072 35.0727595,19.2 33.6,19.2 L21.8666667,19.2 C20.3939072,19.2 19.2,20.3939072 19.2,21.8666667 L19.2,33.0666667 Z" id="Shape"></path>
                            </g>
                        </g>
                    </g>
                </g>
            </g>
        </g>
    </g>
</svg>