<?xml version="1.0" encoding="UTF-8" standalone="no"?>
<svg width="125px" height="115px" viewBox="0 0 125 115" version="1.1" xmlns="http://www.w3.org/2000/svg" xmlns:xlink="http://www.w3.org/1999/xlink" xmlns:sketch="http://www.bohemiancoding.com/sketch/ns">
    <g id="Home" stroke="none" stroke-width="1" fill="none" fill-rule="evenodd" sketch:type="MSPage">
        <g sketch:type="MSArtboardGroup" transform="translate(-300.000000, -1998.000000)">
            <g id="experience" sketch:type="MSLayerGroup" transform="translate(0.000000, 1860.000000)">
                <g id="kite" transform="translate(0.000000, 81.000000)" sketch:type="MSShapeGroup">
                    <g id="logo" transform="translate(300.000000, 57.000000)">
                        <g id="kite-logo-svg">
                            <g id="name" transform="translate(0.000000, 89.448457)" fill="#231F1F">
                                <path d="M28.0752212,0.199760823 L21.3053097,0.199760823 L4.57964602,12.5627362 L4.57964602,0.199760823 L0.110619469,0.199760823 L0.110619469,25.4584071 L4.51327434,25.4584071 L4.51327434,17.7121263 L11.3495575,12.6293231 L22.1238938,25.4584071 L28.0752212,25.4584071 L15.0221239,9.9214542 L28.0752212,0.199760823 Z" id="Shape"></path>
                                <rect id="Rectangle-path" x="30.0442478" y="0.199760823" width="4.60176991" height="25.2586463"></rect>
                                <path d="M37.3451327,4.12839034 L42.2345133,4.12839034 L47.1681416,4.12839034 L47.1681416,14.8044965 L47.1681416,25.4584071 L49.4026549,25.4584071 L51.6371681,25.4584071 L51.6371681,14.8044965 L51.6371681,4.12839034 L56.5707965,4.12839034 L61.5265487,4.12839034 L61.5265487,2.1751734 L61.5265487,0.199760823 L49.4690265,0.199760823 L37.3451327,0.199760823 L37.3451327,2.1751734 L37.3451327,4.12839034 Z" id="Shape"></path>
                                <path d="M67.8097345,21.4631906 L67.8097345,14.3161923 L86.1725664,14.3161923 L86.1725664,10.4541497 L67.8097345,10.4541497 L67.8097345,4.21717293 L86.7035398,4.21717293 L86.7035398,0.199760823 L63.340708,0.199760823 L63.340708,25.4584071 L87.5221239,25.4584071 L87.5221239,21.4631906 L67.8097345,21.4631906 Z" id="Shape"></path>
                            </g>
                            <path d="M113.185841,12.9622578 C112.367257,10.5207367 111.216814,8.0792155 109.60177,5.77086821 C108.185841,3.66228175 106.482301,1.75345611 104.60177,0.0665869409 C104.469027,3.32934705 104.070796,6.72528103 103.252212,10.2543889 C103.053097,11.2088017 102.787611,12.0966276 102.5,12.9622578 C101.814159,15.3371921 101.017699,17.6455393 100.066372,19.8872997 C102.566372,20.2202344 105.221239,20.2868213 107.853982,19.9538866 C110.022124,19.6875389 112.190265,19.1992346 114.225664,18.5999522 C114.115044,16.7133222 113.783186,14.8044965 113.185841,12.9622578 L113.185841,12.9622578 Z" id="north" fill="#05B7E0"></path>
                            <path d="M122.455752,14.6713227 C119.889381,16.2916049 117.168142,17.667735 114.269912,18.5999522 C114.336283,19.3546042 114.336283,20.0204736 114.336283,20.7085386 C114.336283,21.7295384 114.20354,22.7505381 114.070796,23.7715379 C117.853982,20.309017 121.460177,16.7133222 124.845133,13.0510404 C124.070796,13.5837359 123.274336,14.1164315 122.455752,14.6713227 L122.455752,14.6713227 Z" id="east" fill="#B2D137"></path>
                            <path d="M93.960177,18.4001913 C92.7433628,28.3882325 88.340708,37.3552739 81.7035398,44.2137288 C80.619469,45.3679024 79.4690265,46.4554891 78.2522124,47.4099019 C77.8539823,47.7428366 77.3672566,48.097967 76.9690265,48.4309017 C78.4513274,47.4099019 79.9557522,46.2557283 81.3716814,45.1015547 C81.7035398,44.8352069 82.0575221,44.5688591 82.3893805,44.2137288 C89.9115044,37.6882086 96.1946903,29.2760584 100.132743,19.8207127 C98.0088496,19.554365 95.9070796,19.0882564 93.960177,18.4001913 L93.960177,18.4001913 Z" id="west" fill="#B2D137"></path>
                            <path d="M114.269912,18.5333652 C112.234513,19.2214303 110.066372,19.6875389 107.89823,19.8872997 C105.265487,20.1536475 102.676991,20.1536475 100.110619,19.8207127 C96.1946903,29.2538627 89.8893805,37.6882086 82.3672566,44.2137288 C82.0353982,44.4800765 81.6814159,44.7464243 81.3495575,45.1015547 C79.9336283,46.2557283 78.4292035,47.4099019 76.9469027,48.4309017 C76.5486726,48.6972495 76.0619469,49.0523798 75.6637168,49.3187276 C73.0973451,51.0055967 70.4424779,52.4483138 67.7433628,53.6690744 C68.8938053,53.2029658 70.1106195,52.7146616 71.2610619,52.248553 C71.5929204,52.1153791 72.0132743,51.9156183 72.3451327,51.7824444 C76.880531,49.7404449 81.6150442,47.2989237 86.3495575,44.4578809 C95.6858407,38.8201866 105.243363,31.7619708 113.960177,23.8159292 C114.09292,22.7949294 114.225664,21.7739297 114.225664,20.7529299 C114.336283,19.9538866 114.336283,19.2880172 114.269912,18.5333652 L114.269912,18.5333652 Z" id="south" fill="#F15B29"></path>
                            <ellipse id="circle3" stroke="#000000" cx="98.4955752" cy="82.2792633" rx="5.99557522" ry="6.01502033"></ellipse>
                            <path d="M98.4292035,81.7909591 C98.7610619,81.7909591 98.9823009,81.7243722 99.1371681,81.6133939 C99.2699115,81.48022 99.3584071,81.2804592 99.3584071,81.0141115 C99.3584071,80.7477637 99.2920354,80.5480029 99.1371681,80.414829 C99.0044248,80.3038508 98.7610619,80.2372638 98.4292035,80.2372638 L97.7654867,80.2372638 L97.7654867,81.7909591 L98.4292035,81.7909591 M97.7654867,82.8785458 L97.7654867,85.1868931 L96.1946903,85.1868931 L96.1946903,79.1052858 L98.5840708,79.1052858 C99.380531,79.1052858 99.9778761,79.2384597 100.331858,79.5048075 C100.707965,79.7711552 100.884956,80.1928725 100.884956,80.792155 C100.884956,81.1916766 100.79646,81.5246113 100.597345,81.7909591 C100.39823,82.0573069 100.110619,82.234872 99.7123894,82.3680459 C99.9336283,82.4124372 100.110619,82.5234155 100.287611,82.7009806 C100.464602,82.8785458 100.619469,83.1226979 100.79646,83.4778283 L101.637168,85.2090887 L99.9778761,85.2090887 L99.2477876,83.6997847 C99.0929204,83.3890457 98.9380531,83.1892849 98.7831858,83.0783066 C98.6283186,82.9673284 98.4292035,82.9007414 98.1637168,82.9007414 L97.7654867,82.9007414" id="text3175" fill="#000000"></path>
                        </g>
                    </g>
                </g>
            </g>
        </g>
    </g>
</svg>