<?xml version="1.0" encoding="UTF-8" standalone="no"?>
<svg width="96px" height="54px" viewBox="0 0 96 54" version="1.1" xmlns="http://www.w3.org/2000/svg" xmlns:xlink="http://www.w3.org/1999/xlink">
    <!-- Generator: Sketch 3.8.3 (29802) - http://www.bohemiancoding.com/sketch -->
    <title>logo</title>
    <desc>Created with Sketch.</desc>
    <defs></defs>
    <g id="Home" stroke="none" stroke-width="1" fill="none" fill-rule="evenodd">
        <g id="1366w" transform="translate(-747.000000, -5619.000000)">
            <g id="companies" transform="translate(0.000000, 5522.000000)">
                <g id="right" transform="translate(743.000000, 80.000000)">
                    <g id="digit" transform="translate(4.000000, 0.000000)">
                        <g id="logo" transform="translate(0.000000, 17.000000)">
                            <path d="M94.1954108,0.0320229171 L74.9176147,0.0320229171 C74.2291219,0.0320229171 73.6687209,0.592423967 73.6687209,1.28091669 L73.6687209,20.5747243 C73.6687209,21.263217 74.2291219,21.7755837 74.9016032,21.7275493 L94.2274337,20.1424149 C94.9159264,20.0623576 95.460316,19.4699336 95.460316,18.7814409 L95.460316,1.28091669 C95.4282931,0.592423967 94.867892,0.0320229171 94.1954108,0.0320229171 L94.1954108,0.0320229171 Z M86.5259221,5.55597613 L91.585543,5.55597613 L91.585543,6.93296156 L86.5259221,6.93296156 L86.5259221,5.55597613 L86.5259221,5.55597613 Z M77.2873105,5.55597613 L79.1606512,5.55597613 L79.1606512,3.71465839 L80.6176939,3.71465839 L80.6176939,5.55597613 L82.4910346,5.55597613 L82.4910346,6.96498448 L80.6176939,6.96498448 L80.6176939,8.80630222 L79.1606512,8.80630222 L79.1606512,6.96498448 L77.2873105,6.96498448 L77.2873105,5.55597613 L77.2873105,5.55597613 Z M83.8359971,17.5325471 C81.4342783,17.5325471 79.2086856,16.4757909 77.6715855,14.6664961 L78.8564335,13.6897971 C80.0893158,15.1788627 81.9306335,16.0114586 83.8520086,16.0114586 C86.974243,16.0114586 89.6801795,13.7858658 90.2726034,10.7116658 L91.7776805,10.999872 C91.0571649,14.7785763 87.7267815,17.5325471 83.8359971,17.5325471 L83.8359971,17.5325471 Z" id="Shape" fill="#4DE1A3"></path>
                            <path d="M17.2923753,39.5483027 L17.0842263,39.5483027 C15.4510575,41.93401 13.0173158,43.1028465 9.76698973,43.1028465 C6.7248126,43.1028465 4.33910527,42.0460902 2.65790212,39.9806121 C0.976698973,37.883111 0.128091669,34.9370026 0.128091669,31.0942526 C0.128091669,27.2515025 0.976698973,24.2893827 2.65790212,22.1598587 C4.33910527,20.0303347 6.7248126,18.9895899 9.75097827,18.9895899 C12.9052356,18.9895899 15.3229659,20.1424149 17.0201805,22.416042 L17.3083867,22.416042 L17.1482721,20.7508503 L17.0682148,19.1176815 L17.0682148,9.6228866 L20.6067472,9.6228866 L20.6067472,42.6865486 L17.7406961,42.6865486 L17.2923753,39.5483027 L17.2923753,39.5483027 Z M10.2473335,40.1567381 C12.6490523,40.1567381 14.3943013,39.5162798 15.4990919,38.2193516 C16.6038825,36.906412 17.1322607,34.8089109 17.1322607,31.878814 L17.1322607,31.1422869 C17.1322607,27.8439265 16.5878711,25.490242 15.467069,24.0812337 C14.3943013,22.6722253 12.6330408,21.9837326 10.1992991,21.9837326 C8.13382096,21.9837326 6.5326751,22.7843056 5.45990737,24.3854514 C4.38713965,26.0026087 3.79471568,28.2442129 3.79471568,31.1903213 C3.79471568,34.1524411 4.33910527,36.4100568 5.42788446,37.9471568 C6.54868656,39.3881881 8.13382096,40.1567381 10.2473335,40.1567381 L10.2473335,40.1567381 Z M27.9399952,42.6865486 L24.4014629,42.6865486 L24.4014629,19.4058878 L27.9399952,19.4058878 L27.9399952,42.6865486 L27.9399952,42.6865486 Z M51.1886331,19.3738649 L51.1886331,21.6314805 L46.8975622,22.1438472 C47.2818372,22.6562139 47.6340893,23.2966722 47.9703299,24.0812337 C48.2745476,24.8818066 48.4346622,25.7624368 48.4346622,26.7871702 C48.4346622,29.0607973 47.6340893,30.8861036 46.1130007,32.2310661 C44.5598892,33.5920401 42.4303652,34.2805328 39.6924058,34.2805328 C39.0039131,34.2805328 38.3314318,34.2004755 37.7550193,34.1044068 C36.2499422,34.9049797 35.4974037,35.8976901 35.4974037,37.0985495 C35.4974037,37.7390079 35.753587,38.2033402 36.2979766,38.5075579 C36.8103433,38.8117756 37.7069849,38.9718902 38.9879016,38.9718902 L43.1348694,38.9718902 C45.6646799,38.9718902 47.5860549,39.4842568 48.9470289,40.5570246 C50.3080028,41.6297923 50.9644726,43.1668923 50.9644726,45.1843361 C50.9644726,47.7461695 49.9077164,49.7315903 47.8422382,51.0765528 C45.7767601,52.4375268 42.7505944,53.0939966 38.7797527,53.0939966 C35.7375755,53.0939966 33.3838911,52.5335956 31.7507224,51.4127935 C30.0855307,50.2919914 29.2689463,48.6748341 29.2689463,46.6093559 C29.2689463,45.2003476 29.7332786,43.9674652 30.6299203,42.9267204 C31.5585848,41.8699642 32.8074786,41.1814715 34.4726703,40.8292194 C33.8802463,40.573036 33.3999026,40.1407266 32.9675932,39.5803256 C32.5512953,39.0199245 32.3591578,38.3474433 32.3591578,37.6109162 C32.3591578,36.7623089 32.5673067,36.0257818 33.031639,35.3533005 C33.4959713,34.7128422 34.216487,34.1044068 35.1771745,33.5119828 C33.9763151,32.9996161 32.9996161,32.1510088 32.2310661,30.9821723 C31.4625161,29.7813129 31.110264,28.4523619 31.110264,26.8832389 C31.110264,24.3534285 31.878814,22.3519962 33.3838911,20.9910222 C34.9209911,19.6140368 37.0985495,18.925544 39.8845433,18.925544 C41.1174256,18.925544 42.1901933,19.0856586 43.1668923,19.3578534 L51.1886331,19.3738649 L51.1886331,19.3738649 Z M32.647364,46.577333 C32.647364,47.8262268 33.1597307,48.8029257 34.2324984,49.4433841 C35.3052662,50.0838424 36.8103433,50.420083 38.8117756,50.420083 C41.7738954,50.420083 43.9514538,49.9877737 45.3924851,49.091132 C46.8175049,48.1944903 47.522009,46.9936309 47.522009,45.4885538 C47.522009,44.23966 47.137734,43.3590298 46.3371611,42.8466631 C45.5365882,42.3663194 44.0795455,42.110136 41.93401,42.110136 L37.7069849,42.110136 C36.0898276,42.110136 34.8729568,42.4944111 33.9763151,43.2629611 C33.0796734,44.0475225 32.647364,45.1523132 32.647364,46.577333 L32.647364,46.577333 Z M34.5367161,26.851216 C34.5367161,28.4843848 35.0010484,29.7172671 35.9137016,30.5658744 C36.8423662,31.3824588 38.1072714,31.8147682 39.7564516,31.8147682 C43.1829038,31.8147682 44.8961298,30.1495765 44.8961298,26.8191931 C44.8961298,23.3126837 43.1508809,21.5674347 39.6763943,21.5674347 C38.0112027,21.5674347 36.730286,22.031767 35.8336443,22.9284087 C35.0010484,23.777016 34.5367161,25.0899556 34.5367161,26.851216 L34.5367161,26.851216 Z M57.3370332,42.6865486 L53.7985008,42.6865486 L53.7985008,19.4058878 L57.3370332,19.4058878 L57.3370332,42.6865486 L57.3370332,42.6865486 Z" id="Shape" fill="#000000"></path>
                            <polygon id="Shape" fill="#000000" points="17.0361919 12.6170294 19.9342659 12.6170294 19.9342659 24.6416347 17.0361919 24.6416347"></polygon>
                            <ellipse id="Oval" fill="#000000" cx="26.1627233" cy="14.8426221" rx="2.01744378" ry="2.01744378"></ellipse>
                            <ellipse id="Oval" fill="#000000" cx="55.5597613" cy="14.8426221" rx="2.01744378" ry="2.01744378"></ellipse>
                            <path d="M70.2102458,40.188761 C69.0574208,40.188761 67.8245385,39.8365089 67.1840802,39.0679589 C66.5115989,38.2994089 66.1913697,37.2586641 66.1913697,35.8496557 L66.1913697,22.1278357 L70.4504177,22.1278357 L70.4504177,19.3738649 L66.1593468,19.3738649 L66.1593468,13.9780033 L64.1098801,13.9780033 L62.6208145,18.9735784 L59.2904311,20.4306211 L59.2904311,22.1118243 L62.6208145,22.1118243 L62.6208145,35.9777474 C62.6208145,40.7171392 64.8784301,43.086835 69.37765,43.086835 C69.7138906,43.086835 69.8099594,43.0548121 70.1782229,43.0388006 C70.2102458,40.188761 70.2262573,40.188761 70.2102458,40.188761 L70.2102458,40.188761 Z" id="Shape" fill="#000000"></path>
                        </g>
                    </g>
                </g>
            </g>
        </g>
    </g>
</svg>