<?xml version="1.0" encoding="UTF-8" standalone="no"?>
<svg width="96px" height="46px" viewBox="0 0 96 46" version="1.1" xmlns="http://www.w3.org/2000/svg" xmlns:xlink="http://www.w3.org/1999/xlink">
    <!-- Generator: Sketch 3.8.3 (29802) - http://www.bohemiancoding.com/sketch -->
    <title>dark logo</title>
    <desc>Created with Sketch.</desc>
    <defs></defs>
    <g id="Home" stroke="none" stroke-width="1" fill="none" fill-rule="evenodd">
        <g id="1366w" transform="translate(-203.000000, -5618.000000)">
            <g id="companies" transform="translate(0.000000, 5522.000000)">
                <g id="left" transform="translate(203.000000, 80.000000)">
                    <g id="first-opinion">
                        <g id="dark-logo" transform="translate(0.000000, 16.000000)">
                            <path d="M2.30392421,8.89739153 L2.30392421,20.583744 C2.30392421,21.3567712 2.94053485,21.9933818 3.71356205,21.9933818 C4.48658926,21.9933818 5.0928851,21.3719286 5.0928851,20.583744 L5.0928851,8.89739153 L8.6397158,8.89739153 C9.33695602,8.89739153 9.89777968,8.35172527 9.89777968,7.66964245 C9.89777968,6.97240222 9.33695602,6.44189336 8.6397158,6.44189336 L5.06257031,6.44189336 L5.06257031,5.51729219 C5.06257031,3.5468307 5.79012532,2.62222953 7.38165192,2.62222953 C7.69995724,2.62222953 8.01826256,2.66770172 8.30625308,2.7283313 C8.38204006,2.7434887 8.47298444,2.7586461 8.56392882,2.77380349 C9.32179863,2.84959047 9.94325187,2.27360942 9.94325187,1.54605441 C9.94325187,0.954915957 9.50368738,0.439564488 8.92770633,0.318305319 C8.39719746,0.19704615 7.82121641,0.136416565 7.10881879,0.136416565 C5.69918095,0.136416565 4.51690405,0.560823657 3.71356205,1.36416565 C2.81927568,2.27360942 2.33423901,3.66808987 2.33423901,5.39603303 L2.33423901,6.41157857 L1.36416565,6.41157857 C0.682082826,6.41157857 0.136416565,6.97240222 0.136416565,7.63932765 C0.136416565,8.35172527 0.682082826,8.89739153 1.36416565,8.89739153 L2.30392421,8.89739153 L2.30392421,8.89739153 Z" id="Shape" fill="#5C606A"></path>
                            <path d="M13.6416565,21.9933818 C14.4298411,21.9933818 15.0209796,21.387086 15.0209796,20.583744 L15.0209796,7.63932765 C15.0209796,6.85114305 14.3995263,6.22968981 13.6113417,6.22968981 C12.8534719,6.22968981 12.2320187,6.86630045 12.2320187,7.63932765 L12.2320187,20.583744 C12.2471761,21.3719286 12.8686293,21.9933818 13.6416565,21.9933818 L13.6416565,21.9933818 Z" id="Shape" fill="#5C606A"></path>
                            <path d="M20.9929937,20.583744 L20.9929937,15.5060162 C20.9929937,11.7924542 22.8573534,9.35211342 25.9949344,8.97317851 C26.7224894,8.86707674 27.2226835,8.30625308 27.2226835,7.56354067 C27.2226835,6.74504128 26.6467024,6.15390283 25.8433604,6.15390283 C24.0547877,6.15390283 22.1752706,7.39680932 20.9929937,9.29148383 L20.9929937,7.62417026 C20.9929937,6.83598566 20.3715404,6.21453242 19.5833558,6.21453242 C18.825486,6.21453242 18.2040328,6.85114305 18.2040328,7.62417026 L18.2040328,20.5685866 C18.2040328,21.3567712 18.825486,21.9782244 19.6136706,21.9782244 C20.3866978,21.9933818 20.9929937,21.3719286 20.9929937,20.583744 L20.9929937,20.583744 Z" id="Shape" fill="#5C606A"></path>
                            <path d="M27.7531923,20.2199664 C29.4356633,21.4174007 31.6486431,22.1449558 33.6645768,22.1449558 C36.999204,22.1449558 39.2424986,20.2351238 39.2424986,17.4006908 L39.2424986,17.3400612 C39.2424986,14.2934246 36.2413342,13.3991382 34.2557153,12.8079997 L34.1950857,12.7928423 C32.3610408,12.2320187 30.6179402,11.7015098 30.6179402,10.5192329 L30.6179402,10.4586033 C30.6179402,9.33695602 31.6638005,8.57908621 33.2250123,8.57908621 C34.3921318,8.57908621 35.6956679,8.97317851 36.9840466,9.70073353 C37.0901484,9.76136311 37.3175093,9.83715009 37.6054998,9.83715009 C38.30274,9.83715009 38.8635637,9.29148383 38.8635637,8.60940101 C38.8635637,8.13952173 38.605888,7.69995724 38.1663235,7.4422815 C36.6354265,6.60862472 34.8468537,6.13874544 33.2704845,6.13874544 C30.1177461,6.13874544 27.9199237,8.00310516 27.9199237,10.6859643 L27.9199237,10.7465939 C27.9199237,13.7629157 30.8907733,14.6117299 33.058281,15.2331831 C35.0438999,15.7940068 36.5747969,16.3093582 36.5747969,17.5825795 L36.5747969,17.6432091 C36.5747969,18.8861156 35.4531496,19.7197724 33.7706786,19.7197724 C32.2397816,19.7197724 30.7088846,19.2044209 29.2083024,18.1888754 C29.0112562,18.0373014 28.7687379,17.9615144 28.4959047,17.9615144 C27.7986645,17.9615144 27.2378409,18.5071807 27.2378409,19.1892635 C27.2378409,19.6591428 27.510674,20.0380777 27.7531923,20.2199664 L27.7531923,20.2199664 Z" id="Shape" fill="#5C606A"></path>
                            <path d="M46.3513174,22.114641 C47.215289,22.114641 47.942844,21.9782244 48.6400842,21.6902339 C49.1402783,21.4931877 49.4585836,21.0687806 49.4585836,20.5685866 C49.4585836,19.8865037 48.8977599,19.3408375 48.2308345,19.3408375 C48.1398901,19.3408375 48.0489458,19.3711523 47.9125292,19.4014671 C47.6851683,19.4620966 47.3668629,19.5378836 46.8666689,19.5378836 C45.3509292,19.5378836 44.6385316,18.8406434 44.6385316,17.3400612 L44.6385316,8.91254893 L48.2308345,8.91254893 C48.9432321,8.91254893 49.5192132,8.35172527 49.5192132,7.65448505 C49.5192132,6.97240222 48.9280747,6.39642117 48.2308345,6.39642117 L44.6385316,6.39642117 L44.6385316,3.137581 C44.6385316,2.37971119 44.001921,1.72794316 43.2288938,1.72794316 C42.4558666,1.72794316 41.8495707,2.3493964 41.8495707,3.137581 L41.8495707,6.36610638 L40.9249696,6.36610638 C40.2428867,6.36610638 39.6669057,6.94208743 39.6669057,7.62417026 C39.6669057,8.29109569 40.2580441,8.88223414 40.9249696,8.88223414 L41.8495707,8.88223414 L41.8495707,17.5977369 C41.8495707,20.507957 43.4562547,22.114641 46.3513174,22.114641 L46.3513174,22.114641 Z" id="Shape" fill="#5C606A"></path>
                            <path d="M8.60940101,24.9793888 C4.09249696,24.9793888 0.545666261,28.5262195 0.545666261,33.0431236 L0.545666261,33.1037532 C0.545666261,37.5903424 4.06218217,41.1068583 8.54877142,41.1068583 C13.0808329,41.1068583 16.642821,37.5600276 16.642821,33.0431236 L16.642821,32.982494 C16.642821,28.5110621 13.1111477,24.9793888 8.60940101,24.9793888 L8.60940101,24.9793888 Z M8.60940101,38.5604158 C5.68402355,38.5604158 3.38009934,36.1352324 3.38009934,33.0431236 L3.38009934,32.982494 C3.38009934,29.8600704 5.60823657,27.4955166 8.54877142,27.4955166 C11.4893063,27.4955166 13.8083879,29.9358574 13.8083879,33.0431236 L13.8083879,33.1037532 C13.7932305,36.2261768 11.5650933,38.5604158 8.60940101,38.5604158 L8.60940101,38.5604158 Z" id="Shape" fill="#5C606A"></path>
                            <path d="M26.858906,24.9793888 C24.6913983,24.9793888 22.9028256,25.8736752 21.4325581,27.7228775 L21.4325581,26.555758 C21.4325581,25.7675734 20.8111049,25.1461202 20.0229203,25.1461202 C19.2498931,25.1461202 18.6435973,25.7675734 18.6435973,26.555758 L18.6435973,44.1080228 C18.6435973,44.8962074 19.2650505,45.5176606 20.0532351,45.5176606 C20.8414197,45.5176606 21.4325581,44.9113648 21.4325581,44.1080228 L21.4325581,38.454314 C22.8725108,40.1822572 24.6913983,41.0613861 26.858906,41.0613861 C30.4512088,41.0613861 34.2708727,38.2421105 34.2708727,33.0279662 L34.2708727,32.9673366 C34.2557153,27.7986645 30.4512088,24.9793888 26.858906,24.9793888 L26.858906,24.9793888 Z M31.4212822,33.0279662 L31.4212822,33.0885958 C31.4212822,36.3019638 29.3750337,38.5452584 26.4496563,38.5452584 C23.9335285,38.5452584 21.3416138,36.4990099 21.3416138,33.058281 L21.3416138,32.9976514 C21.3416138,30.3754219 23.2969179,27.5409888 26.4496563,27.5409888 C29.3295615,27.5409888 31.4212822,29.844913 31.4212822,33.0279662 L31.4212822,33.0279662 Z" id="Shape" fill="#5C606A"></path>
                            <path d="M37.9238051,25.1612776 C37.1659353,25.1612776 36.5444821,25.7978882 36.5444821,26.5709154 L36.5444821,39.5153317 C36.5444821,40.3035163 37.1659353,40.9249696 37.9541199,40.9249696 C38.7423045,40.9249696 39.333443,40.3186737 39.333443,39.5153317 L39.333443,26.5709154 C39.333443,25.7827308 38.7119897,25.1612776 37.9238051,25.1612776 L37.9238051,25.1612776 Z" id="Shape" fill="#5C606A"></path>
                            <path d="M50.0951942,24.9793888 C48.0792606,24.9793888 46.4725766,25.752416 45.2751423,27.2681557 L45.2751423,26.555758 C45.2751423,25.7675734 44.653689,25.1461202 43.8655044,25.1461202 C43.1076346,25.1461202 42.4861814,25.7827308 42.4861814,26.555758 L42.4861814,39.5001743 C42.4861814,40.2883589 43.1076346,40.9098122 43.8958192,40.9098122 C44.6840038,40.9098122 45.2751423,40.3035163 45.2751423,39.5001743 L45.2751423,31.9517911 C45.2751423,29.3750337 47.0030854,27.5561462 49.4585836,27.5561462 C51.8989244,27.5561462 53.3085622,29.0870432 53.3085622,31.7699023 L53.3085622,39.5001743 C53.3085622,40.2883589 53.9300155,40.9098122 54.7182001,40.9098122 C55.4912273,40.9098122 56.0975231,40.2883589 56.0975231,39.5001743 L56.0975231,31.224236 C56.0823657,27.434887 53.7329693,24.9793888 50.0951942,24.9793888 L50.0951942,24.9793888 Z" id="Shape" fill="#5C606A"></path>
                            <path d="M60.3870662,25.1612776 C59.6291964,25.1612776 59.0077432,25.7978882 59.0077432,26.5709154 L59.0077432,39.5153317 C59.0077432,40.3035163 59.6291964,40.9249696 60.417381,40.9249696 C61.2055656,40.9249696 61.7967041,40.3186737 61.7967041,39.5153317 L61.7967041,26.5709154 C61.7967041,25.7827308 61.1752508,25.1612776 60.3870662,25.1612776 L60.3870662,25.1612776 Z" id="Shape" fill="#5C606A"></path>
                            <path d="M72.088576,24.9793888 C67.571672,24.9793888 64.0248413,28.5262195 64.0248413,33.0431236 L64.0248413,33.1037532 C64.0248413,37.5903424 67.5413572,41.1068583 72.0279464,41.1068583 C76.5751653,41.1068583 80.121996,37.5600276 80.121996,33.0431236 L80.121996,32.982494 C80.121996,28.5110621 76.6054801,24.9793888 72.088576,24.9793888 L72.088576,24.9793888 Z M72.088576,38.5604158 C69.1631986,38.5604158 66.8592744,36.1352324 66.8592744,33.0431236 L66.8592744,32.982494 C66.8592744,29.8600704 69.0874116,27.4955166 72.0279464,27.4955166 C74.9836387,27.4955166 77.2875629,29.9358574 77.2875629,33.0431236 L77.2875629,33.1037532 C77.2875629,36.2261768 75.0594257,38.5604158 72.088576,38.5604158 L72.088576,38.5604158 Z" id="Shape" fill="#5C606A"></path>
                            <path d="M89.7317851,24.9793888 C87.7158515,24.9793888 86.1091675,25.752416 84.9117332,27.2681557 L84.9117332,26.555758 C84.9117332,25.7675734 84.3054373,25.1461202 83.5020953,25.1461202 C82.7593829,25.1461202 82.1227723,25.7827308 82.1227723,26.555758 L82.1227723,39.5001743 C82.1227723,40.2883589 82.7442255,40.9098122 83.5324101,40.9098122 C84.3205947,40.9098122 84.9117332,40.3035163 84.9117332,39.5001743 L84.9117332,31.9517911 C84.9117332,29.3750337 86.6396763,27.5561462 89.0951745,27.5561462 C91.5355153,27.5561462 92.9299957,29.0870432 92.9299957,31.7699023 L92.9299957,39.5001743 C92.9299957,40.2883589 93.551449,40.9098122 94.3396336,40.9098122 C95.1126608,40.9098122 95.7189566,40.2883589 95.7189566,39.5001743 L95.7189566,31.224236 C95.734114,27.434887 93.3847176,24.9793888 89.7317851,24.9793888 L89.7317851,24.9793888 Z" id="Shape" fill="#5C606A"></path>
                            <polygon id="Shape" fill="#4B95C6" points="60.4325384 17.6583665 57.4616888 20.6292161 63.403388 20.6292161"></polygon>
                            <polygon id="Shape" fill="#A9D2ED" points="60.4325384 17.6583665 63.403388 20.6292161 63.403388 14.6875169"></polygon>
                            <polygon id="Shape" fill="#1E85C1" points="57.4616888 14.6875169 57.4616888 20.6292161 60.4325384 17.6583665"></polygon>
                            <polygon id="Shape" fill="#6DB0E0" points="63.403388 14.6875169 60.4325384 17.6583665 57.4616888 14.6875169 60.4325384 11.7318246"></polygon>
                            <polygon id="Shape" fill="#F26D6E" points="66.3742377 11.7318246 63.403388 14.6875169 69.3450873 14.6875169"></polygon>
                            <polygon id="Shape" fill="#DB3447" points="66.3742377 11.7318246 63.403388 14.6875169 60.4325384 11.7318246 63.403388 8.76097497"></polygon>
                            <polygon id="Shape" fill="#96D6D9" points="60.4325384 11.7318246 57.4616888 14.6875169 54.4908391 11.7318246 57.4616888 8.76097497"></polygon>
                            <polygon id="Shape" fill="#33B4AA" points="51.5199895 8.76097497 54.4908391 11.7318246 57.4616888 8.76097497"></polygon>
                            <polygon id="Shape" fill="#5BC5C3" points="54.4908391 11.7318246 51.5199895 14.6875169 57.4616888 14.6875169"></polygon>
                            <polygon id="Shape" fill="#22998D" points="51.5199895 8.76097497 51.5199895 14.6875169 54.4908391 11.7318246"></polygon>
                            <polygon id="Shape" fill="#FFE2AA" points="60.4325384 5.79012532 63.403388 8.76097497 63.403388 2.81927568"></polygon>
                            <polygon id="Shape" fill="#F6892D" points="57.4616888 2.81927568 60.4325384 5.79012532 63.403388 2.81927568"></polygon>
                            <polygon id="Shape" fill="#FFC83B" points="63.403388 8.76097497 60.4325384 11.7318246 57.4616888 8.76097497 60.4325384 5.79012532"></polygon>
                            <polygon id="Shape" fill="#F36C32" points="57.4616888 2.81927568 57.4616888 8.76097497 60.4325384 5.79012532"></polygon>
                            <polygon id="Shape" fill="#F59395" points="66.3742377 11.7318246 69.3450873 14.6875169 69.3450873 8.76097497"></polygon>
                            <polygon id="Shape" fill="#EA4F53" points="63.403388 8.76097497 66.3742377 11.7318246 69.3450873 8.76097497"></polygon>
                        </g>
                    </g>
                </g>
            </g>
        </g>
    </g>
</svg>