<?xml version="1.0" encoding="UTF-8" standalone="no"?>
<svg width="96px" height="89px" viewBox="0 0 96 89" version="1.1" xmlns="http://www.w3.org/2000/svg" xmlns:xlink="http://www.w3.org/1999/xlink">
    <!-- Generator: Sketch 3.8.3 (29802) - http://www.bohemiancoding.com/sketch -->
    <title>logo</title>
    <desc>Created with Sketch.</desc>
    <defs></defs>
    <g id="Home" stroke="none" stroke-width="1" fill="none" fill-rule="evenodd">
        <g id="1366w" transform="translate(-205.000000, -5788.000000)">
            <g id="companies" transform="translate(0.000000, 5522.000000)">
                <g id="left" transform="translate(203.000000, 80.000000)">
                    <g id="kite" transform="translate(2.000000, 170.000000)">
                        <g id="logo" transform="translate(0.000000, 16.000000)">
                            <g id="kite-logo-svg">
                                <g id="name" transform="translate(0.000000, 68.696415)" fill="#231F1F">
                                    <polygon id="Shape" points="21.5617699 0.153416312 16.3624779 0.153416312 3.51716814 9.64818139 3.51716814 0.153416312 0.0849557522 0.153416312 0.0849557522 19.5520566 3.46619469 19.5520566 3.46619469 13.602913 8.71646018 9.69932016 16.9911504 19.5520566 21.5617699 19.5520566 11.5369912 7.61967682"></polygon>
                                    <rect id="Rectangle-path" x="23.0739823" y="0.153416312" width="3.53415929" height="19.3986403"></rect>
                                    <polygon id="Shape" points="28.6810619 3.17060378 32.4361062 3.17060378 36.2251327 3.17060378 36.2251327 11.3698533 36.2251327 19.5520566 37.9412389 19.5520566 39.6573451 19.5520566 39.6573451 11.3698533 39.6573451 3.17060378 43.4463717 3.17060378 47.2523894 3.17060378 47.2523894 1.67053317 47.2523894 0.153416312 37.9922124 0.153416312 28.6810619 0.153416312 28.6810619 1.67053317"></polygon>
                                    <polygon id="Shape" points="52.0778761 16.4837304 52.0778761 10.9948357 66.180531 10.9948357 66.180531 8.02878699 52.0778761 8.02878699 52.0778761 3.23878881 66.5883186 3.23878881 66.5883186 0.153416312 48.6456637 0.153416312 48.6456637 19.5520566 67.2169912 19.5520566 67.2169912 16.4837304"></polygon>
                                </g>
                                <path d="M86.9267257,9.95501402 C86.2980531,8.07992576 85.4145133,6.2048375 84.1741593,4.43202679 C83.0867257,2.81263238 81.7784071,1.34665429 80.3341593,0.0511387706 C80.2322124,2.55693853 79.9263717,5.16501583 79.2976991,7.87537068 C79.1447788,8.60835972 78.940885,9.29021 78.72,9.95501402 C78.1932743,11.7789635 77.5815929,13.5517742 76.8509735,15.2734462 C78.7709735,15.52914 80.8099115,15.5802788 82.8318584,15.3245849 C84.4969912,15.1200298 86.1621239,14.7450122 87.7253097,14.2847633 C87.640354,12.8358314 87.3854867,11.3698533 86.9267257,9.95501402 L86.9267257,9.95501402 Z" id="north" fill="#05B7E0"></path>
                                <path d="M94.0460177,11.2675758 C92.0750442,12.5119525 89.9851327,13.5688205 87.759292,14.2847633 C87.8102655,14.864336 87.8102655,15.3757237 87.8102655,15.9041577 C87.8102655,16.6882855 87.7083186,17.4724133 87.6063717,18.2565411 C90.5118584,15.597325 93.2814159,12.8358314 95.8810619,10.023199 C95.2863717,10.4323092 94.6746903,10.8414194 94.0460177,11.2675758 L94.0460177,11.2675758 Z" id="east" fill="#B2D137"></path>
                                <path d="M72.1614159,14.131347 C71.2269027,21.8021625 67.8456637,28.6888503 62.7483186,33.9561437 C61.9157522,34.8425491 61.0322124,35.6778156 60.0976991,36.4108047 C59.7918584,36.6664985 59.4180531,36.9392387 59.1122124,37.1949325 C60.2506195,36.4108047 61.4060177,35.5243993 62.4934513,34.637994 C62.7483186,34.4334389 63.020177,34.2288838 63.2750442,33.9561437 C69.0520354,28.9445442 73.8775221,22.4840128 76.9019469,15.2223074 C75.2707965,15.0177523 73.6566372,14.6597809 72.1614159,14.131347 L72.1614159,14.131347 Z" id="west" fill="#B2D137"></path>
                                <path d="M87.759292,14.2336245 C86.1961062,14.7620585 84.5309735,15.1200298 82.8658407,15.2734462 C80.8438938,15.4780012 78.8559292,15.4780012 76.8849558,15.2223074 C73.8775221,22.4669666 69.0350442,28.9445442 63.2580531,33.9561437 C63.0031858,34.1606988 62.7313274,34.3652539 62.4764602,34.637994 C61.3890265,35.5243993 60.2336283,36.4108047 59.0952212,37.1949325 C58.7893805,37.3994876 58.4155752,37.6722277 58.1097345,37.8767828 C56.1387611,39.1722983 54.099823,40.280305 52.0269027,41.2178491 C52.9104425,40.8598777 53.8449558,40.4848601 54.7284956,40.1268887 C54.9833628,40.0246111 55.3061947,39.8711948 55.5610619,39.7689173 C59.0442478,38.2006617 62.680354,36.3255734 66.3164602,34.1436525 C73.4867257,29.8139033 80.8269027,24.3931936 87.5214159,18.2906336 C87.6233628,17.5065058 87.7253097,16.722378 87.7253097,15.9382502 C87.8102655,15.3245849 87.8102655,14.8131972 87.759292,14.2336245 L87.759292,14.2336245 Z" id="south" fill="#F15B29"></path>
                                <ellipse id="circle3" stroke="#000000" cx="75.6446018" cy="63.1904742" rx="4.60460177" ry="4.61953561"></ellipse>
                                <path d="M75.5936283,62.8154566 C75.8484956,62.8154566 76.0184071,62.7643178 76.1373451,62.6790865 C76.239292,62.576809 76.3072566,62.4233927 76.3072566,62.2188376 C76.3072566,62.0142825 76.2562832,61.8608662 76.1373451,61.7585887 C76.0353982,61.6733574 75.8484956,61.6222186 75.5936283,61.6222186 L75.0838938,61.6222186 L75.0838938,62.8154566 L75.5936283,62.8154566 M75.0838938,63.6507232 L75.0838938,65.4235339 L73.8775221,65.4235339 L73.8775221,60.7528595 L75.7125664,60.7528595 C76.3242478,60.7528595 76.7830088,60.855137 77.0548673,61.0596921 C77.3437168,61.2642472 77.479646,61.5881261 77.479646,62.048375 C77.479646,62.3552077 77.4116814,62.6109015 77.2587611,62.8154566 C77.1058407,63.0200117 76.8849558,63.1563817 76.579115,63.2586593 C76.7490265,63.2927518 76.8849558,63.3779831 77.020885,63.5143531 C77.1568142,63.6507232 77.2757522,63.838232 77.4116814,64.1109721 L78.0573451,65.4405801 L76.7830088,65.4405801 L76.2223009,64.2814347 C76.1033628,64.0427871 75.9844248,63.8893708 75.8654867,63.8041395 C75.7465487,63.7189082 75.5936283,63.6677694 75.3897345,63.6677694 L75.0838938,63.6677694" id="text3175" fill="#000000"></path>
                            </g>
                        </g>
                    </g>
                </g>
            </g>
        </g>
    </g>
</svg>