<?xml version="1.0" encoding="UTF-8" standalone="no"?>
<svg width="72px" height="63px" viewBox="0 0 72 63" version="1.1" xmlns="http://www.w3.org/2000/svg" xmlns:xlink="http://www.w3.org/1999/xlink">
    <!-- Generator: Sketch 3.8.3 (29802) - http://www.bohemiancoding.com/sketch -->
    <title>logo</title>
    <desc>Created with Sketch.</desc>
    <defs>
        <polygon id="path-1" points="34.9161034 0.174409666 0.000101696598 0.174409666 0.000101696598 62.5433318 34.9161034 62.5433318 34.9161034 0.174409666"></polygon>
        <polygon id="path-3" points="21.84087 31.1113285 21.84087 0.108866209 0.0343480262 0.108866209 0.0343480262 31.1113285 21.84087 31.1113285"></polygon>
    </defs>
    <g id="Home" stroke="none" stroke-width="1" fill="none" fill-rule="evenodd">
        <g id="1366w" transform="translate(-761.000000, -5957.000000)">
            <g id="companies" transform="translate(0.000000, 5522.000000)">
                <g id="right" transform="translate(743.000000, 80.000000)">
                    <g id="lift" transform="translate(12.000000, 339.000000)">
                        <g id="logo" transform="translate(6.000000, 16.000000)">
                            <g id="Group-3" transform="translate(0.000000, 0.079832)">
                                <mask id="mask-2" fill="white">
                                    <use xlink:href="#path-1"></use>
                                </mask>
                                <g id="Clip-2"></g>
                                <path d="M2.85574218,3.8590554 C2.85574218,2.8456488 1.93462524,1.83224219 0.460533046,1.83224219 C0.0918828768,1.83224219 0.000101696598,1.37181084 0.000101696598,1.00290643 C0.000101696598,0.818835587 0.0918828768,0.174333394 0.460533046,0.174333394 L14.0032148,0.174333394 C14.3713565,0.174333394 14.4636462,0.818835587 14.4636462,1.00290643 C14.4636462,1.37181084 14.3713565,1.83224219 14.0032148,1.83224219 C12.5291226,1.83224219 11.6077515,2.8456488 11.6077515,3.8590554 L11.6077515,50.6585588 C11.6077515,51.5796758 12.3447976,52.5938451 13.6343104,52.6856263 L28.2826885,52.6856263 C31.5072334,52.6856263 34.9161034,54.1599727 34.9161034,58.2138534 C34.9161034,60.5170271 33.1653964,62.5433318 30.5856079,62.5433318 C28.006328,62.5433318 26.5322358,60.8844061 26.5322358,59.2267515 C26.5322358,58.6742847 26.8085963,57.3840091 26.8085963,57.2917195 C26.8085963,55.9099169 25.150179,55.6338107 23.7683765,55.6338107 L0.460533046,55.6338107 C0.0918828768,55.6338107 0.000101696598,54.9888 0.000101696598,54.8039664 C0.000101696598,54.4365875 0.0918828768,53.9756476 0.460533046,53.9756476 C1.93462524,53.9756476 2.85574218,52.9617325 2.85574218,51.9488344 L2.85574218,3.8590554 Z" id="Fill-1" fill="#298CB6" mask="url(#mask-2)"></path>
                            </g>
                            <path d="M38.9515769,41.9594318 C35.3716024,46.9222258 31.6289133,50.2593997 26.3396733,50.2593997 C22.5964757,50.2593997 21.2947592,48.143602 21.2947592,46.5973052 L21.2947592,31.2179828 C21.2947592,30.5668703 26.6651024,29.7532976 27.4786752,29.7532976 C28.4552168,29.7532976 28.6179313,30.6487361 28.6179313,31.2995943 L28.6179313,44.4815074 C28.6179313,46.5154394 29.1874323,47.0844319 30.6523718,47.0844319 C33.337162,47.0844319 36.2667867,43.4238628 37.8939323,41.2264536 C38.3004645,41.2264536 38.9515769,41.795446 38.9515769,41.9594318 M24.9563453,16.8975763 C27.2346033,16.8975763 29.0249719,18.931254 29.0249719,21.3722266 C29.0249719,23.8134535 27.2346033,25.7665367 24.9563453,25.7665367 C22.6780872,25.7665367 20.8879729,23.8134535 20.8879729,21.3722266 C20.8879729,18.931254 22.6780872,16.8975763 24.9563453,16.8975763" id="Fill-4" fill="#298CB6"></path>
                            <path d="M44.8914973,31.8687139 L44.8914973,46.8412499 C44.8914973,47.7354172 45.7055785,48.2240694 46.7634774,48.2240694 C47.0889065,48.2240694 47.1702638,48.5502612 47.1702638,48.8751819 C47.1702638,49.0376422 47.0889065,49.4444286 46.7634774,49.4444286 L38.7080898,49.4444286 C38.3005407,49.4444286 37.7315483,49.0376422 37.7315483,48.7127215 L37.7315483,31.8687139 L33.6629216,31.8687139 C33.1747779,31.8687139 33.0118091,31.7062536 33.0118091,30.9742923 C33.0118091,30.2420768 33.1747779,30.0788538 33.6629216,30.0788538 L37.7315483,30.0788538 L37.7315483,11.7711779 C37.7315483,5.34268165 43.1827402,0.623196756 50.1809916,0.623196756 C53.8423234,0.623196756 59.0504604,2.41381961 59.0504604,7.5400909 C59.0504604,9.6556344 57.9109501,11.6082091 55.7140493,11.6082091 C54.4934359,11.6082091 52.6219642,10.8759936 52.6219642,8.84155312 C52.6219642,6.64465235 54.4120786,6.64465235 54.4120786,5.01725254 C54.4120786,3.71579032 53.1912109,2.49492265 50.8313414,2.49492265 C46.356691,2.49492265 44.8914973,7.37686786 44.8914973,11.3643915 L44.8914973,30.0788538 L50.7507468,30.0788538 C51.2388905,30.0788538 51.401605,30.2420768 51.401605,30.9742923 C51.401605,31.7062536 51.2388905,31.8687139 50.7507468,31.8687139 L44.8914973,31.8687139 Z" id="Fill-6" fill="#298CB6"></path>
                            <g id="Group-10" transform="translate(49.577092, 19.147944)">
                                <mask id="mask-4" fill="white">
                                    <use xlink:href="#path-3"></use>
                                </mask>
                                <g id="Clip-9"></g>
                                <path d="M4.18356925,12.7207699 L0.685206257,12.7207699 C0.196554101,12.7207699 0.0343480262,12.5583096 0.0343480262,11.8263483 C0.0343480262,11.0941328 0.196554101,10.9309097 0.685206257,10.9309097 L4.18356925,10.9309097 L4.18356925,1.9805921 C4.18356925,1.32947963 9.55416661,0.108866209 10.3677394,0.108866209 C11.344281,0.108866209 11.5072498,1.00354203 11.5072498,1.65465451 L11.5072498,10.9309097 L17.3654823,10.9309097 C17.8538803,10.9309097 18.0163406,11.0941328 18.0163406,11.8263483 C18.0163406,12.5583096 17.8538803,12.7207699 17.3654823,12.7207699 L11.5072498,12.7207699 L11.5072498,25.3334363 C11.5072498,27.3673682 12.0764965,27.9366149 13.5411818,27.9366149 C16.2262262,27.9366149 19.1561052,24.2757916 20.7829965,22.0786366 C21.1897829,22.0786366 21.8408954,22.6476291 21.8408954,22.8113606 C18.2606667,27.7741546 14.5179776,31.1113285 9.2287375,31.1113285 C5.48553995,31.1113285 4.18356925,28.995785 4.18356925,27.4494882 L4.18356925,12.7207699 Z" id="Fill-8" fill="#298CB6" mask="url(#mask-4)"></path>
                            </g>
                        </g>
                    </g>
                </g>
            </g>
        </g>
    </g>
</svg>