<?xml version="1.0" encoding="UTF-8" standalone="no"?>
<svg width="106px" height="21px" viewBox="0 0 106 21" version="1.1" xmlns="http://www.w3.org/2000/svg" xmlns:xlink="http://www.w3.org/1999/xlink">
    <!-- Generator: Sketch 3.8.3 (29802) - http://www.bohemiancoding.com/sketch -->
    <title>logo</title>
    <desc>Created with Sketch.</desc>
    <defs>
        <polygon id="path-1" points="0.138130312 7.1796034 9.35652691 7.1796034 9.35652691 0.182481586 0.138130312 0.182481586"></polygon>
        <polygon id="path-3" points="0.138130312 7.1796034 9.35652691 7.1796034 9.35652691 0.182481586 0.138130312 0.182481586"></polygon>
    </defs>
    <g id="Home" stroke="none" stroke-width="1" fill="none" fill-rule="evenodd">
        <g id="1366w" transform="translate(-743.000000, -5786.000000)">
            <g id="companies" transform="translate(0.000000, 5522.000000)">
                <g id="right" transform="translate(743.000000, 80.000000)">
                    <g id="live-ultimate" transform="translate(0.000000, 169.000000)">
                        <g id="logo" transform="translate(0.000000, 15.000000)">
                            <g id="Elements">
                                <g>
                                    <g id="logo">
                                        <path d="M19.7646459,20.84897 C19.8051841,20.839098 19.8463229,20.8289269 19.8886629,20.819055 C19.9313031,20.8094822 19.9724419,20.8040975 20.0126799,20.8032 C20.0529178,20.8040975 20.0943569,20.8097813 20.1366969,20.819055 C20.1790368,20.8289269 20.2201756,20.8387989 20.2604136,20.84897 C20.4342776,20.2707127 20.6333654,19.6598482 20.8579773,19.0166754 C21.0825892,18.3732034 21.2729688,17.8559728 21.4288159,17.4646844 C21.6624363,18.0555059 21.8723343,18.6298742 22.0585099,19.1877892 C22.2443853,19.7454051 22.4122436,20.299132 22.5617847,20.84897 C22.5936147,20.839098 22.6296487,20.8289269 22.670187,20.819055 C22.7110255,20.8094822 22.7512635,20.8040975 22.7918017,20.8032 C22.8320397,20.8040975 22.8713768,20.8097813 22.9104136,20.819055 C22.9491501,20.8289269 22.9863853,20.8387989 23.022119,20.84897 C23.2746572,20.1241292 23.5485156,19.3983909 23.8430935,18.6720544 C24.1376714,17.9463161 24.4511671,17.2181847 24.7835807,16.4885575 C24.7430425,16.5026176 24.6998017,16.513387 24.6538584,16.5217632 C24.6082153,16.5301394 24.5628725,16.5340283 24.51783,16.5343275 C24.4694844,16.5340283 24.4223399,16.5295411 24.3763966,16.5217632 C24.330153,16.513387 24.2830085,16.5026176 24.2346629,16.4885575 C24.0307705,17.0880544 23.8100623,17.7159705 23.5731388,18.3723059 C23.335915,19.0286414 23.1374278,19.5653167 22.9779773,19.982332 C22.7635751,19.3777496 22.5593824,18.7875263 22.366,18.2116623 C22.1726176,17.6354992 22.0017564,17.0611309 21.8537167,16.4885575 C21.8101756,16.5026176 21.7687365,16.5136861 21.73,16.5217632 C21.6906629,16.5301394 21.6495241,16.5343275 21.605983,16.5343275 C21.5173994,16.5322334 21.4288159,16.5175751 21.3405326,16.4885575 C21.2279263,16.8777518 21.0988045,17.2974595 20.9528669,17.7470822 C20.8069292,18.1967048 20.6642946,18.6217972 20.5240623,19.0217609 C20.3841303,19.4217246 20.2667195,19.7421144 20.1721303,19.982332 C19.9424136,19.3771513 19.7337167,18.7857314 19.5457394,18.2080725 C19.3580623,17.6304136 19.1893031,17.0572419 19.0391615,16.4885575 C18.9721983,16.5026176 18.9046346,16.513387 18.8355694,16.5217632 C18.7665042,16.5301394 18.6989405,16.5340283 18.6319773,16.5343275 C18.5614108,16.5340283 18.4920453,16.5295411 18.4241813,16.5217632 C18.3557167,16.513387 18.2863513,16.5026176 18.216085,16.4885575 C18.4139717,16.9812578 18.6139603,17.5020782 18.8163513,18.0507195 C19.0184419,18.5996601 19.2034164,19.1210788 19.3712748,19.6149756 C19.5388329,20.1091717 19.6703569,20.5205031 19.7649462,20.84897 L19.7646459,20.84897" id="Fill-1" fill="#6D6E71"></path>
                                        <g id="Group-5" transform="translate(25.824363, 13.760907)">
                                            <g id="mask-2" fill="#FFFFFF">
                                                <polygon id="path-1" points="0.138130312 7.1796034 9.35652691 7.1796034 9.35652691 0.182481586 0.138130312 0.182481586"></polygon>
                                            </g>
                                            <g id="Fill-2-Clipped">
                                                <mask id="mask-2" fill="white">
                                                    <use xlink:href="#path-1"></use>
                                                </mask>
                                                <g id="path-1"></g>
                                                <path d="M0.208997167,4.46092691 C0.20929745,4.89948102 0.204492918,5.36555694 0.193382436,5.86005212 C0.182572238,6.35424816 0.164254958,6.7637847 0.138130312,7.08806346 C0.270855524,7.05904589 0.403580737,7.04408839 0.536305949,7.04229348 C0.669031161,7.04438754 0.801756374,7.05904589 0.93478187,7.08806346 C0.908657224,6.76049405 0.89003966,6.35723966 0.879529745,5.87800113 C0.868719547,5.39906176 0.863614731,4.97546516 0.863915014,4.60691218 C0.862113314,4.12946856 0.958504249,3.76151388 1.15278754,3.50304816 C1.34677054,3.24458244 1.64885552,3.11385382 2.05874221,3.11086232 C2.35452125,3.11265722 2.58814164,3.23201813 2.76020397,3.46864589 C2.93196601,3.7055728 3.01994901,4.04839887 3.02355241,4.49742323 L3.02355241,5.05384249 C3.02175071,5.40414731 3.01394334,5.74787082 2.99922946,6.08441473 C2.98451558,6.42125779 2.97190368,6.75570765 2.96139377,7.08806346 C3.02325212,7.0740034 3.08360907,7.06323399 3.14306516,7.05485779 C3.20252125,7.04648159 3.26287819,7.04259263 3.32443626,7.04229348 C3.38599433,7.04259263 3.44665156,7.04707989 3.5070085,7.05485779 C3.56736544,7.06323399 3.63042493,7.0740034 3.69618697,7.08806346 C3.68807932,6.89241926 3.68237394,6.69737337 3.68087252,6.50292578 C3.67877054,6.30847819 3.67786969,6.11133824 3.67877054,5.9112068 C3.68087252,5.60188555 3.68597734,5.30812011 3.69648725,5.02991048 C3.70699717,4.7514017 3.71300283,4.48276487 3.71450425,4.22370085 C3.69618697,3.60685326 3.54214164,3.18505156 3.25176771,2.9579966 C2.96169405,2.73124079 2.64399433,2.62384589 2.29836827,2.6364102 C1.98096884,2.6382051 1.70620963,2.71030028 1.47379037,2.85209745 C1.24167139,2.99389462 1.04468555,3.19582096 0.882232295,3.45757734 L0.864515581,3.45757734 L0.864515581,2.76414731 C0.863915014,2.34773031 0.86901983,1.89451785 0.879830028,1.40510822 C0.890640227,0.915399433 0.908957507,0.508256091 0.935082153,0.182481586 C0.802356941,0.21149915 0.669631728,0.226755807 0.536906516,0.228251558 C0.404181303,0.226157507 0.271456091,0.21149915 0.138730878,0.182481586 C0.164855524,0.50705949 0.183172805,0.916296884 0.193983003,1.41049292 C0.204793201,1.9049881 0.209898017,2.37136317 0.209597734,2.80961813 L0.208997167,4.46092691" id="Fill-2" fill="#6D6E71" mask="url(#mask-2)"></path>
                                            </g>
                                            <g id="Fill-4-Clipped">
                                                <mask id="mask-4" fill="white">
                                                    <use xlink:href="#path-3"></use>
                                                </mask>
                                                <g id="path-1"></g>
                                                <path d="M5.83390368,4.90785722 C5.82579603,4.37836147 5.92368839,3.92096091 6.1281813,3.53505722 C6.33237394,3.14915354 6.69181303,2.94692805 7.20589802,2.92838074 C7.71968272,2.94692805 8.07912181,3.14915354 8.28331445,3.53505722 C8.48780737,3.92096091 8.58569972,4.37836147 8.57789235,4.90785722 C8.58569972,5.43735297 8.48780737,5.89475354 8.28331445,6.28065722 C8.07912181,6.66656091 7.71968272,6.8687864 7.20589802,6.88733371 C6.69181303,6.8687864 6.33237394,6.66656091 6.1281813,6.28065722 C5.92368839,5.89475354 5.82579603,5.43735297 5.83390368,4.90785722 L5.83390368,4.90785722 L5.83390368,4.90785722 Z M5.05496884,4.90785722 C5.08049292,5.72872521 5.31050992,6.31505949 5.74532011,6.66596261 C6.18013031,7.01746402 6.66688952,7.18827875 7.20559773,7.17930425 C7.74460623,7.1885779 8.23136544,7.01746402 8.66617564,6.66596261 C9.10098584,6.31505949 9.33100283,5.72872521 9.35652691,4.90785722 C9.33100283,4.08698924 9.10098584,3.50095411 8.66617564,3.14975184 C8.23136544,2.79854958 7.74460623,2.62743569 7.20559773,2.6364102 C6.66688952,2.62743569 6.18013031,2.79854958 5.74532011,3.14975184 C5.31050992,3.50095411 5.08049292,4.08698924 5.05496884,4.90785722 L5.05496884,4.90785722 L5.05496884,4.90785722 Z" id="Fill-4" fill="#6D6E71" mask="url(#mask-4)"></path>
                                            </g>
                                        </g>
                                        <path d="M36.7519717,18.2218334 C36.752272,18.6603875 36.7474674,19.1264635 36.7363569,19.6209586 C36.725847,20.1151547 36.7072295,20.5246912 36.6814051,20.84897 C36.81383,20.8199524 36.9468555,20.8049949 37.0795807,20.8032 C37.2123059,20.8052941 37.3450312,20.8199524 37.4777564,20.84897 C37.4516317,20.5246912 37.4333144,20.1151547 37.4225042,19.6209586 C37.4116941,19.1264635 37.4065892,18.6603875 37.4068895,18.2218334 L37.4068895,16.5708238 C37.4065892,16.1322697 37.4113938,15.6658946 37.4225042,15.1716986 C37.4333144,14.6775025 37.4516317,14.267966 37.4777564,13.9436873 C37.3450312,13.9727048 37.2120057,13.9876623 37.0795807,13.9891581 C36.9468555,13.9873632 36.81383,13.9727048 36.6811048,13.9433881 C36.7072295,14.267966 36.7255467,14.6775025 36.7363569,15.1716986 C36.7471671,15.6658946 36.752272,16.1322697 36.7519717,16.5708238 L36.7519717,18.2218334" id="Fill-6" fill="#6D6E71"></path>
                                        <path d="M41.0111898,16.6892873 C41.4595127,16.714715 41.7558924,16.8965983 41.9006289,17.2355354 C42.0456657,17.5741734 42.1120283,17.9184952 42.100017,18.2676034 C41.9123399,18.2729881 41.7186572,18.2783728 41.518068,18.284655 C41.3174788,18.2912363 41.1189915,18.2942278 40.9226062,18.2948261 C40.7349292,18.2942278 40.541847,18.2912363 40.3442606,18.284655 C40.1460737,18.2780737 39.9553938,18.272689 39.772221,18.2676034 C39.7887365,17.9143071 39.8923343,17.569387 40.0830142,17.2322448 C40.2733938,16.8951025 40.5829858,16.7141167 41.0111898,16.6892873 L41.0111898,16.6892873 L41.0111898,16.6892873 Z M38.9665609,18.7965008 C38.9764703,19.4166391 39.1758584,19.9254935 39.5641246,20.3233632 C39.9523909,20.7209337 40.4700793,20.926749 41.1174901,20.9402108 C41.3970538,20.9354244 41.6676091,20.878885 41.9294561,20.7714901 C42.1913031,20.663796 42.4135127,20.5345632 42.5954844,20.3837915 L42.6486346,19.9368612 L42.6044929,19.9093394 C42.4429405,20.0960091 42.2414504,20.2494731 42.0003229,20.3700306 C41.7591955,20.4905881 41.518068,20.5528113 41.2766402,20.5569994 C40.7832748,20.5459309 40.4052181,20.3831932 40.1427705,20.0690856 C39.8803229,19.7546788 39.747898,19.354715 39.7454958,18.8694935 C39.7436941,18.7887229 39.7472975,18.7037643 39.7545042,18.6140193 C39.9487875,18.6086346 40.14217,18.6032499 40.3343513,18.5969677 C40.5265326,18.5903864 40.7196147,18.5873949 40.9141983,18.5867966 C41.2279943,18.5870958 41.5426912,18.5903864 41.8576884,18.5969677 C42.1729858,18.603549 42.4897847,18.6089337 42.808085,18.6137201 C42.8182946,18.4952567 42.8243003,18.3767932 42.8258017,18.2583297 C42.8267025,17.7378085 42.6762606,17.3010493 42.3744759,16.9480521 C42.0723909,16.595055 41.6120567,16.4116759 40.9937734,16.3973167 C40.3400567,16.4047955 39.8394844,16.6201836 39.4923569,17.0428827 C39.1449292,17.4655819 38.969864,18.0498221 38.9668612,18.7965008 L38.9665609,18.7965008 L38.9665609,18.7965008 L38.9665609,18.7965008 Z" id="Fill-7" fill="#6D6E71"></path>
                                        <path d="M46.7652181,19.9733575 C46.7622153,20.0711796 46.7432975,20.185455 46.7075637,20.3164827 C46.67183,20.4475105 46.6348952,20.5549054 46.5967592,20.6389666 C46.7192748,20.715549 46.8730198,20.7840544 47.0582946,20.8444827 C47.2435694,20.9046119 47.4702833,20.936621 47.7387365,20.9402108 C48.2348045,20.9234584 48.6233711,20.7699943 48.9035354,20.4795195 C49.1843003,20.1890448 49.3269348,19.8620737 49.3320397,19.4989054 C49.305915,19.0109915 49.125745,18.6977813 48.7903286,18.5592748 C48.4549122,18.4210674 48.119796,18.3023048 47.7846799,18.2035853 C47.4492635,18.1048657 47.2687932,17.8706312 47.2429688,17.5011807 C47.2528782,17.2337405 47.3351558,17.0386946 47.4898017,16.9163422 C47.6444476,16.7939898 47.8129065,16.7332623 47.9954788,16.7350572 C48.1966686,16.7404419 48.3651275,16.7981779 48.5011558,16.9082652 C48.6368839,17.0183524 48.7278697,17.1493802 48.7744136,17.3007501 L48.8804136,17.3007501 C48.8909235,17.224766 48.9164476,17.1209609 48.9569858,16.9905314 C48.9972238,16.8598028 49.0425666,16.7470232 49.0927139,16.6527909 C48.9590878,16.6025337 48.8152521,16.5483875 48.6615071,16.4909507 C48.507762,16.4335139 48.3239887,16.4024023 48.1104873,16.3976159 C47.6387422,16.4047955 47.2766006,16.5355241 47.0240623,16.7886051 C46.7715241,17.0416861 46.6439037,17.370153 46.6412011,17.7749031 C46.6670255,18.2640136 46.8474958,18.5823093 47.1826119,18.7288929 C47.5180283,18.8757756 47.8531445,18.9999229 48.1885609,19.1013348 C48.5236771,19.2024476 48.7041473,19.4295025 48.7299717,19.7816023 C48.721864,20.0514357 48.6341813,20.2554561 48.4666232,20.3939626 C48.2993654,20.5327683 48.1008782,20.6021711 47.8714618,20.6027694 C47.6207252,20.5917008 47.4075241,20.5178108 47.2321586,20.3805008 C47.0564929,20.2428918 46.9363796,20.1070776 46.8712181,19.9733575 L46.7652181,19.9733575" id="Fill-8" fill="#6D6E71"></path>
                                        <path d="M50.7794051,18.2218334 C50.7797054,18.6603875 50.7749008,19.1264635 50.7637904,19.6209586 C50.7529802,20.1151547 50.7346629,20.5246912 50.7085382,20.84897 C50.8412635,20.8199524 50.9739887,20.8049949 51.1067139,20.8032 C51.2394391,20.8052941 51.3721643,20.8199524 51.5051898,20.84897 C51.4787649,20.5803331 51.4604476,20.3125938 51.4496374,20.0463501 C51.4388272,19.7798074 51.4340227,19.512068 51.4343229,19.2434312 L51.4343229,18.6962856 C51.4346232,18.6594901 51.4424306,18.6322674 51.4586459,18.6140193 C51.4742606,18.5957711 51.495881,18.5867966 51.5226062,18.5867966 C51.5454278,18.5873949 51.5685496,18.5972669 51.5925722,18.6152159 C51.6162946,18.6331649 51.6373144,18.6541054 51.6553314,18.6777382 C51.8793428,18.9245371 52.163711,19.2565938 52.5084363,19.6745065 C52.8531615,20.0921201 53.1618527,20.4837076 53.4345099,20.84897 C53.5849518,20.8199524 53.7353938,20.8046958 53.8858357,20.8032 C53.9600057,20.8032 54.0374788,20.8076873 54.118255,20.8157643 C54.1990312,20.8241405 54.2897167,20.8349099 54.3906119,20.8486708 C54.026068,20.4289632 53.6639263,20.0077598 53.304187,19.5853598 C52.9441473,19.1632589 52.5952181,18.7420555 52.2570992,18.3220487 C52.5636884,18.0163173 52.8873938,17.710885 53.2288159,17.4051535 C53.570238,17.0997212 53.9251728,16.7939898 54.2930198,16.4885575 C54.1933258,16.5023184 54.1095467,16.513387 54.041983,16.521464 C53.974119,16.5298402 53.9104589,16.5340283 53.8507025,16.5340283 C53.7251841,16.5322334 53.6128782,16.5175751 53.514085,16.4885575 C53.2195071,16.8325802 52.9060113,17.1775003 52.573898,17.5227195 C52.2414844,17.8679388 52.012068,18.0920023 51.8856487,18.1940125 C51.8147819,18.250851 51.7505212,18.2996125 51.6931671,18.3402969 C51.6355127,18.3806822 51.5847649,18.4019218 51.5406232,18.4040159 C51.5051898,18.4037167 51.4784646,18.3884601 51.4607479,18.3582459 C51.4430312,18.3283309 51.4343229,18.2858516 51.4343229,18.2305088 L51.4343229,16.5705246 C51.4337224,16.1319705 51.4385269,15.6655955 51.4496374,15.1713994 C51.4604476,14.6772034 51.4787649,14.2676669 51.5051898,13.9433881 C51.3721643,13.9721065 51.2394391,13.9873632 51.1067139,13.9888589 C50.9739887,13.987064 50.8412635,13.9721065 50.708238,13.9433881 C50.7346629,14.2676669 50.7529802,14.6772034 50.7637904,15.1713994 C50.7746006,15.6655955 50.7797054,16.1319705 50.7791048,16.5705246 L50.7794051,18.2218334" id="Fill-9" fill="#6D6E71"></path>
                                        <path d="M55.5929462,14.901566 C55.5968499,15.0325938 55.6406912,15.1420827 55.7259717,15.2297337 C55.8109518,15.3176839 55.9172521,15.3631547 56.0445722,15.3667445 C56.1715921,15.3628555 56.2778924,15.3176839 56.3631728,15.2297337 C56.448153,15.1420827 56.4925949,15.0325938 56.495898,14.901566 C56.4922946,14.7705382 56.448153,14.6610493 56.3631728,14.5730992 C56.2778924,14.4854482 56.1715921,14.4396782 56.0445722,14.4363875 C55.9172521,14.4399773 55.8109518,14.4854482 55.7259717,14.5730992 C55.6406912,14.6610493 55.5962493,14.7705382 55.5929462,14.901566 L55.5929462,14.901566 L55.5929462,14.901566 Z M55.7169632,19.1429167 C55.7175637,19.4211263 55.7124589,19.7089088 55.7016487,20.006264 C55.6908385,20.3036193 55.672221,20.5845212 55.6463966,20.84897 C55.7791218,20.8199524 55.9115467,20.8049949 56.0445722,20.8032 C56.1772975,20.8052941 56.3100227,20.8199524 56.4427479,20.84897 C56.4166232,20.5845212 56.3980057,20.3036193 56.3874958,20.006264 C56.3766856,19.7089088 56.3715807,19.4211263 56.371881,19.1429167 L56.371881,18.1943116 C56.3715807,17.9164011 56.3763853,17.6286187 56.3874958,17.3312635 C56.3980057,17.0339082 56.4166232,16.7530062 56.4427479,16.4885575 C56.3100227,16.5175751 56.1772975,16.5328317 56.0445722,16.5343275 C55.9115467,16.5322334 55.7791218,16.5175751 55.6463966,16.4885575 C55.672221,16.7527071 55.6908385,17.0339082 55.7016487,17.3312635 C55.7121586,17.6286187 55.7175637,17.9164011 55.7169632,18.1943116 L55.7169632,19.1429167 L55.7169632,19.1429167 L55.7169632,19.1429167 Z" id="Fill-10" fill="#6D6E71"></path>
                                        <g id="Group-14" transform="translate(58.254958, 16.154108)" fill="#6D6E71">
                                            <path d="M2.92505949,2.1042221 L2.92505949,2.66064136 C2.92325779,3.01094618 2.91515014,3.35466969 2.90073654,3.69151275 C2.88572238,4.02805666 2.87341076,4.36280567 2.86290085,4.69486232 C2.92475921,4.68110142 2.98511615,4.67003286 3.04457224,4.66165666 C3.10402833,4.65328045 3.16438527,4.6493915 3.22594334,4.64909235 C3.28750142,4.6493915 3.34815864,4.65387875 3.40851558,4.66165666 C3.46887252,4.67003286 3.53193201,4.68080227 3.59769405,4.69486232 C3.5895864,4.49921813 3.5841813,4.30417224 3.58207932,4.1100238 C3.58027762,3.91527705 3.57967705,3.71813711 3.58027762,3.51800567 C3.58207932,3.20898357 3.5877847,2.91491898 3.59799433,2.63670935 C3.60850425,2.35820057 3.61450992,2.08956374 3.61571105,1.83049972 C3.59799433,1.21365212 3.44364873,0.791850425 3.15357507,0.564795467 C2.86320113,0.33803966 2.54520113,0.230644759 2.19987535,0.243209065 C1.88247592,0.245003966 1.60771671,0.31709915 1.37559773,0.458896317 C1.14347875,0.600693484 0.945892351,0.80261983 0.783439093,1.0643762 L0.76572238,1.0643762 C0.76572238,0.941724646 0.767524079,0.819970538 0.772328612,0.699413031 C0.776532578,0.578855524 0.78313881,0.457400567 0.791847025,0.334449858 C0.724583569,0.348509915 0.660322946,0.35927932 0.598464589,0.367655524 C0.536606232,0.376031728 0.483155807,0.37992068 0.438113314,0.38021983 C0.305388102,0.378125779 0.172362606,0.363467422 0.0399376771,0.334449858 C0.0657620397,0.598599433 0.0843796034,0.879800567 0.0948895184,1.17715581 C0.106,1.47451105 0.110804533,1.76229348 0.110504249,2.04020397 L0.110504249,2.98880907 C0.110804533,3.2670187 0.106,3.55480113 0.0948895184,3.85215637 C0.0843796034,4.14951161 0.0657620397,4.4304136 0.0399376771,4.69486232 C0.172362606,4.66584476 0.305388102,4.6505881 0.438113314,4.64909235 C0.570838527,4.65088725 0.703563739,4.66584476 0.836288952,4.69486232 C0.810164306,4.4304136 0.791546742,4.14951161 0.781036827,3.85215637 C0.770226629,3.55480113 0.765121813,3.2670187 0.765422096,2.98880907 L0.765422096,2.2134119 C0.763620397,1.73626742 0.860011331,1.36831275 1.05429462,1.10984703 C1.2485779,0.851381303 1.55036261,0.720652691 1.96024929,0.71766119 C2.25602833,0.719456091 2.48994901,0.838816997 2.66171105,1.07544476 C2.83347309,1.31237167 2.92145609,1.65519773 2.92505949,2.1042221" id="Fill-11"></path>
                                            <path d="M7.825983,2.51465609 C7.85150708,3.32355807 8.08152408,3.90630255 8.51633428,4.26259037 C8.95114448,4.61887819 9.43790368,4.79358187 9.9766119,4.78610312 C10.2564759,4.78131671 10.5270312,4.72477734 10.7888782,4.61738244 C11.0504249,4.50968839 11.2726346,4.38045552 11.4549065,4.2293847 C11.4594108,4.15639207 11.466017,4.08160453 11.4747252,4.0062187 C11.4837337,3.93053371 11.4945439,3.85604533 11.5077564,3.78275354 L11.4636147,3.75523173 C11.3020623,3.94190142 11.1005722,4.09536544 10.8594448,4.21592295 C10.6183173,4.33648045 10.3771898,4.39870368 10.1360623,4.40289178 C9.6423966,4.40199433 9.26433994,4.24164986 9.00189235,3.92305496 C8.73974504,3.60386176 8.60701983,3.13120453 8.60461756,2.50538244 C8.6004136,1.93250992 8.7172238,1.46404079 8.95534844,1.09967592 C9.19377337,0.735311048 9.57813598,0.547145609 10.1093371,0.535179603 C10.390102,0.545649858 10.6276261,0.625522946 10.8219093,0.774798867 C11.0161926,0.924074788 11.1564249,1.08142776 11.2423059,1.24685779 L11.3131728,1.24685779 C11.3356941,1.13736884 11.3636204,1.03236714 11.3972521,0.931852691 C11.4308839,0.831637394 11.4678187,0.735909348 11.5077564,0.644668555 C11.3921473,0.536077054 11.2077734,0.44304136 10.9546346,0.365561473 C10.701796,0.287782436 10.4111218,0.247098017 10.0829122,0.243209065 C9.49315581,0.239619263 8.97546742,0.420605099 8.52954674,0.787363173 C8.08362606,1.1538221 7.84910482,1.72968612 7.82568272,2.51465609 L7.825983,2.51465609" id="Fill-13"></path>
                                        </g>
                                        <path d="M73.3994448,19.918613 C73.2949462,20.0927184 73.1520113,20.241396 72.9703399,20.3643467 C72.7883683,20.4872975 72.5832748,20.5516147 72.3550595,20.5569994 C72.1526686,20.5567003 71.9755014,20.4843059 71.8241586,20.3392181 C71.6725156,20.1941303 71.5929405,19.9778448 71.5851331,19.6903615 C71.5965439,19.3672793 71.7112521,19.1369337 71.9289575,18.9993246 C72.1466629,18.8620147 72.3983003,18.7683807 72.6838697,18.7181235 C72.9694391,18.6678663 73.2198754,18.6119252 73.4348782,18.5503003 L73.3994448,19.918613 L73.3994448,19.918613 L73.3994448,19.918613 Z M71.2488159,17.4009654 L71.3461076,17.4009654 C71.4524079,17.2032272 71.6049518,17.0509598 71.8040397,16.9435649 C72.0034278,16.83617 72.2223343,16.7820238 72.4613598,16.780528 C72.8117904,16.7901008 73.0625269,16.9055728 73.2135694,17.1260465 C73.3649122,17.3468193 73.4384816,17.6148578 73.4348782,17.9298629 C73.4598017,18.0991819 73.3988442,18.2239275 73.2523059,18.3038006 C73.1057677,18.3839728 72.7241076,18.4722221 72.1073258,18.5685484 C71.7181586,18.6307717 71.4139717,18.7638935 71.1944646,18.9676147 C70.9749575,19.171336 70.8632521,19.4546312 70.8590482,19.8180986 C70.8713598,20.1684034 70.9932748,20.4418266 71.2253938,20.6389666 C71.4575127,20.8364057 71.728068,20.936621 72.0364589,20.9402108 C72.3310368,20.9396125 72.5847762,20.8836714 72.7976771,20.7714901 C73.0102776,20.6593088 73.2198754,20.4935796 73.4258697,20.2743025 C73.4429858,20.4334504 73.5018414,20.5665722 73.6018357,20.6733688 C73.7021303,20.7801654 73.8471671,20.8355082 74.0369462,20.8396963 C74.1531558,20.8379014 74.2609575,20.8235422 74.3597507,20.7963195 C74.4588442,20.769396 74.5399207,20.7412759 74.6032805,20.7119592 L74.6032805,20.5112295 C74.5717507,20.5288793 74.5396204,20.5393496 74.5068895,20.5432385 C74.4744589,20.5468283 74.4444306,20.5489224 74.4171048,20.5477258 C74.251949,20.5387513 74.1513541,20.4636646 74.1153201,20.3233632 C74.0792861,20.1827626 74.0648725,20.0325892 74.0720793,19.8728431 C74.073881,19.4920249 74.0792861,19.1273609 74.089796,18.7794493 C74.1003059,18.4315377 74.1060113,18.087515 74.1075127,17.7473813 C74.1015071,17.3360499 73.9681813,17.0096771 73.7093371,16.7679637 C73.4504929,16.5265496 73.1051671,16.4030006 72.6736601,16.3973167 C72.4424419,16.3937269 72.2127252,16.4308215 71.9845099,16.5080023 C71.7562946,16.5854822 71.5112635,16.7248861 71.2488159,16.9265133 L71.2488159,17.4009654 L71.2488159,17.4009654 L71.2488159,17.4009654 Z" id="Fill-15" fill="#6D6E71"></path>
                                        <path d="M78.0274108,17.190962 C78.0265099,17.0617292 78.0283116,16.925915 78.0355184,16.7841178 C78.0418244,16.6420215 78.0601416,16.531336 78.0895694,16.4520612 C78.0343173,16.4299241 77.9859717,16.4149666 77.9448329,16.407787 C77.9036941,16.4003082 77.8574504,16.3970176 77.8064023,16.3973167 C77.6007082,16.3973167 77.3971161,16.479583 77.1956261,16.6438164 C76.9944363,16.8077507 76.8085609,17.0542504 76.638,17.3824181 L76.6205836,17.3731445 C76.6193824,17.2639547 76.6211841,17.1427989 76.6256884,17.0096771 C76.6304929,16.8762561 76.6434051,16.702749 76.6647252,16.4885575 C76.6067705,16.5023184 76.5476147,16.513387 76.4875581,16.521464 C76.4272011,16.5298402 76.3683456,16.5340283 76.3103909,16.5340283 C76.2491331,16.5337292 76.1881756,16.5292419 76.128119,16.521464 C76.0674618,16.513387 76.0044023,16.5023184 75.9389405,16.4885575 C75.9557564,16.8807433 75.965966,17.2343388 75.9698697,17.5487456 C75.9731728,17.8634516 75.9749745,18.1395671 75.9740737,18.3767932 L75.9740737,18.6684646 C75.9749745,19.1785156 75.9734731,19.613779 75.9698697,19.974255 C75.965966,20.3347309 75.9557564,20.6264023 75.9389405,20.8486708 C76.0044023,20.8349099 76.0674618,20.8238414 76.128119,20.8157643 C76.1881756,20.8073881 76.2491331,20.8032 76.3103909,20.8032 C76.3683456,20.8032 76.4272011,20.8076873 76.4875581,20.8157643 C76.5476147,20.8241405 76.6064703,20.8349099 76.6647252,20.8486708 C76.6476091,20.6605054 76.6370992,20.3915694 76.6334958,20.0412646 C76.6298924,19.6912589 76.6280907,19.1303524 76.6289915,18.3582459 C76.6307932,17.9941802 76.7109688,17.6941326 76.868017,17.457804 C77.0250652,17.2214754 77.2463739,17.0988238 77.5319433,17.0904476 C77.6235297,17.0925416 77.7103116,17.1072 77.7919887,17.1359184 C77.8733654,17.164936 77.9316204,17.1984408 77.9655524,17.2364329 L78.0274108,17.190962" id="Fill-16" fill="#6D6E71"></path>
                                        <path d="M80.911932,16.6892873 C81.3599547,16.714715 81.6566346,16.8965983 81.8013711,17.2355354 C81.9464079,17.5741734 82.0127705,17.9184952 82.0004589,18.2676034 C81.8130822,18.2729881 81.6193994,18.2783728 81.4188102,18.284655 C81.218221,18.2912363 81.0197337,18.2942278 80.8233484,18.2948261 C80.6353711,18.2942278 80.4425892,18.2912363 80.2447025,18.284655 C80.0468159,18.2780737 79.8564363,18.272689 79.6726629,18.2676034 C79.6894788,17.9143071 79.7933768,17.569387 79.9837564,17.2322448 C80.174136,16.8951025 80.4834278,16.7141167 80.911932,16.6892873 L80.911932,16.6892873 L80.911932,16.6892873 Z M78.8673031,18.7965008 C78.8772125,19.4166391 79.0763003,19.9254935 79.4648669,20.3233632 C79.8531331,20.7209337 80.3708215,20.926749 81.0182323,20.9402108 C81.297796,20.9354244 81.5683513,20.878885 81.8301983,20.7714901 C82.0920453,20.663796 82.3139547,20.5345632 82.4962266,20.3837915 L82.5493768,19.9368612 L82.5052351,19.9093394 C82.3436827,20.0960091 82.1421926,20.2494731 81.9010652,20.3700306 C81.6596374,20.4905881 81.4185099,20.5528113 81.1773824,20.5569994 C80.6837167,20.5459309 80.3059603,20.3831932 80.0435127,20.0690856 C79.7810652,19.7546788 79.6486402,19.354715 79.646238,18.8694935 C79.6444363,18.7887229 79.6480397,18.7037643 79.6552465,18.6140193 C79.8495297,18.6086346 80.0426119,18.6032499 80.2350935,18.5969677 C80.4269745,18.5903864 80.6203569,18.5873949 80.8146402,18.5867966 C81.1287365,18.5870958 81.4431331,18.5903864 81.7584306,18.5969677 C82.073728,18.603549 82.3902266,18.6089337 82.7088272,18.6137201 C82.7193371,18.4952567 82.7250425,18.3767932 82.7265439,18.2583297 C82.7274448,17.7378085 82.5770028,17.3010493 82.2752181,16.9480521 C81.9728329,16.595055 81.5127989,16.4116759 80.8942153,16.3973167 C80.2404986,16.4047955 79.7402266,16.6201836 79.3927989,17.0428827 C79.0459717,17.4655819 78.8706062,18.0498221 78.8676034,18.7965008 L78.8673031,18.7965008 L78.8673031,18.7965008 L78.8673031,18.7965008 Z" id="Fill-17" fill="#6D6E71"></path>
                                        <path d="M103.499241,1.69109575 L103.872193,1.69109575 C104.050261,1.69109575 104.171875,1.66656544 104.236737,1.61720567 C104.301598,1.56814504 104.334028,1.50293031 104.334028,1.42186062 C104.334028,1.3698085 104.318414,1.32314108 104.286884,1.28185836 C104.255654,1.24057564 104.212113,1.20976317 104.156861,1.18942096 C104.101309,1.16907875 103.998612,1.15890765 103.84847,1.15890765 L103.499241,1.15890765 L103.499241,1.69109575 L103.499241,1.69109575 L103.499241,1.69109575 Z M103.192051,2.68367592 L103.192051,0.920185836 L103.846368,0.920185836 C104.069779,0.920185836 104.231632,0.936339943 104.331626,0.968947309 C104.43162,1.00155467 104.511195,1.0583932 104.570652,1.13946289 C104.630108,1.22053258 104.659836,1.30668782 104.659836,1.39792861 C104.659836,1.52686232 104.610289,1.63904363 104.510895,1.73447252 C104.411802,1.83020057 104.280278,1.88374844 104.116023,1.8954153 C104.182986,1.92114221 104.237037,1.95255297 104.277575,1.98845099 C104.354448,2.05785382 104.448136,2.17452238 104.558941,2.33815751 L104.791059,2.68337677 L104.416306,2.68337677 L104.247246,2.40546629 C104.114221,2.18678754 104.00732,2.05007592 103.926244,1.99503229 C103.870091,1.95464703 103.787813,1.93430482 103.679711,1.93430482 L103.499241,1.93430482 L103.499241,2.68337677 L103.192051,2.68367592 L103.192051,2.68367592 L103.192051,2.68367592 Z M103.967983,0.409835694 C103.719649,0.409835694 103.47762,0.468768272 103.242499,0.586932578 C103.007377,0.704797734 102.823303,0.873518414 102.690278,1.09279547 C102.557552,1.31207252 102.49089,1.54062323 102.49089,1.77814844 C102.49089,2.0141779 102.556351,2.24033541 102.686674,2.45692011 C102.817598,2.67320567 102.99987,2.84192635 103.234091,2.96248385 C103.468912,3.08363966 103.713343,3.14406799 103.967983,3.14406799 C104.222924,3.14406799 104.467654,3.08363966 104.702176,2.96248385 C104.936397,2.84192635 105.118669,2.67320567 105.248391,2.45692011 C105.378113,2.24033541 105.442975,2.0141779 105.442975,1.77814844 C105.442975,1.54062323 105.376912,1.31207252 105.244788,1.09279547 C105.112663,0.873518414 104.928589,0.704797734 104.692567,0.586932578 C104.456844,0.468768272 104.215116,0.409835694 103.967983,0.409835694 L103.967983,0.409835694 L103.967983,0.409835694 Z M103.967983,0.138506516 C104.265263,0.138506516 104.555037,0.208806799 104.837904,0.350005666 C105.121071,0.491204533 105.341479,0.693130878 105.499127,0.955784703 C105.657076,1.21903683 105.736051,1.49275921 105.736051,1.77814844 C105.736051,2.06024703 105.658278,2.33187535 105.502731,2.59243513 C105.347184,2.8529949 105.129178,3.05551955 104.848714,3.19941076 C104.567949,3.34360113 104.274572,3.41569632 103.967983,3.41569632 C103.661694,3.41569632 103.368317,3.34360113 103.087853,3.19941076 C102.807088,3.05551955 102.588782,2.8529949 102.432635,2.59243513 C102.276187,2.33187535 102.198113,2.06024703 102.198113,1.77814844 C102.198113,1.49275921 102.277388,1.21903683 102.435938,0.955784703 C102.594788,0.693130878 102.815496,0.491204533 103.098363,0.350005666 C103.381229,0.208806799 103.671303,0.138506516 103.967983,0.138506516 L103.967983,0.138506516 L103.967983,0.138506516 Z" id="Fill-18" fill="#6D6E71"></path>
                                        <path d="M0.118311615,8.5577881 C0.117410765,9.20544816 0.104798867,9.85550142 0.0813767705,10.5070504 C0.0579546742,11.1588986 0.0309291785,11.8083535 0,12.4566119 C0.458232295,12.4335773 0.91466289,12.4153292 1.36929178,12.4018674 C1.82392068,12.3884057 2.28005099,12.3815252 2.73858357,12.3812261 C3.19050992,12.3815252 3.64453824,12.3884057 4.10036827,12.4018674 C4.5561983,12.4153292 5.01022663,12.4335773 5.46215297,12.4566119 C5.41530878,12.3058402 5.39038527,12.1553677 5.387983,12.0048952 C5.39098584,11.8544227 5.41530878,11.7039501 5.46215297,11.5531785 C4.73126346,11.6471116 4.03911048,11.7042493 3.38599433,11.7245915 C2.73287819,11.7449337 2.06294618,11.7530108 1.37649858,11.7488227 C1.36839093,11.0206912 1.35908215,10.1890538 1.34887252,9.25391048 C1.33866289,8.31876714 1.33325779,7.22357847 1.33235694,5.96864363 C1.33325779,5.32038527 1.34586969,4.67063116 1.3689915,4.01908215 C1.39271388,3.36753314 1.41973938,2.71777904 1.45066856,2.06981983 C1.20143343,2.1173847 0.959705382,2.14251331 0.725184136,2.14490652 C0.490963173,2.14221416 0.249235127,2.1173847 0,2.06952068 C0.0309291785,2.71747989 0.0579546742,3.36723399 0.0813767705,4.01908215 C0.104798867,4.67063116 0.117110482,5.32038527 0.118311615,5.96834448 L0.118311615,8.5577881" id="Fill-19" fill="#6D6E71"></path>
                                        <path d="M7.51999433,8.5577881 C7.5187932,9.20544816 7.5061813,9.85550142 7.48275921,10.5070504 C7.45933711,11.1588986 7.43231161,11.8083535 7.40138244,12.4566119 C7.65061756,12.4087479 7.89234561,12.3836193 8.12656657,12.3812261 C8.36108782,12.3839184 8.60281586,12.4087479 8.85205099,12.4566119 C8.8214221,11.8083535 8.79409632,11.1588986 8.77067422,10.5070504 C8.74725212,9.85550142 8.73494051,9.20544816 8.73373938,8.5577881 L8.73373938,5.96864363 C8.73464023,5.32038527 8.74725212,4.67063116 8.77067422,4.01908215 C8.79409632,3.36753314 8.8214221,2.71777904 8.85205099,2.06981983 C8.60281586,2.1173847 8.36108782,2.14251331 8.12656657,2.14490652 C7.89234561,2.14221416 7.65061756,2.1173847 7.40138244,2.06952068 C7.43231161,2.71747989 7.45933711,3.36723399 7.48275921,4.01908215 C7.5061813,4.67063116 7.51849292,5.32038527 7.51969405,5.96834448 L7.51999433,8.5577881" id="Fill-20" fill="#6D6E71"></path>
                                        <path d="M14.5562323,12.4563127 C14.6249972,12.4335773 14.7024703,12.4153292 14.7895524,12.4018674 C14.8763343,12.3884057 14.9616147,12.3815252 15.0447932,12.3812261 C15.2075467,12.3839184 15.3706006,12.4087479 15.5333541,12.4563127 C16.835983,8.99424816 18.2569235,5.53188442 19.7964759,2.06981983 C19.7072918,2.09255524 19.6157054,2.1108034 19.5226176,2.12426516 C19.4295297,2.13772691 19.3382436,2.14460737 19.2487592,2.14490652 C19.1595751,2.14460737 19.0679887,2.13772691 18.9749008,2.12426516 C18.881813,2.1108034 18.7905269,2.09255524 18.7010425,2.06952068 C18.4839377,2.7551728 18.1815524,3.63557167 17.7938867,4.71071728 C17.406221,5.78586289 16.9927309,6.88703456 16.5543173,8.01393314 C16.1156034,9.14113088 15.7108215,10.1250357 15.3408725,10.9659467 C14.7108782,9.43160567 14.102204,7.90175184 13.5145496,6.37668442 C12.9268952,4.851617 12.4110085,3.41599547 11.9656884,2.06981983 C11.8395694,2.09255524 11.7110482,2.1108034 11.5810255,2.12426516 C11.4507025,2.13772691 11.3224816,2.14460737 11.1960623,2.14490652 C11.0696431,2.14460737 10.9414221,2.13742776 10.8110992,2.12426516 C10.6810765,2.1108034 10.5528555,2.09255524 10.4264363,2.06952068 C10.9128952,3.24159093 11.4167705,4.46810652 11.937762,5.74936657 C12.4590538,7.03002833 12.9497167,8.25654391 13.4097507,9.42891331 C13.8703853,10.6012827 14.2523456,11.6103161 14.5562323,12.4563127" id="Fill-21" fill="#6D6E71"></path>
                                        <path d="M21.5131955,8.54253144 C21.5122946,9.1901915 21.4996827,9.84054391 21.4762606,10.4938878 C21.4528385,11.1472317 21.425813,11.8011739 21.3948839,12.4563127 C21.8459093,12.4335773 22.2948329,12.4153292 22.7419547,12.4018674 C23.1890765,12.3884057 23.6383003,12.3815252 24.0890255,12.3812261 C24.9922776,12.3839184 25.8802153,12.4087479 26.7534391,12.4563127 C26.7390255,12.3875082 26.7276147,12.3145156 26.7201076,12.2382323 C26.7132011,12.1616499 26.7089972,12.0889564 26.7092975,12.0198527 C26.7089972,11.9495524 26.7129008,11.8717734 26.7201076,11.7865156 C26.7276147,11.7012578 26.7387252,11.6234788 26.7534391,11.5531785 C26.2612748,11.6405303 25.6432918,11.6955739 24.8994901,11.7189076 C24.1556884,11.7419422 23.4416147,11.7521133 22.7569688,11.7488227 C22.7485609,11.5618538 22.742255,11.2815501 22.7365496,10.9079116 C22.7308442,10.5342731 22.7275411,10.0622142 22.7272408,9.49083739 C22.7269405,8.79052691 22.7275411,8.29124533 22.7290425,7.99329178 C22.7308442,7.69533824 22.7344476,7.46708669 22.7419547,7.30823796 C23.1389292,7.30734051 23.6995581,7.31661416 24.4238414,7.33635807 C25.1484249,7.35610198 25.7865269,7.392 26.3390482,7.44375297 C26.3093201,7.29328045 26.2946062,7.14280793 26.2946062,6.99203626 C26.2946062,6.91605212 26.2982096,6.83827309 26.3057167,6.75869915 C26.3129235,6.67912521 26.324034,6.60134618 26.3390482,6.52536204 C25.9162493,6.56484986 25.4258867,6.59925212 24.8679603,6.62886799 C24.310034,6.658783 23.6013654,6.67463796 22.7419547,6.67613371 C22.7413541,6.47749802 22.7392521,6.19719433 22.7347479,5.83492351 C22.7302436,5.47265269 22.7284419,5.09063796 22.7275411,4.68917847 C22.7293428,4.3272068 22.7368499,3.99724419 22.7515637,3.69929065 C22.7659773,3.40133711 22.7776884,3.09410992 22.7866969,2.77730992 C23.7130708,2.78000227 24.4469632,2.80124193 24.9886742,2.84132805 C25.530085,2.88111501 26.094017,2.92509008 26.6798697,2.97295411 C26.6504419,2.82248159 26.6354278,2.67170992 26.6354278,2.52123739 C26.6354278,2.37076487 26.6504419,2.22029235 26.6798697,2.06981983 C25.8090482,2.1173847 24.9307195,2.14251331 24.0448839,2.14520567 C23.6013654,2.14490652 23.159949,2.13772691 22.720034,2.12426516 C22.2804193,2.1108034 21.8387025,2.09255524 21.3951841,2.06981983 C21.4261133,2.71030028 21.4534391,3.35586629 21.4765609,4.00591955 C21.499983,4.6559728 21.5122946,5.30542776 21.513796,5.95338697 L21.5131955,8.54253144" id="Fill-22" fill="#6D6E71"></path>
                                        <path d="M40.7325269,6.96212125 C40.7526459,7.62055071 40.7127082,8.3322289 40.6124136,9.09685666 C40.5124193,9.86148442 40.232255,10.5205122 39.7719207,11.0742391 C39.3118867,11.6282652 38.5512691,11.9181416 37.4909688,11.944766 C36.4108499,11.9244238 35.6364193,11.6689496 35.1676771,11.1780442 C34.6992351,10.687438 34.413966,10.0825564 34.31217,9.36459603 C34.2100737,8.64603739 34.1692351,7.93555581 34.1896544,7.23315127 C34.1914561,6.09877394 34.2100737,5.0705949 34.2452068,4.14891331 C34.2806402,3.22723173 34.3211785,2.53410085 34.3674221,2.06981983 C34.26983,2.09255524 34.1653314,2.1108034 34.0548272,2.12426516 C33.9440227,2.13772691 33.836221,2.14460737 33.7308215,2.14490652 C33.6101076,2.14460737 33.4815864,2.13772691 33.3461586,2.12426516 C33.2101303,2.1108034 33.0819093,2.09255524 32.9611955,2.06981983 C32.977711,2.51076714 32.9963286,3.06269915 33.0167479,3.72561586 C33.0371671,4.38853258 33.0479773,5.13610878 33.0500793,5.96864363 C33.0473768,6.33869235 33.0344646,6.71233088 33.0131445,7.08985836 C32.9915241,7.46768499 32.9792125,7.88649518 32.9762096,8.34688725 C32.9699037,9.80374844 33.3086232,10.886672 33.9938697,11.5947603 C34.6791161,12.3028487 35.7508272,12.6552476 37.2099037,12.6519569 C38.5494674,12.6378969 39.5818414,12.2484034 40.3070255,11.4834765 C41.0325099,10.7188487 41.4063626,9.66314788 41.4285836,8.31667309 C41.4450992,7.1825949 41.4784306,6.04163626 41.5282776,4.89409632 C41.5784249,3.74655637 41.6339773,2.80513088 41.6949348,2.06981983 C41.6273711,2.09255524 41.5553031,2.1108034 41.4784306,2.12426516 C41.4018584,2.13772691 41.3258867,2.14460737 41.2508159,2.14490652 C41.0412181,2.14221416 40.8388272,2.1173847 40.6439433,2.06952068 C40.6865836,2.35161926 40.7124079,2.88290992 40.7217167,3.66339263 C40.7310255,4.44387535 40.7346289,5.54355127 40.7328272,6.9618221 L40.7325269,6.96212125" id="Fill-23" fill="#6D6E71"></path>
                                        <path d="M44.5272068,8.5577881 C44.5263059,9.20544816 44.5136941,9.85550142 44.490272,10.5070504 C44.4668499,11.1588986 44.4398244,11.8083535 44.4088952,12.4566119 C44.8674278,12.4335773 45.3238584,12.4153292 45.778187,12.4018674 C46.2328159,12.3884057 46.6892465,12.3815252 47.1474788,12.3812261 C47.5997054,12.3815252 48.0534334,12.3884057 48.5092635,12.4018674 C48.9650935,12.4153292 49.4191218,12.4335773 49.8713484,12.4566119 C49.8245042,12.3058402 49.7995807,12.1553677 49.7971785,12.0048952 C49.799881,11.8544227 49.824204,11.7039501 49.8713484,11.5531785 C49.1404589,11.6471116 48.4483059,11.7042493 47.7951898,11.7245915 C47.1420737,11.7449337 46.4721416,11.7530108 45.7856941,11.7488227 C45.7775864,11.0206912 45.7679773,10.1890538 45.758068,9.25391048 C45.7475581,8.31876714 45.742153,7.22357847 45.7412521,5.96864363 C45.742153,5.32038527 45.7547649,4.67063116 45.778187,4.01908215 C45.8016091,3.36753314 45.8286346,2.71777904 45.8595637,2.06981983 C45.6103286,2.1173847 45.3686006,2.14251331 45.1343796,2.14490652 C44.8998584,2.14221416 44.6581303,2.1173847 44.4088952,2.06952068 C44.4398244,2.71747989 44.4668499,3.36723399 44.490272,4.01908215 C44.5136941,4.67063116 44.5263059,5.32038527 44.5272068,5.96834448 L44.5272068,8.5577881" id="Fill-24" fill="#6D6E71"></path>
                                        <path d="M53.9864306,8.5577881 C53.9855297,9.20544816 53.9729178,9.85550142 53.9494958,10.5070504 C53.9260737,11.1588986 53.8990482,11.8083535 53.868119,12.4566119 C54.1173541,12.4087479 54.3590822,12.3836193 54.5933031,12.3812261 C54.8278244,12.3839184 55.0695524,12.4087479 55.3187875,12.4566119 C55.2878584,11.8083535 55.2608329,11.1588986 55.2374108,10.5070504 C55.2139887,9.85550142 55.2016771,9.20544816 55.2004759,8.5577881 L55.2004759,5.96864363 C55.2004759,4.92969518 55.2151898,3.89104589 55.2449178,2.8523966 C55.771915,2.85269575 56.3238357,2.86705496 56.9009802,2.89577337 C57.4778244,2.92449178 57.9816997,2.9651762 58.4126062,3.01812578 C58.390085,2.94214164 58.3723683,2.86466176 58.3591558,2.78478867 C58.3459433,2.70521473 58.3390368,2.62743569 58.3387365,2.55145156 C58.3390368,2.46918527 58.3459433,2.38901303 58.3591558,2.31063569 C58.3723683,2.23225836 58.390085,2.15178697 58.4126062,2.06981983 C57.1397054,2.1173847 55.8665042,2.14251331 54.5936034,2.14490652 C53.3204023,2.14221416 52.0475014,2.1173847 50.7743003,2.06981983 C50.8211445,2.23285666 50.8457677,2.38841473 50.8484703,2.5361949 C50.8457677,2.70461643 50.8211445,2.86496091 50.7743003,3.01812578 C51.2052068,2.9651762 51.7090822,2.92449178 52.2859263,2.89577337 C52.8630708,2.86705496 53.4149915,2.85269575 53.942289,2.8523966 C53.9717167,3.89104589 53.9867309,4.92969518 53.9867309,5.96864363 L53.9864306,8.5577881" id="Fill-25" fill="#6D6E71"></path>
                                        <path d="M60.1686629,8.5577881 C60.167762,9.20544816 60.1551501,9.85550142 60.131728,10.5070504 C60.1086062,11.1588986 60.0812805,11.8083535 60.0506516,12.4566119 C60.2995864,12.4087479 60.5413144,12.3836193 60.7758357,12.3812261 C61.0100567,12.3839184 61.252085,12.4087479 61.5010198,12.4566119 C61.4703909,11.8083535 61.4430652,11.1588986 61.4199433,10.5070504 C61.396221,9.85550142 61.3839093,9.20544816 61.3827082,8.5577881 L61.3827082,5.96864363 C61.3836091,5.32038527 61.3965212,4.67063116 61.4199433,4.01908215 C61.4430652,3.36753314 61.4703909,2.71777904 61.5010198,2.06981983 C61.252085,2.1173847 61.0100567,2.14251331 60.7758357,2.14490652 C60.5416147,2.14221416 60.2995864,2.1173847 60.0506516,2.06952068 C60.0812805,2.71747989 60.1086062,3.36723399 60.131728,4.01908215 C60.1551501,4.67063116 60.167762,5.32038527 60.1686629,5.96834448 L60.1686629,8.5577881" id="Fill-26" fill="#6D6E71"></path>
                                        <path d="M64.9701926,1.87387649 C64.8002323,3.50334731 64.5846289,5.25008499 64.3242833,7.11438867 C64.0636374,8.97869235 63.800289,10.7595331 63.534238,12.4566119 C63.6225212,12.4335773 63.7087025,12.4153292 63.7930822,12.4018674 C63.877762,12.3884057 63.9639433,12.3815252 64.0522266,12.3812261 C64.1405099,12.3815252 64.2269915,12.3884057 64.3113711,12.4018674 C64.396051,12.4153292 64.4822323,12.4335773 64.5705156,12.4566119 C64.5786232,11.8711751 64.6212635,11.1319751 64.6987365,10.2384136 C64.7759093,9.34545042 64.8680963,8.40881133 64.9749972,7.42849632 C65.081898,6.44848045 65.1839943,5.53517507 65.2809858,4.68887932 L65.3104136,4.68887932 C65.9602266,5.99257564 66.6109405,7.28789575 67.2625552,8.57454051 C67.91417,9.86148442 68.5315524,11.1301802 69.1150028,12.3812261 L69.2480283,12.3812261 C69.8371841,11.0323581 70.4614731,9.72567025 71.1205949,8.46176091 C71.780017,7.19755241 72.4487479,5.93992521 73.1264873,4.68887932 L73.155915,4.68887932 C73.3093598,5.97013938 73.4432861,7.24990368 73.5576941,8.52757394 C73.672102,9.80524419 73.7799037,11.1149235 73.8813994,12.4563127 C73.9994108,12.4335773 74.1153201,12.4153292 74.2291275,12.4018674 C74.3432351,12.3884057 74.4594448,12.3815252 74.5771558,12.3812261 C74.6948669,12.3815252 74.8110765,12.3884057 74.9251841,12.4018674 C75.0389915,12.4153292 75.1552011,12.4335773 75.2726119,12.4563127 C75.0428952,10.7481654 74.8369008,9.03523173 74.6549292,7.31751161 C74.4729575,5.60009065 74.2744703,3.78544589 74.0591671,1.87387649 L73.8663853,1.87387649 C73.3667139,2.83145609 72.8156941,3.87369518 72.2136261,5.00119207 C71.6115581,6.12868895 71.0575354,7.16644079 70.5509575,8.11504589 C70.0443796,9.06335184 69.6840397,9.74780737 69.470238,10.1681133 C68.7165269,8.76809065 67.9883399,7.38751275 67.2847762,6.02667875 C66.5815127,4.66584476 65.893864,3.28167705 65.22183,1.87387649 L64.9701926,1.87387649" id="Fill-27" fill="#6D6E71"></path>
                                        <path d="M82.2995411,7.72974051 C82.0250822,7.73721926 81.7488215,7.74439887 81.4704589,7.75038187 C81.1923966,7.75576657 80.9158357,7.75965552 80.6413768,7.75965552 C80.3807309,7.75875807 80.1140793,7.75337337 79.8423229,7.74469802 C79.5702663,7.73542436 79.3036147,7.73093711 79.0429688,7.72974051 L80.6563909,3.90630255 L82.2995411,7.72974051 L82.2995411,7.72974051 L82.2995411,7.72974051 Z M80.8635864,1.87387649 C80.1089745,3.64903343 79.3459547,5.41671161 78.5748272,7.1766119 C77.8033994,8.93651218 77.021762,10.6964125 76.2302153,12.4566119 C76.4202946,12.4087479 76.6028669,12.3836193 76.777932,12.3812261 C76.9529972,12.3839184 77.1358697,12.4087479 77.3256487,12.4566119 C77.4568725,11.9701938 77.6496544,11.3733892 77.9048952,10.6650017 C78.1598357,9.95691331 78.4454051,9.20933711 78.7616034,8.42227309 C79.064289,8.41389688 79.3654731,8.40731558 79.6645552,8.40133258 C79.9636374,8.39594788 80.2648215,8.39205892 80.5675071,8.39205892 C81.2212238,8.39475127 81.8677337,8.40462323 82.5067365,8.42227309 C82.786,9.11151501 83.0712691,9.82169745 83.3634448,10.5522221 C83.6553201,11.2830459 83.8781303,11.9178425 84.0312748,12.4566119 C84.164,12.4335773 84.2946232,12.4153292 84.423745,12.4021666 C84.5525666,12.3884057 84.6834901,12.3815252 84.815915,12.3812261 C84.9486402,12.3815252 85.0792635,12.3887048 85.208085,12.4021666 C85.3372068,12.4153292 85.46783,12.4335773 85.6005552,12.4566119 C85.3251955,11.8834402 84.9315241,10.9889813 84.4189405,9.77323513 C83.9063569,8.5571898 83.3568385,7.23674108 82.7703853,5.81188895 C82.183932,4.38673768 81.6419207,3.07436601 81.1449518,1.87387649 L80.8635864,1.87387649 L80.8635864,1.87387649 L80.8635864,1.87387649 Z" id="Fill-28" fill="#6D6E71"></path>
                                        <path d="M89.3748159,8.5577881 C89.373915,9.20544816 89.3613031,9.85550142 89.337881,10.5070504 C89.3144589,11.1588986 89.2871331,11.8083535 89.2565042,12.4566119 C89.5057394,12.4087479 89.7474674,12.3836193 89.9819887,12.3812261 C90.2162096,12.3839184 90.4579377,12.4087479 90.7071728,12.4566119 C90.6765439,11.8083535 90.6492181,11.1588986 90.625796,10.5070504 C90.6023739,9.85550142 90.5900623,9.20544816 90.5888612,8.5577881 L90.5888612,5.96864363 C90.5888612,4.92969518 90.6035751,3.89104589 90.6333031,2.8523966 C91.1603003,2.85269575 91.712221,2.86705496 92.2893654,2.89577337 C92.8662096,2.92449178 93.370085,2.9651762 93.8009915,3.01812578 C93.7784703,2.94214164 93.7604533,2.86466176 93.7472408,2.78478867 C93.7340283,2.70521473 93.7274221,2.62743569 93.7268215,2.55145156 C93.7271218,2.46918527 93.7340283,2.38901303 93.7472408,2.31063569 C93.7604533,2.23225836 93.7784703,2.15178697 93.8009915,2.06981983 C92.5277904,2.1173847 91.2548895,2.14251331 89.9819887,2.14490652 C88.7087875,2.14221416 87.4355864,2.1173847 86.1626856,2.06981983 C86.2095297,2.23285666 86.234153,2.38841473 86.2368555,2.5361949 C86.234153,2.70461643 86.20983,2.86496091 86.1626856,3.01812578 C86.5935921,2.9651762 87.0974674,2.92449178 87.6743116,2.89577337 C88.2514561,2.86705496 88.8033768,2.85269575 89.3303739,2.8523966 C89.360102,3.89104589 89.3748159,4.92969518 89.3748159,5.96864363 L89.3748159,8.5577881" id="Fill-29" fill="#6D6E71"></path>
                                        <path d="M95.5573484,8.54253144 C95.5564476,9.1901915 95.5435354,9.84054391 95.5204136,10.4938878 C95.4966912,11.1472317 95.4696657,11.8011739 95.4387365,12.4563127 C95.889762,12.4335773 96.3389858,12.4153292 96.7858074,12.4018674 C97.2332295,12.3884057 97.682153,12.3815252 98.1331785,12.3812261 C99.03583,12.3839184 99.924068,12.4087479 100.797592,12.4563127 C100.782878,12.3875082 100.771768,12.3145156 100.764261,12.2382323 C100.757054,12.1616499 100.75315,12.0889564 100.75315,12.0198527 C100.75315,11.9495524 100.756453,11.8717734 100.764261,11.7865156 C100.771467,11.7012578 100.782578,11.6234788 100.797592,11.5531785 C100.305127,11.6405303 99.6871445,11.6955739 98.9436431,11.7189076 C98.1995411,11.7419422 97.4851671,11.7521133 96.8008215,11.7488227 C96.7927139,11.5618538 96.7861076,11.2815501 96.7804023,10.9079116 C96.7749972,10.5342731 96.7713938,10.0622142 96.7710935,9.49083739 C96.7707932,8.79052691 96.7713938,8.29124533 96.7728952,7.99329178 C96.7746969,7.69533824 96.7783003,7.46708669 96.7858074,7.30823796 C97.1827819,7.30734051 97.7434108,7.31661416 98.4679943,7.33635807 C99.1922776,7.35610198 99.8306799,7.392 100.382901,7.44375297 C100.353473,7.29328045 100.338459,7.14280793 100.338459,6.99203626 C100.338459,6.91605212 100.342363,6.83827309 100.34987,6.75869915 C100.357076,6.67912521 100.368187,6.60134618 100.382901,6.52536204 C99.960102,6.56484986 99.4697394,6.59925212 98.9121133,6.62886799 C98.354187,6.658783 97.6455184,6.67463796 96.7858074,6.67613371 C96.7855071,6.47749802 96.7831048,6.19719433 96.7786006,5.83492351 C96.7740963,5.47265269 96.7722946,5.09063796 96.7713938,4.68917847 C96.7731955,4.3272068 96.7810028,3.99724419 96.7954164,3.69929065 C96.80983,3.40133711 96.8215411,3.09410992 96.8305496,2.77730992 C97.7569235,2.78000227 98.4911161,2.80124193 99.0325269,2.84132805 C99.5739377,2.88111501 100.13787,2.92509008 100.723722,2.97295411 C100.693994,2.82248159 100.67928,2.67170992 100.67928,2.52123739 C100.67928,2.37076487 100.693994,2.22029235 100.723722,2.06981983 C99.8529008,2.1173847 98.9745722,2.14251331 98.0887365,2.14520567 C97.6452181,2.14490652 97.2038017,2.13772691 96.7638867,2.12426516 C96.3239717,2.1108034 95.8825552,2.09255524 95.4390368,2.06981983 C95.469966,2.71030028 95.4969915,3.35586629 95.5204136,4.00591955 C95.544136,4.6559728 95.5564476,5.30542776 95.5573484,5.95338697 L95.5573484,8.54253144" id="Fill-30" fill="#6D6E71"></path>
                                    </g>
                                </g>
                            </g>
                        </g>
                    </g>
                </g>
            </g>
        </g>
    </g>
</svg>