<?xml version="1.0" encoding="UTF-8" standalone="no"?>
<svg width="75px" height="85px" viewBox="0 0 75 85" version="1.1" xmlns="http://www.w3.org/2000/svg" xmlns:xlink="http://www.w3.org/1999/xlink">
    <!-- Generator: Sketch 3.8.3 (29802) - http://www.bohemiancoding.com/sketch -->
    <title>logo</title>
    <desc>Created with Sketch.</desc>
    <defs>
        <polygon id="path-1" points="55.858516 0.054870892 0.0939866093 0.054870892 0.0939866093 71.1668685 55.858516 71.1668685 55.858516 0.054870892"></polygon>
    </defs>
    <g id="Home" stroke="none" stroke-width="1" fill="none" fill-rule="evenodd">
        <g id="1366w" transform="translate(-211.000000, -6086.000000)">
            <g id="companies" transform="translate(0.000000, 5522.000000)">
                <g id="left" transform="translate(203.000000, 80.000000)">
                    <g id="plancast" transform="translate(8.000000, 467.000000)">
                        <g id="logo" transform="translate(0.000000, 17.000000)">
                            <path d="M12.587381,79.6334073 L10.0994841,79.6334073 L10.0994841,81.459311 L12.4699206,81.459311 C13.565754,81.459311 13.9195238,81.3174448 13.9195238,80.5700035 C13.9195238,79.8113885 13.5070238,79.6334073 12.587381,79.6334073 M14.3443254,82.040743 C13.8486905,82.479311 13.565754,82.5030552 12.4699206,82.5030552 L10.0994841,82.5030552 L10.0994841,84.731811 L9.06257937,84.731811 L9.06257937,78.5902617 L12.7994841,78.5902617 C13.565754,78.5902617 13.7310317,78.6499214 14.085,78.8636185 C14.662381,79.2072101 14.9568254,79.9187359 14.9568254,80.5700035 C14.9568254,81.1268932 14.7687302,81.6610364 14.3443254,82.040743" id="Fill-1" fill="#221F20"></path>
                            <polygon id="Fill-3" fill="#221F20" points="16.948869 84.7317512 16.948869 78.5904014 17.9859722 78.5904014 17.9859722 83.6886056 21.7115675 83.6886056 21.7115675 84.7317512"></polygon>
                            <path d="M26.8981944,79.7643392 L25.5658532,82.2660528 L28.2303373,82.2660528 L26.8981944,79.7643392 Z M29.5275595,84.7318509 L28.7493849,83.2976256 L25.0237897,83.2976256 L24.2692262,84.7318509 L23.0904563,84.7318509 L26.3910516,78.5903016 L27.42875,78.5903016 L30.7533532,84.7318509 L29.5275595,84.7318509 Z" id="Fill-5" fill="#221F20"></path>
                            <polygon id="Fill-7" fill="#221F20" points="37.3553571 84.7317512 33.5353175 80.1674906 33.5353175 84.7317512 32.4980159 84.7317512 32.4980159 78.5904014 33.5470238 78.5904014 37.3553571 83.1432887 37.3553571 78.5904014 38.3924603 78.5904014 38.3924603 84.7317512"></polygon>
                            <path d="M44.0860714,84.9451291 C42.1293254,84.9451291 40.2781349,83.8546948 40.2781349,81.6969718 C40.2781349,79.6334272 41.9995635,78.4132981 43.9330952,78.4132981 C45.1237698,78.4132981 46.1729762,78.827723 47.1037302,79.5623944 L46.5501587,80.4399296 C45.7011508,79.8473239 45.005119,79.4674178 43.9444048,79.4674178 C42.6241667,79.4674178 41.3154365,80.2384038 41.3154365,81.6969718 C41.3154365,83.2261737 42.7184127,83.8904108 44.0624603,83.8904108 C45.0650397,83.8904108 45.8898413,83.5935094 46.7150397,83.0246479 L47.1747619,83.9845892 C46.2198016,84.6488263 45.2529365,84.9451291 44.0860714,84.9451291" id="Fill-9" fill="#221F20"></path>
                            <path d="M52.1500794,79.7643392 L50.816746,82.2660528 L53.4814286,82.2660528 L52.1500794,79.7643392 Z M54.7784524,84.7318509 L54.0004762,83.2976256 L50.2752778,83.2976256 L49.520119,84.7318509 L48.3413492,84.7318509 L51.6425397,78.5903016 L52.6798413,78.5903016 L56.0046429,84.7318509 L54.7784524,84.7318509 Z" id="Fill-11" fill="#221F20"></path>
                            <path d="M60.5550992,84.9451291 C59.2342659,84.9451291 57.96125,84.7082864 56.8882341,83.901784 L57.3832738,82.9895305 C58.3856548,83.6290258 59.1868452,83.901784 60.389623,83.901784 C61.5570833,83.901784 62.3824802,83.7357746 62.3824802,82.9180986 C62.3824802,82.7632629 62.3582738,82.5976526 62.2759325,82.4551878 C62.0753373,82.1477113 61.4979563,82.0647066 60.5789087,82.0647066 C58.7509325,82.0647066 58.5150198,81.9813028 58.1616468,81.8152934 C57.607877,81.5551056 57.3126389,80.9613028 57.3126389,80.3571244 C57.3126389,78.863439 58.8096627,78.4132981 60.0475595,78.4132981 C61.1793056,78.4132981 62.1576786,78.6732864 63.1483532,79.2190023 L62.664623,80.1555986 C61.7927976,79.6334272 61.0858532,79.4448709 60.0719643,79.4448709 C59.0812897,79.4448709 58.4443849,79.681115 58.4443849,80.285493 C58.4443849,80.4279577 58.4681944,80.5827934 58.5505357,80.701115 C58.7156151,80.94973 59.1168056,81.044108 60.3072817,81.044108 C61.9691865,81.044108 63.4785119,81.1869718 63.4785119,82.8111502 C63.4785119,84.5544484 62.0166071,84.9451291 60.5550992,84.9451291" id="Fill-13" fill="#221F20"></path>
                            <polygon id="Fill-15" fill="#221F20" points="68.406369 79.6334073 68.406369 84.731811 67.3569643 84.731811 67.3569643 79.6334073 65.0458532 79.6334073 65.0458532 78.5902617 70.7637103 78.5902617 70.7637103 79.6334073"></polygon>
                            <path d="M26.4517659,55.2832817 C26.6067262,55.2463685 26.6067262,55.2463685 26.559504,55.0420493 C25.0642659,54.961838 22.9807341,55.8788803 21.6271627,56.4110282 C19.5418452,57.3284695 17.3968056,58.6904648 15.657123,60.3880704 C12.8134722,62.9901479 11.4837103,67.1756995 12.2573214,71.9448779 C13.7533532,72.0262864 15.0737897,70.6415446 16.2241865,69.9425892 C17.0632738,69.3148662 17.950377,68.8930587 18.7892659,68.2665329 C18.7892659,68.2665329 26.69125,64.0682113 29.7769643,69.5243732" id="Fill-17" fill="#221F20"></path>
                            <path d="M17.5750198,31.6486526 C17.7343452,31.6486526 17.7343452,31.6486526 17.7343452,31.4461291 C16.2960516,31.040284 14.0597421,31.4461291 12.6214484,31.6486526 C10.3851389,32.0531009 7.9885119,32.863993 5.91152778,34.0789343 C2.55577381,35.9020446 0.320456349,39.5476667 1.98412698e-05,44.2065047 C1.43791667,44.6117512 3.03553571,43.5987347 4.31331349,43.1942864 C5.27224206,42.7886408 6.23077381,42.5863169 7.18990079,42.18127 C7.18990079,42.18127 15.8307738,39.9686761 17.6083532,45.7806009" id="Fill-19" fill="#221F20"></path>
                            <path d="M44.7034127,62.4560446 C44.5986508,62.3359272 44.5986508,62.3359272 44.4258333,62.4885681 C45.035754,63.8776995 46.8599603,65.2566549 47.9851587,66.1876643 C49.8093651,67.5676174 52.0829762,68.7630047 54.4877381,69.4120775 C58.2528175,70.5667606 62.8216667,69.5074531 66.9780159,66.2415376 C66.3686905,64.8528052 64.4540079,64.4118427 63.2629365,63.7535915 C62.2851587,63.3365728 61.4792063,62.7669131 60.5002381,62.3498944 C60.5002381,62.3498944 52.9022222,57.505892 56.6466667,51.7907394" id="Fill-21" fill="#221F20"></path>
                            <path d="M59.6769841,61.5110082 C59.6769841,61.5110082 43.9029762,76.8072171 22.3071429,64.3431444 C6.1577381,52.4469354 16.0166667,14.5832265 21.5561508,9.01253404 C29.3494048,1.17557394 45.530754,-0.680658451 54.2311508,8.0681561 C66.6339286,20.5414073 68.4095238,52.7298697 59.6769841,61.5110082" id="Fill-23" fill="#F5F4E6"></path>
                            <g id="Group-27" transform="translate(11.309524, 0.144660)">
                                <mask id="mask-2" fill="white">
                                    <use xlink:href="#path-1"></use>
                                </mask>
                                <g id="Clip-26"></g>
                                <path d="M12.1276786,62.4561643 C17.4000992,65.4792512 22.7554563,67.0122441 28.0463294,67.0122441 C39.1637897,67.0122441 46.5915675,60.191892 46.9258929,59.8792277 C50.6104167,56.1474085 52.4098214,46.8610587 51.5116071,36.205331 C50.5477183,24.7756244 46.7907738,14.7520094 41.4608135,9.39222066 C38.137004,6.04968545 33.2760913,4.20941549 27.7739087,4.20941549 C21.6219246,4.20941549 15.4655754,6.55709155 11.7070437,10.3367981 C8.54176587,13.5199085 3.26835317,30.2204131 4.37311508,44.7007418 C5.01438492,53.1113521 7.6235119,59.0838991 12.1276786,62.4561643 M28.0463294,71.1668685 C21.9905754,71.1668685 15.9078373,69.4283592 9.96974206,66.0004249 L9.77748016,65.8755188 C4.20029762,61.7663873 0.99593254,54.7494977 0.253869048,45.019392 C-0.920337302,29.6300023 4.6203373,11.5882535 8.78621032,7.39871127 C13.3590278,2.80092958 20.4568452,0.0547910798 27.7739087,0.0547910798 C34.3796627,0.0547910798 40.277877,2.32784272 44.3816468,6.45473239 C50.3810516,12.486939 54.5842262,23.4776784 55.6280754,35.8541573 C56.4235119,45.2785822 55.316369,57.3156596 49.8280754,62.8354718 L49.8006944,62.8624085 C49.4512897,63.2008122 41.0868056,71.1668685 28.0463294,71.1668685" id="Fill-25" fill="#221F20" mask="url(#mask-2)"></path>
                            </g>
                            <path d="M61.4080556,62.8044448 L59.5401984,60.9442218 C66.0771032,54.3084354 65.6890079,41.0600082 64.2132143,31.1150082 C62.4763095,19.4085528 58.8175794,9.33086502 57.6388095,7.60672183 L59.8046825,6.10864671 C61.2590476,8.23624061 65.0517063,18.8530599 66.8134127,30.7239284 C68.3784921,41.26752 68.7108333,55.390689 61.4080556,62.8044448" id="Fill-28" fill="#FEFEFE"></path>
                            <path d="M15.6879762,45.098446 C15.6879762,45.098446 18.5980952,69.9958638 58.41,59.7348075 C53.8786508,64.1488216 47.0480952,67.3820141 37.815754,67.257108 C21.4848016,65.8721667 17.7764683,57.1141737 16.5175397,50.607284 C16.0764683,48.3328357 15.6879762,45.098446 15.6879762,45.098446" id="Fill-30" fill="#E0DFD4"></path>
                            <path d="M32.8868056,20.1335669 C32.8868056,20.6924519 32.4368056,21.1447876 31.8818452,21.1447876 C31.3258929,21.1447876 30.875496,20.6924519 30.875496,20.1335669 C30.875496,19.5752805 31.3258929,19.1223462 31.8818452,19.1223462 C32.4368056,19.1223462 32.8868056,19.5752805 32.8868056,20.1335669" id="Fill-32" fill="#F4F5F5"></path>
                            <path d="M36.9628968,21.6332582 C36.9628968,23.7191502 35.280754,25.4109695 33.2065476,25.4109695 C31.1329365,25.4109695 29.4505952,23.7191502 29.4505952,21.6332582 C29.4505952,19.5469671 31.1329365,17.8551479 33.2065476,17.8551479 C35.280754,17.8551479 36.9628968,19.5469671 36.9628968,21.6332582" id="Fill-34" fill="#221F20"></path>
                            <path d="M35.1814286,20.3288075 C35.1814286,20.8148638 34.7901587,21.2089366 34.3078175,21.2089366 C33.8244841,21.2089366 33.4328175,20.8148638 33.4328175,20.3288075 C33.4328175,19.8441479 33.8244841,19.4496761 34.3078175,19.4496761 C34.7901587,19.4496761 35.1814286,19.8441479 35.1814286,20.3288075" id="Fill-36" fill="#F4F5F5"></path>
                            <path d="M53.5428373,20.1335669 C53.5428373,20.6924519 53.0932341,21.1447876 52.5382738,21.1447876 C51.9833135,21.1447876 51.5319246,20.6924519 51.5319246,20.1335669 C51.5319246,19.5752805 51.9833135,19.1223462 52.5382738,19.1223462 C53.0932341,19.1223462 53.5428373,19.5752805 53.5428373,20.1335669" id="Fill-38" fill="#F4F5F5"></path>
                            <path d="M57.6196032,21.6332582 C57.6196032,23.7191502 55.9368651,25.4109695 53.863254,25.4109695 C51.7888492,25.4109695 50.1067063,23.7191502 50.1067063,21.6332582 C50.1067063,19.5469671 51.7888492,17.8551479 53.863254,17.8551479 C55.9368651,17.8551479 57.6196032,19.5469671 57.6196032,21.6332582" id="Fill-40" fill="#221F20"></path>
                            <path d="M55.8387302,20.3288075 C55.8387302,20.8148638 55.4472619,21.2089366 54.964127,21.2089366 C54.4807937,21.2089366 54.0895238,20.8148638 54.0895238,20.3288075 C54.0895238,19.8441479 54.4807937,19.4496761 54.964127,19.4496761 C55.4472619,19.4496761 55.8387302,19.8441479 55.8387302,20.3288075" id="Fill-42" fill="#F4F5F5"></path>
                            <polygon id="Fill-44" fill="#E2B72B" points="48.2277579 24.6467676 44.2027579 28.6962394 40.1771627 24.6467676 44.2027579 20.5974953"></polygon>
                            <path d="M44.2544643,25.5408638 C41.9326389,25.5408638 40.2661706,25.0420376 40.1624008,25.0103122 L40.3441468,24.2824249 C40.3804563,24.2935986 44.0774802,25.3938099 48.0675595,24.28023 L48.2348214,25.012507 C46.8169643,25.4087746 45.4485119,25.5408638 44.2544643,25.5408638" id="Fill-46" fill="#3D3D3E"></path>
                            <path d="M16.5324802,54.4463709 C16.5324802,54.4463709 15.1550992,-2.20712676 43.9495437,15.1677911 C54.2148214,4.59267371 57.9715675,16.6469108 57.9715675,16.6469108 C57.9715675,16.6469108 58.2211706,-4.25251408 30.1789087,3.30171127 C4.7019246,11.012169 16.5324802,54.4463709 16.5324802,54.4463709" id="Fill-48" fill="#221F20"></path>
                            <g id="Group-52" transform="translate(61.904762, 24.287852)" fill="#221F20">
                                <path d="M0.0564880952,3.01311033 C0.0564880952,3.01311033 1.76779762,4.78893192 1.78327381,5.15965962 C1.82454365,6.17586854 -0.710376984,6.4266784 2.30450397,7.05619718 C3.18109127,7.40238263 5.15113095,7.76652582 6.15311508,7.25053991 C8.11025794,5.95179577 5.91700397,1.89494131 6.16640873,0.169401408 C8.0455754,-0.000399061033 9.74894841,2.78684272 10.6543056,4.09715962 C12.1140278,6.2475 13.5717659,8.39963615 12.7185913,11.3776291 C11.6497421,14.6850469 7.09081349,15.9087676 4.05668651,16.4919953 C0.86125,16.9938146 2.75271825,17.4676995 2.5689881,17.5109977 C1.52156746,17.7604108 2.5564881,18.6060211 1.61759921,18.6898239 C1.72593254,18.5256103 1.57196429,18.4238498 1.52652778,18.1566784" id="Fill-50"></path>
                            </g>
                        </g>
                    </g>
                </g>
            </g>
        </g>
    </g>
</svg>