<?xml version="1.0" encoding="UTF-8" standalone="no"?>
<svg width="50px" height="50px" viewBox="0 0 50 50" version="1.1" xmlns="http://www.w3.org/2000/svg" xmlns:xlink="http://www.w3.org/1999/xlink" xmlns:sketch="http://www.bohemiancoding.com/sketch/ns">
    <!-- Generator: Sketch 3.5.2 (25235) - http://www.bohemiancoding.com/sketch -->
    <title>calendar icon</title>
    <desc>Created with Sketch.</desc>
    <defs></defs>
    <g id="Home" stroke="none" stroke-width="1" fill="none" fill-rule="evenodd" sketch:type="MSPage">
        <g id="Contracting---Digit" sketch:type="MSArtboardGroup" transform="translate(-507.000000, -1178.000000)" fill="#000000">
            <g id="availability" sketch:type="MSLayerGroup" transform="translate(0.000000, 1096.000000)">
                <g id="types" transform="translate(418.000000, 82.000000)" sketch:type="MSShapeGroup">
                    <g id="part-time">
                        <g id="calendar-icon" transform="translate(89.000000, 0.000000)">
                            <path d="M1.63269043,4.48913574 C0.856935044,4.48913574 0.204467773,5.14160301 0.204467773,5.9173584 L0.204467773,48.4863281 C0.204467773,49.2620834 0.856935044,49.9145508 1.63269043,49.9145508 L48.0499268,49.9145508 C48.8256821,49.9145508 49.4781494,49.2620834 49.4781494,48.4863281 L49.4781494,5.9173584 C49.4781494,5.14160301 48.8256821,4.48913574 48.0499268,4.48913574 L1.63269043,4.48913574 L1.63269043,4.48913574 Z M1.91040039,6.21490479 L47.7722168,6.21490479 L47.7722168,48.1887817 L1.91040039,48.1887817 L1.91040039,6.21490479 L1.91040039,6.21490479 Z" id="Shape"></path>
                            <path d="M10.7975958,6.98494849 C9.46983564,6.98494849 8.34014897,8.08474849 8.34014897,9.48321714 C8.34014897,10.8816858 9.46983564,11.9855673 10.7975958,11.9855673 C12.1253554,11.9855673 13.2550427,10.8816858 13.2550427,9.48321714 C13.2550427,8.08474849 12.1253554,6.98494849 10.7975958,6.98494849 L10.7975958,6.98494849 Z M10.7975958,8.29123267 C11.5103786,8.29123267 12.0358439,8.84114346 12.0358439,9.48321714 C12.0358439,10.1252908 11.5103786,10.6792838 10.7975958,10.6792838 C10.0848125,10.6792838 9.55934712,10.1252908 9.55934712,9.48321714 C9.55934712,8.84114346 10.0848125,8.29123267 10.7975958,8.29123267 L10.7975958,8.29123267 Z" id="Shape"></path>
                            <path d="M16.2521362,15.914917 C15.8163823,15.914917 15.4586792,16.292148 15.4586792,16.7282104 L15.4586792,19.644165 C15.4586792,20.0802306 15.8160415,20.4376221 16.2521362,20.4376221 L19.1680908,20.4376221 C19.604185,20.4376221 19.9813843,20.08023 19.9813843,19.644165 L19.9813843,16.7282104 C19.9813843,16.2921493 19.6038447,15.914917 19.1680908,15.914917 L16.2521362,15.914917 L16.2521362,15.914917 Z M16.2719727,16.7480469 L19.1482544,16.7480469 L19.1482544,19.6243286 L16.2719727,19.6243286 L16.2719727,16.7480469 L16.2719727,16.7480469 Z" id="Shape"></path>
                            <path d="M22.3815918,15.914917 C21.9458379,15.914917 21.5881348,16.292148 21.5881348,16.7282104 L21.5881348,19.644165 C21.5881348,20.0802306 21.9454977,20.4376221 22.3815918,20.4376221 L25.2975464,20.4376221 C25.7336412,20.4376221 26.0910034,20.0802312 26.0910034,19.644165 L26.0910034,16.7282104 C26.0910034,16.2921474 25.7333009,15.914917 25.2975464,15.914917 L22.3815918,15.914917 L22.3815918,15.914917 Z M22.4014282,16.7480469 L25.27771,16.7480469 L25.27771,19.6243286 L22.4014282,19.6243286 L22.4014282,16.7480469 L22.4014282,16.7480469 Z" id="Shape"></path>
                            <path d="M28.5110474,15.914917 C28.0752935,15.914917 27.6977539,16.292115 27.6977539,16.7282104 L27.6977539,19.644165 C27.6977539,20.0802643 28.0749526,20.4376221 28.5110474,20.4376221 L31.427002,20.4376221 C31.8630967,20.4376221 32.220459,20.0802312 32.220459,19.644165 L32.220459,16.7282104 C32.220459,16.2921474 31.8627559,15.914917 31.427002,15.914917 L28.5110474,15.914917 L28.5110474,15.914917 Z M28.5308838,16.7480469 L31.4071655,16.7480469 L31.4071655,19.6243286 L28.5308838,19.6243286 L28.5308838,16.7480469 L28.5308838,16.7480469 Z" id="Shape"></path>
                            <path d="M34.6206665,15.914917 C34.1849126,15.914917 33.8272095,16.292115 33.8272095,16.7282104 L33.8272095,19.644165 C33.8272095,20.0802643 34.1845724,20.4376221 34.6206665,20.4376221 L37.5366211,20.4376221 C37.9727152,20.4376221 38.3499146,20.0802293 38.3499146,19.644165 L38.3499146,16.7282104 C38.3499146,16.29215 37.9723744,15.914917 37.5366211,15.914917 L34.6206665,15.914917 L34.6206665,15.914917 Z M34.6405029,16.7480469 L37.5167847,16.7480469 L37.5167847,19.6243286 L34.6405029,19.6243286 L34.6405029,16.7480469 L34.6405029,16.7480469 Z" id="Shape"></path>
                            <path d="M40.7501221,15.914917 C40.3143682,15.914917 39.956665,16.2921493 39.956665,16.7282104 L39.956665,19.644165 C39.956665,20.08023 40.3140279,20.4376221 40.7501221,20.4376221 L43.6660767,20.4376221 C44.1021714,20.4376221 44.4595337,20.0802998 44.4595337,19.644165 L44.4595337,16.7282104 C44.4595337,16.2920789 44.1018306,15.914917 43.6660767,15.914917 L40.7501221,15.914917 L40.7501221,15.914917 Z M40.7699585,16.7480469 L43.6462402,16.7480469 L43.6462402,19.6243286 L40.7699585,19.6243286 L40.7699585,16.7480469 L40.7699585,16.7480469 Z" id="Shape"></path>
                            <path d="M4.01306152,22.4411011 C3.57696624,22.4411011 3.21960449,22.7984614 3.21960449,23.2345581 L3.21960449,26.1505127 C3.21960449,26.5866062 3.57696624,26.9439697 4.01306152,26.9439697 L6.92901611,26.9439697 C7.36511089,26.9439697 7.72247314,26.5865719 7.72247314,26.1505127 L7.72247314,23.2345581 C7.72247314,22.7984957 7.36511089,22.4411011 6.92901611,22.4411011 L4.01306152,22.4411011 L4.01306152,22.4411011 Z M4.03289795,23.2543945 L6.90917969,23.2543945 L6.90917969,26.1306763 L4.03289795,26.1306763 L4.03289795,23.2543945 L4.03289795,23.2543945 Z" id="Shape"></path>
                            <path d="M10.1425171,22.4411011 C9.70642231,22.4411011 9.32922363,22.7984957 9.32922363,23.2345581 L9.32922363,26.1505127 C9.32922363,26.5865719 9.70642231,26.9439697 10.1425171,26.9439697 L13.0584717,26.9439697 C13.4945665,26.9439697 13.8519287,26.5866405 13.8519287,26.1505127 L13.8519287,23.2345581 C13.8519287,22.7984271 13.4945665,22.4411011 13.0584717,22.4411011 L10.1425171,22.4411011 L10.1425171,22.4411011 Z" id="Shape"></path>
                            <path d="M16.2521362,22.4411011 C15.8160408,22.4411011 15.4586792,22.7984957 15.4586792,23.2345581 L15.4586792,26.1505127 C15.4586792,26.5865719 15.8160408,26.9439697 16.2521362,26.9439697 L19.1680908,26.9439697 C19.6041856,26.9439697 19.9813843,26.5865713 19.9813843,26.1505127 L19.9813843,23.2345581 C19.9813843,22.798497 19.6041856,22.4411011 19.1680908,22.4411011 L16.2521362,22.4411011 L16.2521362,22.4411011 Z" id="Shape"></path>
                            <path d="M22.3815918,22.4411011 C21.945497,22.4411011 21.5881348,22.7984957 21.5881348,23.2345581 L21.5881348,26.1505127 C21.5881348,26.5865719 21.945497,26.9439697 22.3815918,26.9439697 L25.2975464,26.9439697 C25.7336418,26.9439697 26.0910034,26.5865726 26.0910034,26.1505127 L26.0910034,23.2345581 C26.0910034,22.7984951 25.7336418,22.4411011 25.2975464,22.4411011 L22.3815918,22.4411011 L22.3815918,22.4411011 Z" id="Shape"></path>
                            <path d="M28.5110474,22.4411011 C28.074952,22.4411011 27.6977539,22.7984627 27.6977539,23.2345581 L27.6977539,26.1505127 C27.6977539,26.5866056 28.074952,26.9439697 28.5110474,26.9439697 L31.427002,26.9439697 C31.8630967,26.9439697 32.220459,26.5865726 32.220459,26.1505127 L32.220459,23.2345581 C32.220459,22.7984951 31.8630967,22.4411011 31.427002,22.4411011 L28.5110474,22.4411011 L28.5110474,22.4411011 Z M28.5308838,23.2543945 L31.4071655,23.2543945 L31.4071655,26.1306763 L28.5308838,26.1306763 L28.5308838,23.2543945 L28.5308838,23.2543945 Z" id="Shape"></path>
                            <path d="M34.6206665,22.4411011 C34.1845717,22.4411011 33.8272095,22.7984627 33.8272095,23.2345581 L33.8272095,26.1505127 C33.8272095,26.5866056 34.1845717,26.9439697 34.6206665,26.9439697 L37.5366211,26.9439697 C37.9727159,26.9439697 38.3499146,26.5865707 38.3499146,26.1505127 L38.3499146,23.2345581 C38.3499146,22.7984976 37.9727159,22.4411011 37.5366211,22.4411011 L34.6206665,22.4411011 L34.6206665,22.4411011 Z M34.6405029,23.2543945 L37.5167847,23.2543945 L37.5167847,26.1306763 L34.6405029,26.1306763 L34.6405029,23.2543945 L34.6405029,23.2543945 Z" id="Shape"></path>
                            <path d="M40.7501221,22.5402832 C40.3143688,22.5402832 39.956665,22.8976791 39.956665,23.3337402 L39.956665,26.2496948 C39.956665,26.6857534 40.3140279,27.0431519 40.7501221,27.0431519 L43.6660767,27.0431519 C44.1021714,27.0431519 44.4595337,26.6858232 44.4595337,26.2496948 L44.4595337,23.3337402 C44.4595337,22.8976086 44.1018299,22.5402832 43.6660767,22.5402832 L40.7501221,22.5402832 L40.7501221,22.5402832 Z M40.7699585,23.3535767 L43.6462402,23.3535767 L43.6462402,26.2298584 L40.7699585,26.2298584 L40.7699585,23.3535767 L40.7699585,23.3535767 Z" id="Shape"></path>
                            <path d="M4.01306152,28.9474487 C3.57730749,28.9474487 3.21960449,29.3048123 3.21960449,29.7409058 L3.21960449,32.6568604 C3.21960449,33.092957 3.57662493,33.4503174 4.01306152,33.4503174 L6.92901611,33.4503174 C7.36545239,33.4503174 7.72247314,33.0929228 7.72247314,32.6568604 L7.72247314,29.7409058 C7.72247314,29.3048465 7.36477002,28.9474487 6.92901611,28.9474487 L4.01306152,28.9474487 L4.01306152,28.9474487 Z M4.03289795,29.7607422 L6.90917969,29.7607422 L6.90917969,32.6370239 L4.03289795,32.6370239 L4.03289795,29.7607422 L4.03289795,29.7607422 Z" id="Shape"></path>
                            <path d="M10.1425171,28.9474487 C9.70676382,28.9474487 9.32922363,29.3048465 9.32922363,29.7409058 L9.32922363,32.6568604 C9.32922363,33.0929228 9.70608145,33.4503174 10.1425171,33.4503174 L13.0584717,33.4503174 C13.494908,33.4503174 13.8519287,33.0929913 13.8519287,32.6568604 L13.8519287,29.7409058 C13.8519287,29.304778 13.4942256,28.9474487 13.0584717,28.9474487 L10.1425171,28.9474487 L10.1425171,28.9474487 Z" id="Shape"></path>
                            <path d="M16.2521362,28.9474487 C15.8163823,28.9474487 15.4586792,29.3048465 15.4586792,29.7409058 L15.4586792,32.6568604 C15.4586792,33.0929228 15.8157,33.4503174 16.2521362,33.4503174 L19.1680908,33.4503174 C19.6045271,33.4503174 19.9813843,33.0929215 19.9813843,32.6568604 L19.9813843,29.7409058 C19.9813843,29.3048472 19.6038447,28.9474487 19.1680908,28.9474487 L16.2521362,28.9474487 L16.2521362,28.9474487 Z" id="Shape"></path>
                            <path d="M22.3815918,28.9474487 C21.9458379,28.9474487 21.5881348,29.3048465 21.5881348,29.7409058 L21.5881348,32.6568604 C21.5881348,33.0929228 21.9451555,33.4503174 22.3815918,33.4503174 L25.2975464,33.4503174 C25.7339833,33.4503174 26.0910034,33.0929234 26.0910034,32.6568604 L26.0910034,29.7409058 C26.0910034,29.3048459 25.7333009,28.9474487 25.2975464,28.9474487 L22.3815918,28.9474487 L22.3815918,28.9474487 Z" id="Shape"></path>
                            <path d="M28.5110474,28.9474487 C28.0752935,28.9474487 27.6977539,29.3048129 27.6977539,29.7409058 L27.6977539,32.6568604 C27.6977539,33.0929558 28.0746111,33.4503174 28.5110474,33.4503174 L31.427002,33.4503174 C31.8634382,33.4503174 32.220459,33.0929234 32.220459,32.6568604 L32.220459,29.7409058 C32.220459,29.3048459 31.8627559,28.9474487 31.427002,28.9474487 L28.5110474,28.9474487 L28.5110474,28.9474487 Z M28.5308838,29.7607422 L31.4071655,29.7607422 L31.4071655,32.6370239 L28.5308838,32.6370239 L28.5308838,29.7607422 L28.5308838,29.7607422 Z" id="Shape"></path>
                            <path d="M34.6206665,28.9474487 C34.1849126,28.9474487 33.8272095,29.3048129 33.8272095,29.7409058 L33.8272095,32.6568604 C33.8272095,33.0929558 34.1842302,33.4503174 34.6206665,33.4503174 L37.5366211,33.4503174 C37.9730567,33.4503174 38.3499146,33.0929208 38.3499146,32.6568604 L38.3499146,29.7409058 C38.3499146,29.3048478 37.9723744,28.9474487 37.5366211,28.9474487 L34.6206665,28.9474487 L34.6206665,28.9474487 Z M34.6405029,29.7607422 L37.5167847,29.7607422 L37.5167847,32.6370239 L34.6405029,32.6370239 L34.6405029,29.7607422 L34.6405029,29.7607422 Z" id="Shape"></path>
                            <path d="M40.7501221,28.9474487 C40.3143682,28.9474487 39.956665,29.3048472 39.956665,29.7409058 L39.956665,32.6568604 C39.956665,33.0929215 40.3136858,33.4503174 40.7501221,33.4503174 L43.6660767,33.4503174 C44.1025129,33.4503174 44.4595337,33.0929919 44.4595337,32.6568604 L44.4595337,29.7409058 C44.4595337,29.3047773 44.1018306,28.9474487 43.6660767,28.9474487 L40.7501221,28.9474487 L40.7501221,28.9474487 Z M40.7699585,29.7607422 L43.6462402,29.7607422 L43.6462402,32.6370239 L40.7699585,32.6370239 L40.7699585,29.7607422 L40.7699585,29.7607422 Z" id="Shape"></path>
                            <path d="M4.01306152,35.4537964 C3.57696459,35.4537964 3.21960449,35.8111536 3.21960449,36.2472534 L3.21960449,39.163208 C3.21960449,39.5993047 3.57696542,39.9765015 4.01306152,39.9765015 L6.92901611,39.9765015 C7.36511216,39.9765015 7.72247314,39.5992704 7.72247314,39.163208 L7.72247314,36.2472534 C7.72247314,35.8111878 7.36511279,35.4537964 6.92901611,35.4537964 L4.01306152,35.4537964 L4.01306152,35.4537964 Z M4.03289795,36.2670898 L6.90917969,36.2670898 L6.90917969,39.1433716 L4.03289795,39.1433716 L4.03289795,36.2670898 L4.03289795,36.2670898 Z" id="Shape"></path>
                            <path d="M10.1425171,35.4537964 C9.70642104,35.4537964 9.32922363,35.8111878 9.32922363,36.2472534 L9.32922363,39.163208 C9.32922363,39.5992704 9.70642168,39.9765015 10.1425171,39.9765015 L13.0584717,39.9765015 C13.4945677,39.9765015 13.8519287,39.599339 13.8519287,39.163208 L13.8519287,36.2472534 C13.8519287,35.8111193 13.4945684,35.4537964 13.0584717,35.4537964 L10.1425171,35.4537964 L10.1425171,35.4537964 Z" id="Shape"></path>
                            <path d="M16.2521362,35.4537964 C15.8160396,35.4537964 15.4586792,35.8111878 15.4586792,36.2472534 L15.4586792,39.163208 C15.4586792,39.5992704 15.8160402,39.9765015 16.2521362,39.9765015 L19.1680908,39.9765015 C19.6041869,39.9765015 19.9813843,39.5992691 19.9813843,39.163208 L19.9813843,36.2472534 C19.9813843,35.8111885 19.6041875,35.4537964 19.1680908,35.4537964 L16.2521362,35.4537964 L16.2521362,35.4537964 Z" id="Shape"></path>
                            <path d="M22.3815918,35.4537964 C21.9454951,35.4537964 21.5881348,35.8111878 21.5881348,36.2472534 L21.5881348,39.163208 C21.5881348,39.5992704 21.9454958,39.9765015 22.3815918,39.9765015 L25.2975464,39.9765015 C25.7336431,39.9765015 26.0910034,39.599271 26.0910034,39.163208 L26.0910034,36.2472534 C26.0910034,35.8111872 25.7336437,35.4537964 25.2975464,35.4537964 L22.3815918,35.4537964 L22.3815918,35.4537964 Z" id="Shape"></path>
                            <path d="M28.5110474,35.4537964 C28.0749507,35.4537964 27.6977539,35.8111542 27.6977539,36.2472534 L27.6977539,39.163208 C27.6977539,39.5993034 28.0749513,39.9765015 28.5110474,39.9765015 L31.427002,39.9765015 C31.863098,39.9765015 32.220459,39.599271 32.220459,39.163208 L32.220459,36.2472534 C32.220459,35.8111872 31.8630986,35.4537964 31.427002,35.4537964 L28.5110474,35.4537964 L28.5110474,35.4537964 Z M28.5308838,36.2670898 L31.4071655,36.2670898 L31.4071655,39.1433716 L28.5308838,39.1433716 L28.5308838,36.2670898 L28.5308838,36.2670898 Z" id="Shape"></path>
                            <path d="M34.6206665,35.4537964 C34.1845698,35.4537964 33.8272095,35.8111542 33.8272095,36.2472534 L33.8272095,39.163208 C33.8272095,39.5993034 34.1845705,39.9765015 34.6206665,39.9765015 L37.5366211,39.9765015 C37.9727165,39.9765015 38.3499146,39.5992685 38.3499146,39.163208 L38.3499146,36.2472534 C38.3499146,35.8111891 37.9727171,35.4537964 37.5366211,35.4537964 L34.6206665,35.4537964 L34.6206665,35.4537964 Z M34.6405029,36.2670898 L37.5167847,36.2670898 L37.5167847,39.1433716 L34.6405029,39.1433716 L34.6405029,36.2670898 L34.6405029,36.2670898 Z" id="Shape"></path>
                            <path d="M40.7501221,35.4537964 C40.3140254,35.4537964 39.956665,35.8111885 39.956665,36.2472534 L39.956665,39.163208 C39.956665,39.5992691 40.314026,39.9765015 40.7501221,39.9765015 L43.6660767,39.9765015 C44.1021727,39.9765015 44.4595337,39.5993396 44.4595337,39.163208 L44.4595337,36.2472534 C44.4595337,35.811118 44.1021733,35.4537964 43.6660767,35.4537964 L40.7501221,35.4537964 L40.7501221,35.4537964 Z M40.7699585,36.2670898 L43.6462402,36.2670898 L43.6462402,39.1433716 L40.7699585,39.1433716 L40.7699585,36.2670898 L40.7699585,36.2670898 Z" id="Shape"></path>
                            <path d="M4.01306152,41.960144 C3.57696542,41.960144 3.21960449,42.3373459 3.21960449,42.7734375 L3.21960449,45.6893921 C3.21960449,46.1254856 3.57730749,46.4828491 4.01306152,46.4828491 L6.92901611,46.4828491 C7.36477002,46.4828491 7.72247314,46.1254513 7.72247314,45.6893921 L7.72247314,42.7734375 C7.72247314,42.3373802 7.36511216,41.960144 6.92901611,41.960144 L4.01306152,41.960144 L4.01306152,41.960144 Z M4.03289795,42.7932739 L6.90917969,42.7932739 L6.90917969,45.6695557 L4.03289795,45.6695557 L4.03289795,42.7932739 L4.03289795,42.7932739 Z" id="Shape"></path>
                            <path d="M10.1425171,41.960144 C9.70642168,41.960144 9.32922363,42.3373802 9.32922363,42.7734375 L9.32922363,45.6893921 C9.32922363,46.1254513 9.70676382,46.4828491 10.1425171,46.4828491 L13.0584717,46.4828491 C13.4942256,46.4828491 13.8519287,46.1255199 13.8519287,45.6893921 L13.8519287,42.7734375 C13.8519287,42.3373116 13.4945677,41.960144 13.0584717,41.960144 L10.1425171,41.960144 L10.1425171,41.960144 Z" id="Shape"></path>
                            <path d="M16.2521362,41.960144 C15.8160402,41.960144 15.4586792,42.3373802 15.4586792,42.7734375 L15.4586792,45.6893921 C15.4586792,46.1254513 15.8163823,46.4828491 16.2521362,46.4828491 L19.1680908,46.4828491 C19.6038447,46.4828491 19.9813843,46.1254507 19.9813843,45.6893921 L19.9813843,42.7734375 C19.9813843,42.3373808 19.6041869,41.960144 19.1680908,41.960144 L16.2521362,41.960144 L16.2521362,41.960144 Z" id="Shape"></path>
                            <path d="M22.3815918,41.960144 C21.9454958,41.960144 21.5881348,42.3373802 21.5881348,42.7734375 L21.5881348,45.6893921 C21.5881348,46.1254513 21.9458379,46.4828491 22.3815918,46.4828491 L25.2975464,46.4828491 C25.7333009,46.4828491 26.0910034,46.125452 26.0910034,45.6893921 L26.0910034,42.7734375 C26.0910034,42.3373795 25.7336431,41.960144 25.2975464,41.960144 L22.3815918,41.960144 L22.3815918,41.960144 Z" id="Shape"></path>
                            <path d="M38.8212344,7.04976631 C37.4934742,7.04976631 36.3637875,8.14956631 36.3637875,9.54803496 C36.3637875,10.9465036 37.4934742,12.0503852 38.8212344,12.0503852 C40.1489939,12.0503852 41.2786813,10.9465036 41.2786813,9.54803496 C41.2786813,8.14956631 40.1489939,7.04976631 38.8212344,7.04976631 L38.8212344,7.04976631 Z M38.8212344,8.35605049 C39.5340171,8.35605049 40.0594825,8.90596128 40.0594825,9.54803496 C40.0594825,10.1901086 39.5340171,10.7441016 38.8212344,10.7441016 C38.108451,10.7441016 37.5829856,10.1901086 37.5829856,9.54803496 C37.5829856,8.90596128 38.108451,8.35605049 38.8212344,8.35605049 L38.8212344,8.35605049 Z" id="Shape"></path>
                            <path d="M4.01306152,12.7807617 L4.01306152,13.9312744 L45.3125,13.9312744 L45.3125,12.7807617 L4.01306152,12.7807617 L4.01306152,12.7807617 Z" id="Shape"></path>
                            <path d="M10.528275,0.14143012 L11.0447977,0.14143012 C11.3593914,0.14143012 11.6126565,0.394695034 11.6126565,0.709288623 L11.6126565,9.48701113 C11.6126565,9.80160479 11.3593914,10.0548699 11.0447977,10.0548699 L10.528275,10.0548699 C10.2136813,10.0548699 9.96041616,9.80160479 9.96041616,9.48701113 L9.96041616,0.709288623 C9.96041616,0.394695034 10.2136813,0.14143012 10.528275,0.14143012 L10.528275,0.14143012 Z" id="Shape"></path>
                            <path d="M38.6045209,0.14143012 L39.1210437,0.14143012 C39.4356374,0.14143012 39.6889025,0.394695034 39.6889025,0.709288623 L39.6889025,9.48701113 C39.6889025,9.80160479 39.4356374,10.0548699 39.1210437,10.0548699 L38.6045209,10.0548699 C38.2899273,10.0548699 38.0366628,9.80160479 38.0366628,9.48701113 L38.0366628,0.709288623 C38.0366628,0.394695034 38.2899273,0.14143012 38.6045209,0.14143012 L38.6045209,0.14143012 Z" id="Shape"></path>
                        </g>
                    </g>
                </g>
            </g>
        </g>
    </g>
</svg>