<?xml version="1.0" encoding="UTF-8" standalone="no"?>
<svg width="50px" height="45px" viewBox="0 0 50 45" version="1.1" xmlns="http://www.w3.org/2000/svg" xmlns:xlink="http://www.w3.org/1999/xlink" xmlns:sketch="http://www.bohemiancoding.com/sketch/ns">
    <!-- Generator: Sketch 3.5.2 (25235) - http://www.bohemiancoding.com/sketch -->
    <title>metrics icon</title>
    <desc>Created with Sketch.</desc>
    <defs></defs>
    <g id="Home" stroke="none" stroke-width="1" fill="none" fill-rule="evenodd" sketch:type="MSPage">
        <g id="Contracting---Digit" sketch:type="MSArtboardGroup" transform="translate(-324.000000, -820.000000)" fill="#000000">
            <g id="intro" sketch:type="MSLayerGroup" transform="translate(0.000000, 109.000000)">
                <g id="side" transform="translate(268.000000, 66.000000)" sketch:type="MSShapeGroup">
                    <g id="metrics" transform="translate(12.000000, 645.000000)">
                        <g id="metrics-icon" transform="translate(44.000000, 0.000000)">
                            <path d="M47.9747253,0.437912088 L1.47582418,0.437912088 C0.660989011,0.437912088 0,1.0989011 0,1.91373626 L0,32.9340659 C0,33.7494505 0.660989011,34.4098901 1.47582418,34.4098901 L47.9752747,34.4098901 C48.7895604,34.4098901 49.4510989,33.75 49.4510989,32.9340659 L49.4510989,1.91373626 C49.4505495,1.0989011 48.7895604,0.437912088 47.9747253,0.437912088 L47.9747253,0.437912088 Z M47.4708791,28.1741758 C47.4708791,28.3340659 47.3417582,28.4637363 47.1813187,28.4637363 L2.26923077,28.4637363 C2.10879121,28.4637363 1.97967033,28.3340659 1.97967033,28.1741758 L1.97967033,2.70659341 C1.97967033,2.5467033 2.10879121,2.41703297 2.26923077,2.41703297 L47.1813187,2.41703297 C47.3417582,2.41703297 47.4708791,2.5467033 47.4708791,2.70659341 L47.4708791,28.1741758 L47.4708791,28.1741758 Z" id="Shape"></path>
                            <path d="M30.0961538,35.893956 L19.3543956,35.893956 C19.7906593,43.3082418 17.4758242,42.5203297 16.8835165,43.4318681 C16.6076923,43.8549451 16.7576923,44.2043956 16.9153846,44.410989 C17.0126374,44.5384615 17.2478022,44.617033 17.4076923,44.617033 L32.0434066,44.617033 C32.2032967,44.617033 32.439011,44.5384615 32.5357143,44.410989 C32.6928571,44.2043956 32.8434066,43.8543956 32.5675824,43.4318681 C31.9747253,42.5203297 29.6598901,43.3082418 30.0961538,35.893956 L30.0961538,35.893956 Z" id="Shape"></path>
                            <path d="M13.4901099,19.9357143 L9.65494505,19.9357143 C9.45989011,19.9357143 9.30604396,20.078022 9.30604396,20.2549451 L9.30604396,25.9835165 C9.30604396,26.1604396 9.45934066,26.3043956 9.65494505,26.3043956 L13.4901099,26.3043956 C13.6846154,26.3043956 13.8384615,26.1604396 13.8384615,25.9835165 L13.8384615,20.2549451 C13.8384615,20.078022 13.6846154,19.9357143 13.4901099,19.9357143 L13.4901099,19.9357143 Z" id="Shape"></path>
                            <path d="M20.067033,15.5708791 L16.2379121,15.5708791 C16.0510989,15.5708791 15.8901099,15.7148352 15.8901099,15.8912088 L15.8901099,25.9835165 C15.8901099,26.1604396 16.0510989,26.3043956 16.2379121,26.3043956 L20.067033,26.3043956 C20.2615385,26.3043956 20.4225275,26.1604396 20.4225275,25.9835165 L20.4225275,15.8912088 C20.4230769,15.7148352 20.2620879,15.5708791 20.067033,15.5708791 L20.067033,15.5708791 Z" id="Shape"></path>
                            <path d="M26.6483516,18.1895604 L22.8258242,18.1895604 C22.6313187,18.1895604 22.4708791,18.3324176 22.4708791,18.5093407 L22.4708791,25.9835165 C22.4708791,26.1604396 22.6313187,26.3043956 22.8258242,26.3043956 L26.6483516,26.3043956 C26.8428571,26.3043956 27.0032967,26.1604396 27.0032967,25.9835165 L27.0032967,18.5098901 C27.0032967,18.3324176 26.8428571,18.1895604 26.6483516,18.1895604 L26.6483516,18.1895604 Z" id="Shape"></path>
                            <path d="M33.2395604,17.0258242 L29.4049451,17.0258242 C29.2093407,17.0258242 29.056044,17.1692308 29.056044,17.3456044 L29.056044,25.9835165 C29.056044,26.1604396 29.2087912,26.3043956 29.4049451,26.3043956 L33.2395604,26.3043956 C33.4346154,26.3043956 33.5879121,26.1604396 33.5879121,25.9835165 L33.5879121,17.3456044 C33.5879121,17.1692308 33.4351648,17.0258242 33.2395604,17.0258242 L33.2395604,17.0258242 Z" id="Shape"></path>
                            <path d="M39.8208791,12.6615385 L35.9851648,12.6615385 C35.7901099,12.6615385 35.6368132,12.8049451 35.6368132,12.9807692 L35.6368132,25.9835165 C35.6368132,26.1604396 35.7895604,26.3043956 35.9851648,26.3043956 L39.8208791,26.3043956 C40.0153846,26.3043956 40.1692308,26.1604396 40.1692308,25.9835165 L40.1692308,12.9807692 C40.1686813,12.8049451 40.0148352,12.6615385 39.8208791,12.6615385 L39.8208791,12.6615385 Z" id="Shape"></path>
                            <path d="M42.0796703,4.72692308 L39.0796703,4.72692308 C38.8802198,4.72692308 38.7164835,4.89065934 38.7164835,5.09065934 C38.7164835,5.29230769 38.8802198,5.4543956 39.0796703,5.4543956 L41.1736264,5.4543956 L27.1324176,14.8467033 L20.9120879,9.44230769 C20.8395604,9.37637363 20.7340659,9.33681319 20.6120879,9.33021978 C20.5,9.32747253 20.3895604,9.35274725 20.2983516,9.40934066 L7.15054945,18.0291209 C6.97472527,18.1461538 6.95824176,18.3478022 7.11373626,18.4796703 C7.20274725,18.5510989 7.31813187,18.5868132 7.43626374,18.5868132 C7.53626374,18.5868132 7.63736264,18.560989 7.72472527,18.5065934 L20.5395604,10.1032967 L26.7604396,15.5104396 C26.8351648,15.5769231 26.9417582,15.617033 27.0637363,15.6225275 C27.1796703,15.6296703 27.2873626,15.5989011 27.3774725,15.5412088 L41.7159341,5.95274725 L41.7159341,8.09065934 C41.7159341,8.29065934 41.878022,8.4543956 42.0796703,8.4543956 C42.2791209,8.4543956 42.4434066,8.29065934 42.4434066,8.09065934 L42.4434066,5.09065934 C42.4434066,4.89010989 42.2791209,4.72692308 42.0796703,4.72692308 L42.0796703,4.72692308 Z" id="Shape"></path>
                        </g>
                    </g>
                </g>
            </g>
        </g>
    </g>
</svg>