<?xml version="1.0" encoding="UTF-8" standalone="no"?>
<svg width="50px" height="34px" viewBox="0 0 50 34" version="1.1" xmlns="http://www.w3.org/2000/svg" xmlns:xlink="http://www.w3.org/1999/xlink" xmlns:sketch="http://www.bohemiancoding.com/sketch/ns">
    <!-- Generator: Sketch 3.5.2 (25235) - http://www.bohemiancoding.com/sketch -->
    <title>laptop icon</title>
    <desc>Created with Sketch.</desc>
    <defs></defs>
    <g id="Home" stroke="none" stroke-width="1" fill="none" fill-rule="evenodd" sketch:type="MSPage">
        <g id="Contracting---Digit" sketch:type="MSArtboardGroup" transform="translate(-325.000000, -413.000000)" fill="#000000">
            <g id="intro" sketch:type="MSLayerGroup" transform="translate(0.000000, 109.000000)">
                <g id="side" transform="translate(268.000000, 66.000000)" sketch:type="MSShapeGroup">
                    <g id="laptop" transform="translate(17.000000, 238.000000)">
                        <g id="laptop-icon" transform="translate(40.000000, 0.000000)">
                            <path d="M49.99375,30.8179688 L47.0257812,30.8179688 L47.0257812,2.46328125 C47.0257812,1.34296875 46.1140625,0.43203125 44.99375,0.43203125 L5.009375,0.43203125 C3.8890625,0.43203125 2.978125,1.34296875 2.978125,2.46328125 L2.978125,30.8179688 L0.0015625,30.8179688 L0.0015625,31.9898438 L0.00625,31.9898438 L2.50546875,33.9429688 L47.4976562,33.9429688 L49.996875,31.9898438 L49.9921875,31.9898438 L49.9921875,30.8179688 L49.99375,30.8179688 Z M45.4632812,30.8179688 L29.5,30.8179688 C29.3804687,31.4757813 28.79375,31.9898438 28.059375,31.9898438 L21.9367187,31.9898438 C21.2023437,31.9898438 20.615625,31.4757813 20.4960937,30.8179688 L4.54140625,30.8179688 L4.54140625,2.46328125 C4.54140625,2.209375 4.75546875,1.99453125 5.01015625,1.99453125 L44.9945312,1.99453125 C45.2484375,1.99453125 45.4640625,2.20859375 45.4640625,2.46328125 L45.4640625,30.8179688 L45.4632812,30.8179688 Z" id="Shape"></path>
                            <path d="M13.6460937,16.2515625 L13.6460937,17.2375 L21.2875,21.1742188 L21.2875,19.8460938 L15.1,16.7445313 L21.2335937,13.6695313 L21.2875,13.6429688 L21.2875,12.315625 L13.6992187,16.2242188 L13.6460937,16.2515625 Z" id="Shape"></path>
                            <path d="M22.43125,21.7539062 L23.7164062,21.7539062 L28.2335937,10.0546875 L28.2851562,9.92265625 L26.9835937,9.92265625 L22.43125,21.7539062 Z" id="Shape"></path>
                            <path d="M28.7117187,12.3164062 L28.7117187,13.6429687 L34.9460937,16.7445312 L28.7664062,19.81875 L28.7117187,19.8460937 L28.7117187,21.1742188 L36.3546875,17.253125 L36.3546875,16.2359375 L28.8539062,12.3890625 L28.7117187,12.3164062 Z" id="Shape"></path>
                        </g>
                    </g>
                </g>
            </g>
        </g>
    </g>
</svg>