<?xml version="1.0" encoding="UTF-8" standalone="no"?>
<svg width="50px" height="50px" viewBox="0 0 50 50" version="1.1" xmlns="http://www.w3.org/2000/svg" xmlns:xlink="http://www.w3.org/1999/xlink" xmlns:sketch="http://www.bohemiancoding.com/sketch/ns">
    <!-- Generator: Sketch 3.5.2 (25235) - http://www.bohemiancoding.com/sketch -->
    <title>api icon</title>
    <desc>Created with Sketch.</desc>
    <defs></defs>
    <g id="Home" stroke="none" stroke-width="1" fill="none" fill-rule="evenodd" sketch:type="MSPage">
        <g id="Contracting---Digit" sketch:type="MSArtboardGroup" transform="translate(-324.000000, -685.000000)" fill="#000000">
            <g id="intro" sketch:type="MSLayerGroup" transform="translate(0.000000, 109.000000)">
                <g id="side" transform="translate(268.000000, 66.000000)" sketch:type="MSShapeGroup">
                    <g id="api" transform="translate(0.000000, 510.000000)">
                        <path d="M105.132726,35.2302736 L95.2722526,30.2374212 L104.606054,25.4119335 C104.903331,25.257443 104.903331,25.0093219 104.604299,24.8589277 L94.0778771,19.5295903 L105.145016,13.8075894 C105.682806,13.5284532 106.001736,13.0333813 105.99881,12.4827163 C105.995299,11.9332216 105.670517,11.4428313 105.132726,11.1713025 L83.5485295,0.244609976 C83.1488438,0.0427189671 82.7316024,0 82.4512957,0 C82.1938115,0 81.8087556,0.0362818625 81.4359888,0.210668879 L56.9000867,11.6973895 C56.3418142,11.95897 56.0053291,12.44819 56.0000624,13.0052921 C55.9947957,13.5629795 56.323088,14.0586365 56.8772642,14.3313357 L68.6624324,20.1264854 L57.3969141,25.4002297 C57.0961258,25.5412608 57.0949554,25.7765077 57.3939882,25.9233907 L67.3972488,30.842509 L56.9000867,35.7557755 C56.341229,36.017356 56.004744,36.5065759 56.0000624,37.0636781 C55.9953809,37.6213654 56.3236732,38.1170225 56.8772642,38.3885512 L80.0239221,49.771693 C80.4048816,49.9595394 80.800471,49.9987472 81.0649775,49.9987472 C81.3435285,49.9987472 81.7590144,49.9560283 82.1604556,49.7500409 L105.146186,37.8659754 C105.683977,37.5868391 106.002906,37.0917673 105.99998,36.5411022 C105.995299,35.9921928 105.671103,35.5012172 105.132726,35.2302736 L105.132726,35.2302736 Z M82.3892654,2.34603204 C82.3951174,2.34486166 82.4179398,2.34076532 82.4512957,2.34076532 C82.4869924,2.34076532 82.513326,2.34544685 82.4992814,2.33725417 L102.576611,12.5008572 L81.1252522,23.5949144 C81.1194003,23.5960848 81.097163,23.6007663 81.0649775,23.6007663 L81.0567848,23.6130554 L59.5539294,13.0392332 L82.3892654,2.34603204 L82.3892654,2.34603204 Z M81.1281781,47.65213 C81.121741,47.6538856 81.0983334,47.6579819 81.0643923,47.6579819 L81.05737,47.6714413 L59.5550998,37.097034 L69.7227991,32.3370877 L80.0227517,37.4019187 C80.4042965,37.5897651 80.7998858,37.6295581 81.0643923,37.6295581 C81.3435285,37.6295581 81.7595996,37.5862539 82.1587001,37.3802666 L93.0631553,31.7431185 L102.57544,36.5592432 L81.1281781,47.65213 L81.1281781,47.65213 Z" id="api-icon"></path>
                    </g>
                </g>
            </g>
        </g>
    </g>
</svg>