<?xml version="1.0" encoding="UTF-8" standalone="no"?>
<svg width="38px" height="50px" viewBox="0 0 38 50" version="1.1" xmlns="http://www.w3.org/2000/svg" xmlns:xlink="http://www.w3.org/1999/xlink" xmlns:sketch="http://www.bohemiancoding.com/sketch/ns">
    <!-- Generator: Sketch 3.5.2 (25235) - http://www.bohemiancoding.com/sketch -->
    <title>Layer 1</title>
    <desc>Created with Sketch.</desc>
    <defs></defs>
    <g id="Home" stroke="none" stroke-width="1" fill="none" fill-rule="evenodd" sketch:type="MSPage">
        <g id="Contracting---Digit" sketch:type="MSArtboardGroup" transform="translate(-331.000000, -543.000000)" fill="#000000">
            <g id="intro" sketch:type="MSLayerGroup" transform="translate(0.000000, 109.000000)">
                <g id="side" transform="translate(268.000000, 66.000000)" sketch:type="MSShapeGroup">
                    <g id="mobile" transform="translate(17.000000, 368.000000)">
                        <g id="mobile-icon" transform="translate(46.000000, 0.000000)">
                            <g id="Layer-1">
                                <path d="M15.3451767,37.1548222 C15.9960533,37.8056967 15.9960533,38.86097 15.3451767,39.5118444 C14.6943033,40.16272 13.63903,40.16272 12.9881567,39.5118444 C12.33728,38.86097 12.33728,37.8056967 12.9881567,37.1548222 C13.63903,36.5039467 14.6943033,36.5039467 15.3451767,37.1548222 L15.3451767,37.1548222 Z M21.6666667,22.7777778 L36.1111111,22.7777778 L36.1111111,43.3333333 L21.6666667,43.3333333 L21.6666667,22.7777778 Z M30.0674,45.4881556 C30.7182756,46.13903 30.7182756,47.1943033 30.0674,47.8451778 C29.4165256,48.4960533 28.3612522,48.4960533 27.7103778,47.8451778 C27.0595022,47.1943033 27.0595022,46.13903 27.7103778,45.4881556 C28.3612522,44.83728 29.4165256,44.83728 30.0674,45.4881556 L30.0674,45.4881556 Z M20,34.4444444 L1.66666667,34.4444444 L1.66666667,4.44444444 L26.6666667,4.44444444 L26.6666667,20 L28.3333333,20 L28.3333333,2.77777778 C28.3333333,1.2436535 27.08968,0 25.5555556,0 L2.77777778,0 C1.24365333,0 0,1.2436535 0,2.77777778 L0,39.4444444 C0,40.9785689 1.24365333,42.2222222 2.77777778,42.2222222 L20,42.2222222 L20,47.2222222 C20,48.7563467 21.2436533,50 22.7777778,50 L35,50 C36.5341244,50 37.7777778,48.7563467 37.7777778,47.2222222 L37.7777778,22.7777778 C37.7777778,21.2436533 36.5341244,20 35,20 L22.7777778,20 C21.2436533,20 20,21.2436533 20,22.7777778 L20,34.4444444 Z" id="Shape"></path>
                            </g>
                        </g>
                    </g>
                </g>
            </g>
        </g>
    </g>
</svg>