<?xml version="1.0" encoding="UTF-8" standalone="no"?>
<svg width="125px" height="105px" viewBox="0 0 125 105" version="1.1" xmlns="http://www.w3.org/2000/svg" xmlns:xlink="http://www.w3.org/1999/xlink" xmlns:sketch="http://www.bohemiancoding.com/sketch/ns">
    <!-- Generator: Sketch 3.5.2 (25235) - http://www.bohemiancoding.com/sketch -->
    <title>contract icon</title>
    <desc>Created with Sketch.</desc>
    <defs></defs>
    <g stroke="none" stroke-width="1" fill="none" fill-rule="evenodd" sketch:type="MSPage">
        <g sketch:type="MSArtboardGroup" transform="translate(-287.000000, -175.000000)">
            <g sketch:type="MSLayerGroup" transform="translate(0.000000, 109.000000)">
                <g transform="translate(268.000000, 66.000000)" sketch:type="MSShapeGroup">
                    <g transform="translate(19.000000, 0.000000)">
                        <path d="M122.713816,55.8914474 L105.25,55.8914474 C105.833882,54.5378289 106.174342,52.9835526 106.174342,51.1973684 C106.174342,46.4950658 100.169408,39.6710526 93.3223684,36.5970395 C93.1513158,36.5197368 92.9720395,36.4934211 92.7960526,36.4786184 L92.7960526,27.2927632 C92.7960526,26.3832237 92.0608553,25.6480263 91.1513158,25.6480263 L80.5394737,25.6480263 C81.2351974,24.1217105 81.7121711,22.5082237 81.9490132,20.8421053 C81.9786184,20.7796053 82.0213816,20.7269737 82.0444079,20.6611842 C82.1430921,20.3667763 82.1282895,20.0740132 82.0657895,19.7911184 C82.1052632,19.3026316 82.1315789,18.8125 82.1315789,18.3190789 C82.1315789,8.54440789 74.1776316,0.590460526 64.4029605,0.590460526 C54.6282895,0.590460526 46.6759868,8.54440789 46.6759868,18.3190789 C46.6759868,20.8733553 47.2253289,23.3601974 48.2680921,25.6480263 L37.6546053,25.6480263 C36.7450658,25.6480263 36.0098684,26.3832237 36.0098684,27.2927632 L36.0098684,36.5 C35.8601974,36.5230263 35.7105263,36.5378289 35.5641447,36.6036184 C25.5740132,41.1842105 20.6085526,48.8963816 19.2796053,51.2368421 C16.7878289,51.9424342 14.7138158,53.6463816 13.5263158,55.8947368 L2.28618421,55.8947368 C1.37664474,55.8947368 0.641447368,56.6299342 0.641447368,57.5394737 C0.641447368,58.4490132 1.37664474,59.1842105 2.28618421,59.1842105 L12.5032895,59.1842105 C12.4621711,59.5411184 12.4358553,59.9029605 12.4358553,60.2713816 C12.4358553,60.9934211 12.5378289,61.75 12.75,62.5871711 C12.8141447,62.8355263 12.9457237,63.0444079 13.1036184,63.2302632 C12.6694079,64.0345395 12.4358553,64.9029605 12.4358553,65.8009868 C12.4358553,66.3963816 12.5559211,67.0098684 12.8059211,67.6759868 C13.0460526,68.3190789 13.6611842,68.7450658 14.3470395,68.7450658 L29.3174342,68.7450658 C30.0016447,68.7450658 30.6151316,68.3207237 30.8569079,67.6809211 C31.1069079,67.0164474 31.2302632,66.4029605 31.2302632,65.8009868 C31.2302632,64.9029605 30.9950658,64.0345395 30.5608553,63.2302632 C30.7171053,63.0444079 30.8486842,62.8371711 30.9128289,62.5904605 C31.1266447,61.7565789 31.2302632,60.9967105 31.2302632,60.2713816 C31.2302632,59.9029605 31.2039474,59.5411184 31.1628289,59.1842105 L36.0115132,59.1842105 L36.0115132,68.5263158 C36.0115132,69.4358553 36.7467105,70.1710526 37.65625,70.1710526 L91.1546053,70.1710526 C92,70.1710526 92.6694079,69.5263158 92.7631579,68.7055921 C97.2516447,71.2680921 97.9342105,75.2154605 97.4917763,79.8815789 L11.4736842,79.8815789 C10.5641447,79.8815789 9.82894737,80.6167763 9.82894737,81.5263158 C9.82894737,82.4358553 10.5641447,83.1710526 11.4736842,83.1710526 L97.0444079,83.1710526 C96.9259868,83.8980263 96.8009868,84.6348684 96.6710526,85.3848684 C95.4950658,92.1776316 94.1611842,99.8782895 101.021382,104.404605 C101.300987,104.587171 101.613487,104.675987 101.925987,104.675987 C102.460526,104.675987 102.985197,104.416118 103.300987,103.9375 C103.800987,103.179276 103.592105,102.159539 102.833882,101.657895 C97.7713816,98.3174342 98.7631579,92.5838816 99.9144737,85.9457237 C100.072368,85.03125 100.231908,84.1036184 100.376645,83.1694079 L115.402961,83.1694079 C116.3125,83.1694079 117.047697,82.4342105 117.047697,81.5246711 C117.047697,80.6151316 116.3125,79.8799342 115.402961,79.8799342 L100.784539,79.8799342 C101.282895,73.9884868 100.194079,68.3190789 92.7976974,65.0509868 L92.7976974,63.8684211 C96.0197368,63.4424342 100.194079,62.0888158 103.021382,59.1842105 L122.713816,59.1842105 C123.623355,59.1842105 124.358553,58.4490132 124.358553,57.5394737 C124.358553,56.6299342 123.623355,55.8914474 122.713816,55.8914474 L122.713816,55.8914474 Z M78.8125,17.7664474 C76.3519737,16.7828947 74.4605263,15.7549342 73.1348684,14.9457237 C75.1003289,13.8700658 76.5460526,12.9703947 77.5180921,12.3190789 C78.2861842,13.9884868 78.7384868,15.8273026 78.8125,17.7664474 L78.8125,17.7664474 Z M64.4013158,3.87828947 C69.0394737,3.87828947 73.1628289,6.08552632 75.8059211,9.49506579 C73.0016447,11.3832237 65.1200658,16.0707237 50.2138158,20.8519737 C50.0657895,20.0197368 49.9638158,19.1759868 49.9638158,18.3190789 C49.9621711,10.3569079 56.4391447,3.87828947 64.4013158,3.87828947 L64.4013158,3.87828947 Z M51.1348684,24.0098684 C59.2697368,21.4078947 65.3815789,18.8388158 69.7697368,16.6858553 C71.1447368,17.6546053 74.1447368,19.5230263 78.5279605,21.1644737 C78.2121711,22.7384868 77.6661184,24.2565789 76.8453947,25.6480263 L51.9605263,25.6480263 C51.6463816,25.1184211 51.375,24.5707237 51.1348684,24.0098684 L51.1348684,24.0098684 Z M21.8305921,54.1628289 C25.1973684,54.1628289 27.9375,56.9029605 27.9375,60.2697368 C27.9375,60.3585526 27.9342105,60.4457237 27.9292763,60.5361842 L27.4358553,60.5361842 L16.2253289,60.5361842 L15.7335526,60.5361842 C15.7286184,60.4457237 15.7253289,60.3585526 15.7253289,60.2697368 C15.7253289,56.9029605 18.4638158,54.1628289 21.8305921,54.1628289 L21.8305921,54.1628289 Z M15.7565789,65.4539474 C15.8815789,64.7648026 16.3601974,64.2055921 16.7944079,63.8256579 L26.8684211,63.8256579 C27.3042763,64.2055921 27.7828947,64.7648026 27.9078947,65.4539474 L15.7565789,65.4539474 L15.7565789,65.4539474 Z M30.1381579,55.8914474 C28.7845395,53.3322368 26.2828947,51.4786184 23.3240132,51.0032895 C25.3059211,48.1480263 29.3881579,43.3470395 36.0065789,40.0542763 L36.0065789,55.8914474 L30.1381579,55.8914474 L30.1381579,55.8914474 Z M89.5049342,66.8782895 L39.2960526,66.8782895 L39.2960526,28.9375 L51.0526316,28.9375 L77.7483553,28.9375 L89.5032895,28.9375 L89.5032895,66.8782895 L89.5049342,66.8782895 Z M92.7944079,60.5296053 L92.7944079,50.84375 L94.3453947,50.4654605 C95.2286184,50.25 95.7697368,49.3601974 95.5542763,48.4786184 C95.3388158,47.5970395 94.4457237,47.0476974 93.5674342,47.2697368 L92.7927632,47.4588816 L92.7927632,39.9983553 C98.6907895,42.9736842 102.883224,48.6184211 102.883224,51.1990132 C102.884868,58.0740132 96.0756579,59.9983553 92.7944079,60.5296053 L92.7944079,60.5296053 Z" fill="#000000" class="base"></path>
                        <path d="M64.4013158,41.7713816 C61.0180921,41.7713816 58.2664474,44.5246711 58.2664474,47.90625 C58.2664474,51.2878289 61.0197368,54.0411184 64.4013158,54.0411184 C67.7828947,54.0411184 70.5361842,51.2878289 70.5361842,47.90625 C70.5361842,44.5246711 67.7828947,41.7713816 64.4013158,41.7713816 L64.4013158,41.7713816 Z M64.4013158,50.7532895 C62.8322368,50.7532895 61.5559211,49.4769737 61.5559211,47.9078947 C61.5559211,46.3388158 62.8322368,45.0625 64.4013158,45.0625 C65.9703947,45.0625 67.2467105,46.3388158 67.2467105,47.9078947 C67.2467105,49.4769737 65.9703947,50.7532895 64.4013158,50.7532895 L64.4013158,50.7532895 Z" fill="#000000" class="circle"></path>
                    </g>
                </g>
            </g>
        </g>
    </g>
</svg>