<?xml version="1.0" encoding="UTF-8" standalone="no"?>
<svg width="64px" height="50px" viewBox="0 0 64 50" version="1.1" xmlns="http://www.w3.org/2000/svg" xmlns:xlink="http://www.w3.org/1999/xlink" xmlns:sketch="http://www.bohemiancoding.com/sketch/ns">
    <!-- Generator: Sketch 3.5.2 (25235) - http://www.bohemiancoding.com/sketch -->
    <title>sprint icon</title>
    <desc>Created with Sketch.</desc>
    <defs></defs>
    <g id="Home" stroke="none" stroke-width="1" fill="none" fill-rule="evenodd" sketch:type="MSPage">
        <g id="Contracting---Digit" sketch:type="MSArtboardGroup" transform="translate(-801.000000, -1178.000000)" fill="#000000">
            <g id="availability" sketch:type="MSLayerGroup" transform="translate(0.000000, 1096.000000)">
                <g id="types" transform="translate(418.000000, 82.000000)" sketch:type="MSShapeGroup">
                    <g id="full-time" transform="translate(300.000000, 0.000000)">
                        <g id="sprint-icon" transform="translate(83.000000, 0.000000)">
                            <path d="M51.2996032,9.86048907 C53.9995421,9.86048907 56.1889499,7.66426146 56.1889499,4.96080075 C56.1889499,2.25657613 53.9995421,0.0626402312 51.2996032,0.0626402312 C48.5927961,0.0626402312 46.4003358,2.25734004 46.4003358,4.96080075 C46.4003358,7.66426146 48.5927961,9.86048907 51.2996032,9.86048907 L51.2996032,9.86048907 Z" id="Shape"></path>
                            <path d="M61.4430708,19.3443729 L53.2356532,20.6262059 C52.0657814,20.8080153 50.8348596,20.0280681 50.5028999,18.8898492 L48.2432845,11.1560724 C47.9105617,10.0186175 46.7735043,8.65046314 45.715812,8.11649337 L34.5093101,2.45213588 C33.4516178,1.9181661 31.6452991,1.71191168 30.4945055,1.99379272 L20.6662088,4.402386 C19.5154151,4.68426704 18.5744811,5.78811014 18.5744811,6.85528579 C18.5744811,7.92246143 19.5161783,8.56948919 20.667735,8.29295548 L29.2681624,6.22888348 C30.4204823,5.95234977 32.1932234,6.22506395 33.2089438,6.83389644 L35.9935897,8.50302943 C37.0100733,9.11186192 37.0123626,10.1125778 35.9989316,10.7275215 L27.3771368,15.9526335 C26.3644689,16.5675772 25.0618132,17.7607973 24.4826007,18.6072043 C23.9041514,19.4513196 26.1111111,24.100447 26.6193529,25.1722061 L29.3055556,30.8701754 C29.8130342,31.9411706 29.2590049,32.84869 28.0746337,32.84869 L17.1680403,32.84869 C15.9836691,32.84869 15.0931013,33.784474 15.1907814,34.9654715 L15.3304335,36.3527234 C15.4265873,37.5352488 16.4751221,38.1952629 17.6602564,38.1952629 L36.6544567,38.1952629 C37.8380647,38.1952629 38.4630647,37.5787914 38.0433455,36.4703648 L34.7168803,27.8481662 C34.2956349,26.7397397 33.6866606,24.9720629 33.3638584,23.8323162 L33.252442,23.4755725 C32.9288767,22.3350619 33.501221,20.9302402 34.5238095,20.3336302 L40.5067155,16.8494583 C41.529304,16.2520844 42.9021673,15.5057489 43.5576923,15.1849087 C44.2116911,14.8648324 45.0129731,15.537833 45.3373016,16.6791074 L47.3870574,23.8796784 C47.7106227,25.0201889 48.9239927,25.7489545 50.0808913,25.4983936 L61.4674908,23.0309796 C62.6243895,22.7796548 63.5721917,21.7735916 63.5721917,20.7935011 C63.5721917,19.8134107 62.6129426,19.1617995 61.4430708,19.3443729 L61.4430708,19.3443729 Z" id="Shape"></path>
                            <path d="M30.4708486,39.7230734 L25.8775946,39.7230734 C24.6924603,39.7230734 22.9334554,40.1485687 21.9665751,40.8345556 L16.577381,44.5922055 C15.6112637,45.2774286 15.382326,46.5951651 16.0676129,47.5630331 L17.1344628,49.0511205 C17.8205128,50.0182246 19.1399573,50.1962145 20.0663919,49.458282 L30.9394078,40.9338633 C31.8658425,40.1959308 31.6552198,39.7230734 30.4708486,39.7230734 L30.4708486,39.7230734 Z" id="Shape"></path>
                            <path d="M24.8649267,13.7502946 C26.0492979,13.7502946 27.0184676,13.360703 27.0184676,12.9863894 C27.0184676,12.6120758 26.0485348,12.2224841 24.8649267,12.2224841 L2.21306471,12.2224841 C1.02869353,12.2224841 0.0595238095,12.6120758 0.0595238095,12.9863894 C0.0595238095,13.360703 1.02945665,13.7502946 2.21306471,13.7502946 L24.8649267,13.7502946 L24.8649267,13.7502946 Z" id="Shape"></path>
                            <path d="M23.7210012,16.0420104 C23.7210012,15.6676968 22.7510684,15.2781052 21.5674603,15.2781052 L4.84737485,15.2781052 C3.66224054,15.2781052 2.69383394,15.6676968 2.69383394,16.0420104 C2.69383394,16.416324 3.66300366,16.8059157 4.84737485,16.8059157 L21.5666972,16.8059157 C22.7510684,16.8059157 23.7210012,16.416324 23.7210012,16.0420104 L23.7210012,16.0420104 Z" id="Shape"></path>
                            <path d="M22.6297314,19.0976315 C22.6297314,18.7240818 21.6605617,18.3337262 20.4769536,18.3337262 L6.60103785,18.3337262 C5.41590354,18.3337262 4.44673382,18.7240818 4.44673382,19.0976315 C4.44673382,19.471945 5.41666667,19.8615367 6.60103785,19.8615367 L20.4769536,19.8615367 C21.6605617,19.8615367 22.6297314,19.471945 22.6297314,19.0976315 L22.6297314,19.0976315 Z" id="Shape"></path>
                        </g>
                    </g>
                </g>
            </g>
        </g>
    </g>
</svg>