<?xml version="1.0" encoding="UTF-8" standalone="no"?>
<svg width="125px" height="70px" viewBox="0 0 125 70" version="1.1" xmlns="http://www.w3.org/2000/svg" xmlns:xlink="http://www.w3.org/1999/xlink">
    <g id="Home" stroke="none" stroke-width="1" fill="none" fill-rule="evenodd">
        <g id="Contracting---Digit" transform="translate(-300.000000, -2302.000000)">
            <g id="experience" transform="translate(0.000000, 1860.000000)">
                <g id="digit" transform="translate(0.000000, 392.000000)">
                    <g id="logo" transform="translate(300.000000, 50.000000)">
                        <path d="M122.650274,0.0416965067 L97.5489774,0.0416965067 C96.6525025,0.0416965067 95.9228137,0.771385374 95.9228137,1.66786027 L95.9228137,26.7900056 C95.9228137,27.6864805 96.6525025,28.3536246 97.5281292,28.2910798 L122.691971,26.2271027 C123.588446,26.1228614 124.297286,25.3514761 124.297286,24.4550012 L124.297286,1.66786027 C124.25559,0.771385374 123.525901,0.0416965067 122.650274,0.0416965067 L122.650274,0.0416965067 Z M112.663961,7.23434391 L119.252009,7.23434391 L119.252009,9.0272937 L112.663961,9.0272937 L112.663961,7.23434391 L112.663961,7.23434391 Z M100.634519,7.23434391 L103.073765,7.23434391 L103.073765,4.83679478 L104.970956,4.83679478 L104.970956,7.23434391 L107.410201,7.23434391 L107.410201,9.06899021 L104.970956,9.06899021 L104.970956,11.4665393 L103.073765,11.4665393 L103.073765,9.06899021 L100.634519,9.06899021 L100.634519,7.23434391 L100.634519,7.23434391 Z M109.161455,22.8288374 C106.034217,22.8288374 103.136309,21.4528527 101.134877,19.0970001 L102.677648,17.8252566 C104.282963,19.7641442 106.680512,20.8482534 109.182303,20.8482534 C113.247712,20.8482534 116.771067,17.9503461 117.542452,13.9474815 L119.502188,14.3227501 C118.564017,19.2429378 114.22758,22.8288374 109.161455,22.8288374 L109.161455,22.8288374 Z" id="Shape" fill="#4DE1A3"></path>
                        <path d="M22.5161136,51.4951858 L22.2450863,51.4951858 C20.1185645,54.6015755 16.94963,56.123498 12.7174345,56.123498 C8.75626641,56.123498 5.64987666,54.7475133 3.46081006,52.0580886 C1.27174345,49.3269674 0.166786027,45.4908888 0.166786027,40.487308 C0.166786027,35.4837272 1.27174345,31.6268003 3.46081006,28.8539826 C5.64987666,26.0811649 8.75626641,24.7260285 12.6965863,24.7260285 C16.8036922,24.7260285 19.9517785,26.2271027 22.1616933,29.1875547 L22.5369619,29.1875547 L22.3284793,27.0193363 L22.2242381,24.8928145 L22.2242381,12.5298003 L26.8317021,12.5298003 L26.8317021,55.5814434 L23.0998647,55.5814434 L22.5161136,51.4951858 L22.5161136,51.4951858 Z M13.3428821,52.2874194 C16.4701201,52.2874194 18.7425798,51.4534893 20.1811092,49.7647807 C21.6196387,48.055224 22.3076311,45.3241028 22.3076311,41.5088724 L22.3076311,40.5498528 C22.3076311,36.2551126 21.5987905,33.1904193 20.1394127,31.355773 C18.7425798,29.5211267 16.4492719,28.6246519 13.2803374,28.6246519 C10.5909127,28.6246519 8.50608737,29.6670645 7.10925439,31.7518899 C5.71242142,33.8575634 4.94103604,36.7763189 4.94103604,40.6123975 C4.94103604,44.4693244 5.64987666,47.4089281 7.06755789,49.4103604 C8.52693562,51.2867032 10.5909127,52.2874194 13.3428821,52.2874194 L13.3428821,52.2874194 Z M36.3802021,55.5814434 L31.7727381,55.5814434 L31.7727381,25.2680831 L36.3802021,25.2680831 L36.3802021,55.5814434 L36.3802021,55.5814434 Z M66.651866,25.2263866 L66.651866,28.1659903 L61.0645341,28.8331344 C61.5648921,29.5002785 62.0235537,30.3342086 62.461367,31.355773 C62.8574839,32.3981857 63.0659664,33.5448396 63.0659664,34.8791279 C63.0659664,37.8395798 62.0235537,40.2162807 60.0429697,41.967534 C58.0206891,43.7396355 55.2478714,44.6361104 51.6828201,44.6361104 C50.7863452,44.6361104 49.9107185,44.5318692 49.1601814,44.4067796 C47.2004456,45.4491923 46.2205777,46.741784 46.2205777,48.305403 C46.2205777,49.1393331 46.5541497,49.7439325 47.2629903,50.1400493 C47.9301345,50.5361661 49.0976366,50.7446487 50.7654969,50.7446487 L56.1651945,50.7446487 C59.4592186,50.7446487 61.961009,51.4117928 63.7331105,52.8086257 C65.505212,54.2054587 66.3599904,56.206891 66.3599904,58.833771 C66.3599904,62.1694915 64.9840057,64.7546749 62.294581,66.5059282 C59.6051563,68.2780297 55.6648364,69.1328081 50.4944696,69.1328081 C46.5333015,69.1328081 43.4686082,68.4031192 41.3420864,66.9437415 C39.173868,65.4843638 38.1106071,63.3786902 38.1106071,60.6892655 C38.1106071,58.8546192 38.7152065,57.2493037 39.8827087,55.8941672 C41.0919074,54.5181825 42.7180711,53.6217076 44.8862895,53.163046 C44.1149041,52.829474 43.4894565,52.2665712 42.9265536,51.5368823 C42.3844991,50.8071934 42.13432,49.9315668 42.13432,48.9725471 C42.13432,47.8675897 42.4053473,46.90857 43.0099467,46.0329434 C43.614546,45.1990133 44.5527174,44.4067796 45.8036126,43.6353943 C44.2399936,42.9682502 42.9682502,41.8632927 41.967534,40.3413702 C40.9668178,38.7777512 40.5081563,37.0473462 40.5081563,35.0042174 C40.5081563,31.7101933 41.5088724,29.1041617 43.4686082,27.3320601 C45.4700406,25.5391104 48.305403,24.6426355 51.9329991,24.6426355 C53.5383146,24.6426355 54.9351476,24.851118 56.206891,25.2055383 L66.651866,25.2263866 L66.651866,25.2263866 Z M42.5095886,60.647569 C42.5095886,62.2737328 43.1767327,63.5454762 44.5735657,64.3794063 C45.9703986,65.2133365 47.9301345,65.6511498 50.5361661,65.6511498 C54.393093,65.6511498 57.2284554,65.088247 59.1047983,63.9207448 C60.9602928,62.7532426 61.8776159,61.1896236 61.8776159,59.2298878 C61.8776159,57.603724 61.3772579,56.4570701 60.3348452,55.789926 C59.2924325,55.1644784 57.3952415,54.8309063 54.6015755,54.8309063 L49.0976366,54.8309063 C46.9919631,54.8309063 45.4074958,55.3312644 44.2399936,56.3319806 C43.0724914,57.353545 42.5095886,58.7920745 42.5095886,60.647569 L42.5095886,60.647569 Z M44.9696825,34.9625209 C44.9696825,37.0890427 45.5742818,38.6943582 46.7626323,39.7993156 C47.971831,40.8625766 49.618843,41.4254794 51.7662131,41.4254794 C56.2277393,41.4254794 58.4585024,39.2572611 58.4585024,34.9208244 C58.4585024,30.3550569 56.1860428,28.0825973 51.6619718,28.0825973 C49.4937535,28.0825973 47.8258932,28.6871966 46.658391,29.8546988 C45.5742818,30.9596562 44.9696825,32.669213 44.9696825,34.9625209 L44.9696825,34.9625209 Z M74.6575953,55.5814434 L70.0501313,55.5814434 L70.0501313,25.2680831 L74.6575953,25.2680831 L74.6575953,55.5814434 L74.6575953,55.5814434 Z" id="Shape" fill="#000000"></path>
                        <path d="M22.1825416,16.4284236 L25.9560754,16.4284236 L25.9560754,32.0854619 L22.1825416,32.0854619 L22.1825416,16.4284236 Z" id="Shape" fill="#000000"></path>
                        <ellipse id="Oval" fill="#000000" cx="34.066046" cy="19.3263309" rx="2.62687992" ry="2.62687992"></ellipse>
                        <ellipse id="Oval" fill="#000000" cx="72.3434391" cy="19.3263309" rx="2.62687992" ry="2.62687992"></ellipse>
                        <path d="M91.4195909,52.3291159 C89.9185167,52.3291159 88.3132012,51.8704543 87.4792711,50.8697382 C86.6036444,49.869022 86.1866794,48.5138855 86.1866794,46.6792393 L86.1866794,28.8122861 L91.7323147,28.8122861 L91.7323147,25.2263866 L86.1449828,25.2263866 L86.1449828,18.2005252 L83.4764064,18.2005252 L81.5375189,24.7051802 L77.2010822,26.6023713 L77.2010822,28.7914379 L81.5375189,28.7914379 L81.5375189,46.8460253 C81.5375189,53.0171083 84.4771226,56.1026498 90.3354818,56.1026498 C90.7732951,56.1026498 90.8983846,56.0609533 91.3778944,56.040105 C91.4195909,52.3291159 91.4404392,52.3291159 91.4195909,52.3291159 L91.4195909,52.3291159 Z" id="Shape" fill="#000000"></path>
                    </g>
                </g>
            </g>
        </g>
    </g>
</svg>